<svg width="32.000000" height="32.000000" viewBox="0 0 32 32" fill="none" xmlns="http://www.w3.org/2000/svg" xmlns:xlink="http://www.w3.org/1999/xlink">
    <desc>
        Created with Pixso.
    </desc>
    <defs>
        <clipPath id="clip125_45">
            <rect id="20-存钱罐" width="32.000000" height="32.000000" fill="white" fill-opacity="0"/>
        </clipPath>
    </defs>
    <g clip-path="url(#clip125_45)">
        <path id="path" d="M15.57 4.28C16.62 4.28 17.48 5.13 17.48 6.18C17.48 7.23 16.62 8.08 15.57 8.08C14.52 8.08 13.67 7.23 13.67 6.18C13.67 5.13 14.52 4.28 15.57 4.28ZM15.58 25.77C9.6 25.77 4.74 21.8 4.74 16.93C4.74 12.68 8.56 8.97 13.67 8.23C14.17 8.7 14.85 8.98 15.58 8.98C16.32 8.98 17 8.69 17.5 8.23C22.6 8.97 26.43 12.68 26.43 16.93C26.43 21.8 21.56 25.77 15.58 25.77Z" fill="#FFFFFF" fill-opacity="1.000000" fill-rule="nonzero"/>
        <path id="path" d="M15.58 24.83C9.6 24.83 4.74 21.8 4.74 16.93C4.74 12.68 8.56 8.97 13.67 8.23C14.17 8.7 14.85 8.98 15.58 8.98C16.32 8.98 17 8.69 17.5 8.23C22.6 8.97 25.49 12.68 25.49 16.93C25.49 21.8 21.56 24.83 15.58 24.83ZM8.72 6.46L10.66 8.08C9.78 8.42 8.95 8.85 8.19 9.36L8.72 6.46ZM3.48 18.95C3.16 18.95 2.9 18.7 2.9 18.38L2.9 15.83C2.9 15.51 3.16 15.25 3.48 15.25L4 15.25C3.88 15.8 3.82 16.37 3.82 16.94C3.82 17.62 3.9 18.29 4.07 18.95L3.48 18.95ZM11.66 27.48C11.64 27.62 11.51 27.71 11.44 27.71L9.61 27.71C9.54 27.71 9.41 27.63 9.39 27.48L8.91 24.97C9.83 25.5 10.84 25.92 11.9 26.21L11.66 27.48ZM21.76 27.48C21.73 27.62 21.61 27.71 21.53 27.71L19.71 27.71C19.63 27.71 19.51 27.63 19.48 27.48L19.24 26.21C20.3 25.92 21.31 25.5 22.24 24.97L21.76 27.48Z" fill="#E87A66" fill-opacity="1.000000" fill-rule="nonzero"/>
        <path id="path" d="M8.96 15.61C8.64 15.61 8.39 15.36 8.39 15.05C8.39 14.73 8.64 14.48 8.96 14.48C9.27 14.48 9.52 14.73 9.52 15.05C9.52 15.36 9.27 15.61 8.96 15.61ZM18.89 11.29L12.26 11.29L12.26 10.21L18.89 10.21L18.89 11.29Z" fill="#65D5EF" fill-opacity="1.000000" fill-rule="nonzero"/>
        <path id="path" d="M14.75 4.28C15.74 4.28 16.54 5.13 16.54 6.18C16.54 7.23 15.74 8.08 14.75 8.08C13.77 8.08 12.96 7.23 12.96 6.18C12.96 5.13 13.77 4.28 14.75 4.28Z" fill="#F7DF8A" fill-opacity="1.000000" fill-rule="nonzero"/>
        <path id="path" d="M24.37 17.8C24.13 17.76 23.89 17.92 23.85 18.17C23.75 18.7 23.58 19.23 23.35 19.74C23.25 19.97 23.35 20.24 23.58 20.34C23.64 20.37 23.7 20.38 23.77 20.38C23.94 20.38 24.11 20.28 24.18 20.11C24.44 19.54 24.63 18.94 24.74 18.34C24.78 18.09 24.62 17.85 24.37 17.8ZM22.42 11.85C22.22 12 22.19 12.29 22.35 12.49C23.27 13.65 23.82 14.99 23.93 16.37C23.95 16.61 24.15 16.79 24.38 16.79C24.4 16.79 24.41 16.79 24.42 16.78C24.67 16.76 24.85 16.54 24.83 16.29C24.7 14.73 24.09 13.22 23.05 11.92C22.9 11.73 22.61 11.7 22.42 11.85Z" fill="#274359" fill-opacity="1.000000" fill-rule="nonzero"/>
        <path id="path" d="M29.72 16.23C29.2 15.37 28.08 15.08 27.21 15.57C26.89 13.71 25.93 11.96 24.44 10.54C22.78 8.96 20.55 7.86 18.1 7.42C18.28 7.04 18.38 6.62 18.38 6.18C18.38 4.63 17.12 3.37 15.57 3.37C14.02 3.37 12.76 4.63 12.76 6.18C12.76 6.62 12.87 7.04 13.05 7.42C12.58 7.5 12.12 7.61 11.67 7.74L8.7 5.27C8.58 5.17 8.41 5.14 8.26 5.19C8.11 5.25 8 5.38 7.97 5.54L7.12 10.17C6.98 10.29 6.84 10.41 6.71 10.54C5.55 11.65 4.71 12.95 4.25 14.35L3.48 14.35C2.66 14.35 2 15.01 2 15.83L2 18.38C2 19.2 2.66 19.86 3.48 19.86L4.36 19.86C4.48 20.17 4.61 20.47 4.76 20.77C5.36 21.93 6.21 22.97 7.3 23.86C7.5 24.03 7.71 24.19 7.92 24.34C7.92 24.5 7.93 24.65 7.96 24.81L8.5 27.65C8.61 28.2 9.09 28.62 9.62 28.62L11.44 28.62C11.98 28.62 12.46 28.2 12.56 27.65L12.8 26.42C13.7 26.6 14.63 26.69 15.58 26.69C16.53 26.69 17.46 26.6 18.36 26.42L18.6 27.65C18.7 28.2 19.19 28.62 19.72 28.62L21.54 28.62C22.07 28.62 22.55 28.2 22.66 27.65L23.2 24.81C23.23 24.65 23.24 24.5 23.24 24.34C23.45 24.19 23.65 24.03 23.86 23.86C24.94 22.97 25.8 21.93 26.4 20.77C27.02 19.56 27.33 18.27 27.33 16.94C27.33 16.77 27.33 16.61 27.32 16.44C27.42 16.46 27.53 16.44 27.62 16.38C28.08 16.1 28.68 16.25 28.95 16.7C29.23 17.16 29.09 17.76 28.63 18.04C28.42 18.17 28.35 18.45 28.48 18.66C28.57 18.8 28.72 18.88 28.87 18.88C28.95 18.88 29.03 18.86 29.11 18.81C29.98 18.27 30.26 17.11 29.72 16.23ZM15.57 4.28C16.62 4.28 17.48 5.13 17.48 6.18C17.48 7.23 16.62 8.08 15.57 8.08C14.52 8.08 13.67 7.23 13.67 6.18C13.67 5.13 14.52 4.28 15.57 4.28ZM8.72 6.46L10.66 8.08C9.78 8.42 8.95 8.85 8.19 9.36L8.72 6.46ZM3.48 18.95C3.16 18.95 2.9 18.7 2.9 18.38L2.9 15.83C2.9 15.51 3.16 15.25 3.48 15.25L4 15.25C3.88 15.8 3.82 16.37 3.82 16.94C3.82 17.62 3.9 18.29 4.07 18.95L3.48 18.95ZM11.66 27.48C11.64 27.62 11.51 27.71 11.44 27.71L9.61 27.71C9.54 27.71 9.41 27.63 9.39 27.48L8.91 24.97C9.83 25.5 10.84 25.92 11.9 26.21L11.66 27.48ZM21.76 27.48C21.73 27.62 21.61 27.71 21.53 27.71L19.71 27.71C19.63 27.71 19.51 27.63 19.48 27.48L19.24 26.21C20.3 25.92 21.31 25.5 22.24 24.97L21.76 27.48ZM15.57 25.78C9.6 25.78 4.73 21.82 4.73 16.94C4.73 12.69 8.55 8.98 13.66 8.24C14.16 8.71 14.84 8.99 15.57 8.99C16.31 8.99 16.99 8.7 17.49 8.24C22.59 8.98 26.42 12.69 26.42 16.94C26.42 21.82 21.55 25.78 15.57 25.78Z" fill="#274359" fill-opacity="1.000000" fill-rule="nonzero"/>
        <path id="path" d="M8.96 13.57C8.14 13.57 7.49 14.23 7.49 15.04C7.49 15.85 8.14 16.51 8.96 16.51C9.77 16.51 10.43 15.85 10.43 15.04C10.43 14.23 9.77 13.57 8.96 13.57ZM8.96 15.61C8.64 15.61 8.39 15.36 8.39 15.05C8.39 14.73 8.64 14.48 8.96 14.48C9.27 14.48 9.52 14.73 9.52 15.05C9.52 15.36 9.27 15.61 8.96 15.61ZM18.98 9.3L12.17 9.3C11.72 9.3 11.35 9.67 11.35 10.12L11.35 11.38C11.35 11.83 11.72 12.2 12.17 12.2L18.98 12.2C19.43 12.2 19.79 11.83 19.79 11.38L19.79 10.12C19.79 9.67 19.43 9.3 18.98 9.3ZM18.89 11.29L12.26 11.29L12.26 10.21L18.89 10.21L18.89 11.29Z" fill="#274359" fill-opacity="1.000000" fill-rule="nonzero"/>
    </g>
</svg>
