<svg width="24.000000" height="24.000000" viewBox="0 0 24 24" fill="none" xmlns="http://www.w3.org/2000/svg" xmlns:xlink="http://www.w3.org/1999/xlink">
    <desc>
        Created with Pixso.
    </desc>
    <defs>
        <clipPath id="clip51_151">
            <rect id="机器人" width="24.000000" height="24.000000" fill="white" fill-opacity="0"/>
        </clipPath>
    </defs>
    <g clip-path="url(#clip51_151)">
        <path id="path" d="M0.67 8.61L2.69 8.61L2.69 9.45L0.67 9.45L0.67 8.61Z" fill="#4A4A4A" fill-opacity="1.000000" fill-rule="nonzero"/>
        <path id="path" d="M21.2 14.94C21.2 16.63 19.82 18.01 18.13 18.01L5.76 18.01C4.07 18.01 2.69 16.63 2.69 14.94L2.69 4.38C2.69 2.69 4.07 1.31 5.76 1.31L18.13 1.31C19.82 1.31 21.2 2.69 21.2 4.38L21.2 14.94Z" fill="#B9B9BF" fill-opacity="1.000000" fill-rule="nonzero"/>
        <path id="path" d="M18.13 18.43L5.76 18.43C3.83 18.43 2.26 16.87 2.26 14.94L2.26 4.38C2.26 2.45 3.83 0.88 5.76 0.88L18.13 0.88C20.06 0.88 21.63 2.45 21.63 4.38L21.63 14.94C21.63 16.87 20.06 18.43 18.13 18.43ZM5.76 1.73C4.3 1.73 3.11 2.92 3.11 4.38L3.11 14.94C3.11 16.4 4.3 17.59 5.76 17.59L18.13 17.59C19.59 17.59 20.78 16.4 20.78 14.94L20.78 4.38C20.78 2.92 19.59 1.73 18.13 1.73L5.76 1.73Z" fill="#4A4A4A" fill-opacity="1.000000" fill-rule="nonzero"/>
        <path id="path" d="M5.06 6.86C5.06 6.95 5.06 7.05 5.07 7.14C5.08 7.23 5.09 7.32 5.11 7.42C5.13 7.51 5.15 7.6 5.18 7.69C5.2 7.78 5.24 7.87 5.27 7.95C5.31 8.04 5.35 8.12 5.39 8.2C5.44 8.29 5.48 8.37 5.54 8.45C5.59 8.52 5.64 8.6 5.7 8.67C5.76 8.74 5.82 8.81 5.89 8.88C5.96 8.94 6.03 9.01 6.1 9.07C6.17 9.12 6.24 9.18 6.32 9.23C6.4 9.28 6.48 9.33 6.56 9.38C6.65 9.42 6.73 9.46 6.82 9.5C6.9 9.53 6.99 9.56 7.08 9.59C7.17 9.62 7.26 9.64 7.35 9.66C7.44 9.68 7.54 9.69 7.63 9.7C7.72 9.71 7.81 9.71 7.91 9.71C8 9.71 8.09 9.71 8.19 9.7C8.28 9.69 8.37 9.68 8.46 9.66C8.56 9.64 8.65 9.62 8.74 9.59C8.83 9.56 8.91 9.53 9 9.5C9.09 9.46 9.17 9.42 9.25 9.38C9.34 9.33 9.42 9.28 9.49 9.23C9.57 9.18 9.65 9.12 9.72 9.07C9.79 9.01 9.86 8.94 9.93 8.88C9.99 8.81 10.05 8.74 10.11 8.67C10.17 8.6 10.23 8.52 10.28 8.45C10.33 8.37 10.38 8.29 10.42 8.2C10.47 8.12 10.51 8.04 10.54 7.95C10.58 7.87 10.61 7.78 10.64 7.69C10.66 7.6 10.69 7.51 10.71 7.42C10.72 7.32 10.74 7.23 10.75 7.14C10.76 7.05 10.76 6.95 10.76 6.86C10.76 6.77 10.76 6.67 10.75 6.58C10.74 6.49 10.72 6.39 10.71 6.3C10.69 6.21 10.66 6.12 10.64 6.03C10.61 5.94 10.58 5.85 10.54 5.77C10.51 5.68 10.47 5.6 10.42 5.51C10.38 5.43 10.33 5.35 10.28 5.27C10.23 5.2 10.17 5.12 10.11 5.05C10.05 4.98 9.99 4.91 9.93 4.84C9.86 4.78 9.79 4.71 9.72 4.65C9.65 4.59 9.57 4.54 9.49 4.49C9.42 4.44 9.34 4.39 9.25 4.34C9.17 4.3 9.09 4.26 9 4.22C8.91 4.19 8.83 4.16 8.74 4.13C8.65 4.1 8.56 4.08 8.46 4.06C8.37 4.04 8.28 4.03 8.19 4.02C8.09 4.01 8 4.01 7.91 4.01C7.81 4.01 7.72 4.01 7.63 4.02C7.54 4.03 7.44 4.04 7.35 4.06C7.26 4.08 7.17 4.1 7.08 4.13C6.99 4.16 6.9 4.19 6.82 4.22C6.73 4.26 6.65 4.3 6.56 4.34C6.48 4.39 6.4 4.44 6.32 4.49C6.25 4.54 6.17 4.59 6.1 4.65C6.03 4.71 5.96 4.78 5.89 4.84C5.82 4.91 5.76 4.98 5.7 5.05C5.64 5.12 5.59 5.2 5.54 5.27C5.48 5.35 5.44 5.43 5.39 5.51C5.35 5.6 5.31 5.68 5.27 5.77C5.24 5.85 5.21 5.94 5.18 6.03C5.15 6.12 5.13 6.21 5.11 6.3C5.09 6.39 5.08 6.49 5.07 6.58C5.06 6.67 5.06 6.77 5.06 6.86Z" fill="#94E5FF" fill-opacity="1.000000" fill-rule="nonzero"/>
        <path id="path" d="M7.91 10.13C6.1 10.13 4.63 8.67 4.63 6.86C4.63 5.05 6.1 3.59 7.91 3.59C9.71 3.59 11.18 5.05 11.18 6.86C11.18 8.67 9.71 10.13 7.91 10.13ZM7.91 4.43C6.57 4.43 5.48 5.52 5.48 6.86C5.48 8.2 6.57 9.29 7.91 9.29C9.25 9.29 10.34 8.2 10.34 6.86C10.34 5.52 9.25 4.43 7.91 4.43Z" fill="#4A4A4A" fill-opacity="1.000000" fill-rule="nonzero"/>
        <path id="path" d="M13.16 6.86C13.16 6.95 13.17 7.05 13.18 7.14C13.19 7.23 13.2 7.32 13.22 7.42C13.24 7.51 13.26 7.6 13.29 7.69C13.31 7.78 13.34 7.86 13.38 7.95C13.42 8.04 13.46 8.12 13.5 8.2C13.54 8.29 13.59 8.37 13.64 8.44C13.7 8.52 13.75 8.6 13.81 8.67C13.87 8.74 13.93 8.81 14 8.88C14.06 8.94 14.13 9.01 14.21 9.06C14.28 9.12 14.35 9.18 14.43 9.23C14.51 9.28 14.59 9.33 14.67 9.38C14.75 9.42 14.84 9.46 14.92 9.49C15.01 9.53 15.1 9.56 15.19 9.59C15.28 9.62 15.37 9.64 15.46 9.66C15.55 9.68 15.64 9.69 15.74 9.7C15.83 9.71 15.92 9.71 16.02 9.71C16.11 9.71 16.2 9.71 16.3 9.7C16.39 9.69 16.48 9.68 16.57 9.66C16.66 9.64 16.75 9.62 16.84 9.59C16.93 9.56 17.02 9.53 17.11 9.49C17.19 9.46 17.28 9.42 17.36 9.38C17.44 9.33 17.52 9.28 17.6 9.23C17.68 9.18 17.75 9.12 17.83 9.06C17.9 9.01 17.97 8.94 18.03 8.88C18.1 8.81 18.16 8.74 18.22 8.67C18.28 8.6 18.34 8.52 18.39 8.44C18.44 8.37 18.49 8.29 18.53 8.2C18.58 8.12 18.62 8.04 18.65 7.95C18.69 7.86 18.72 7.78 18.75 7.69C18.77 7.6 18.79 7.51 18.81 7.42C18.83 7.32 18.85 7.23 18.85 7.14C18.86 7.05 18.87 6.95 18.87 6.86C18.87 6.77 18.86 6.67 18.85 6.58C18.85 6.49 18.83 6.39 18.81 6.3C18.79 6.21 18.77 6.12 18.75 6.03C18.72 5.94 18.69 5.85 18.65 5.77C18.62 5.68 18.58 5.6 18.53 5.52C18.49 5.43 18.44 5.35 18.39 5.27C18.34 5.2 18.28 5.12 18.22 5.05C18.16 4.98 18.1 4.91 18.03 4.84C17.97 4.78 17.9 4.71 17.83 4.65C17.75 4.6 17.68 4.54 17.6 4.49C17.52 4.44 17.44 4.39 17.36 4.34C17.28 4.3 17.19 4.26 17.11 4.22C17.02 4.19 16.93 4.16 16.84 4.13C16.75 4.1 16.66 4.08 16.57 4.06C16.48 4.04 16.39 4.03 16.3 4.02C16.2 4.01 16.11 4.01 16.02 4.01C15.92 4.01 15.83 4.01 15.74 4.02C15.64 4.03 15.55 4.04 15.46 4.06C15.37 4.08 15.28 4.1 15.19 4.13C15.1 4.16 15.01 4.19 14.92 4.22C14.84 4.26 14.75 4.3 14.67 4.34C14.59 4.39 14.51 4.44 14.43 4.49C14.35 4.54 14.28 4.6 14.21 4.65C14.13 4.71 14.06 4.78 14 4.84C13.93 4.91 13.87 4.98 13.81 5.05C13.75 5.12 13.7 5.2 13.64 5.27C13.59 5.35 13.54 5.43 13.5 5.52C13.46 5.6 13.42 5.68 13.38 5.77C13.34 5.85 13.31 5.94 13.29 6.03C13.26 6.12 13.24 6.21 13.22 6.3C13.2 6.39 13.19 6.49 13.18 6.58C13.17 6.67 13.16 6.77 13.16 6.86Z" fill="#94E5FF" fill-opacity="1.000000" fill-rule="nonzero"/>
        <path id="path" d="M16.02 10.13C14.21 10.13 12.74 8.67 12.74 6.86C12.74 5.05 14.21 3.59 16.02 3.59C17.82 3.59 19.29 5.05 19.29 6.86C19.29 8.67 17.82 10.13 16.02 10.13ZM16.02 4.43C14.68 4.43 13.59 5.52 13.59 6.86C13.59 8.2 14.68 9.29 16.02 9.29C17.36 9.29 18.45 8.2 18.45 6.86C18.45 5.52 17.36 4.43 16.02 4.43ZM21.12 8.61L23.14 8.61L23.14 9.45L21.12 9.45L21.12 8.61Z" fill="#4A4A4A" fill-opacity="1.000000" fill-rule="nonzero"/>
        <path id="path" d="M9.28 23.12L9.28 18.01L14.46 18.01L14.46 23.12L9.28 23.12Z" fill="#8A8A8A" fill-opacity="1.000000" fill-rule="nonzero"/>
        <path id="path" d="M7.91 12.8L16.02 12.8L16.02 15.26L7.91 15.26L7.91 12.8Z" fill="#8A8A8A" fill-opacity="1.000000" fill-rule="nonzero"/>
        <path id="path" d="M16.02 15.68L7.91 15.68C7.88 15.68 7.85 15.68 7.83 15.67C7.8 15.67 7.77 15.66 7.75 15.65C7.72 15.64 7.7 15.63 7.67 15.61C7.65 15.6 7.63 15.58 7.61 15.56C7.59 15.54 7.57 15.52 7.56 15.5C7.54 15.47 7.53 15.45 7.52 15.42C7.51 15.4 7.5 15.37 7.49 15.34C7.49 15.32 7.49 15.29 7.49 15.26L7.49 12.8C7.49 12.57 7.67 12.38 7.91 12.38L16.02 12.38C16.25 12.38 16.44 12.57 16.44 12.8L16.44 15.26C16.44 15.49 16.25 15.68 16.02 15.68ZM8.33 14.84L15.59 14.84L15.59 13.23L8.33 13.23L8.33 14.84Z" fill="#4A4A4A" fill-opacity="1.000000" fill-rule="nonzero"/>
        <path id="path" d="M13.48 15.68C13.45 15.68 13.43 15.68 13.4 15.67C13.37 15.67 13.35 15.66 13.32 15.65C13.29 15.64 13.27 15.63 13.25 15.61C13.22 15.6 13.2 15.58 13.18 15.56C13.16 15.54 13.15 15.52 13.13 15.5C13.12 15.47 13.1 15.45 13.09 15.42C13.08 15.4 13.07 15.37 13.07 15.34C13.06 15.32 13.06 15.29 13.06 15.26L13.06 12.8C13.06 12.78 13.06 12.75 13.07 12.72C13.07 12.7 13.08 12.67 13.09 12.64C13.1 12.62 13.12 12.6 13.13 12.57C13.15 12.55 13.17 12.53 13.19 12.51C13.21 12.49 13.23 12.47 13.25 12.46C13.27 12.44 13.3 12.43 13.32 12.42C13.35 12.41 13.37 12.4 13.4 12.4C13.43 12.39 13.45 12.39 13.48 12.39C13.51 12.39 13.54 12.39 13.56 12.4C13.59 12.4 13.62 12.41 13.64 12.42C13.67 12.43 13.69 12.44 13.71 12.46C13.74 12.47 13.76 12.49 13.78 12.51C13.8 12.53 13.81 12.55 13.83 12.57C13.84 12.6 13.86 12.62 13.87 12.64C13.88 12.67 13.89 12.7 13.89 12.72C13.9 12.75 13.9 12.78 13.9 12.8L13.9 15.26C13.9 15.29 13.9 15.32 13.89 15.34C13.89 15.37 13.88 15.4 13.87 15.42C13.86 15.45 13.85 15.47 13.83 15.5C13.82 15.52 13.8 15.54 13.78 15.56C13.76 15.58 13.74 15.6 13.72 15.61C13.69 15.63 13.67 15.64 13.64 15.65C13.62 15.66 13.59 15.67 13.56 15.67C13.54 15.68 13.51 15.68 13.48 15.68ZM10.5 15.68C10.47 15.68 10.44 15.68 10.41 15.67C10.39 15.67 10.36 15.66 10.34 15.65C10.31 15.64 10.29 15.63 10.26 15.61C10.24 15.6 10.22 15.58 10.2 15.56C10.18 15.54 10.16 15.52 10.15 15.5C10.13 15.47 10.12 15.45 10.11 15.42C10.1 15.4 10.09 15.37 10.08 15.34C10.08 15.32 10.08 15.29 10.08 15.26L10.08 12.8C10.08 12.78 10.08 12.75 10.08 12.72C10.09 12.7 10.1 12.67 10.11 12.64C10.12 12.62 10.13 12.6 10.15 12.57C10.16 12.55 10.18 12.53 10.2 12.51C10.22 12.49 10.24 12.47 10.27 12.46C10.29 12.44 10.31 12.43 10.34 12.42C10.36 12.41 10.39 12.4 10.42 12.4C10.44 12.39 10.47 12.39 10.5 12.39C10.52 12.39 10.55 12.39 10.58 12.4C10.61 12.4 10.63 12.41 10.66 12.42C10.68 12.43 10.71 12.44 10.73 12.46C10.75 12.47 10.77 12.49 10.79 12.51C10.81 12.53 10.83 12.55 10.84 12.57C10.86 12.6 10.87 12.62 10.88 12.64C10.9 12.67 10.9 12.7 10.91 12.72C10.92 12.75 10.92 12.78 10.92 12.8L10.92 15.26C10.92 15.29 10.92 15.32 10.91 15.34C10.91 15.37 10.9 15.4 10.89 15.42C10.88 15.45 10.86 15.47 10.85 15.5C10.83 15.52 10.81 15.54 10.8 15.56C10.78 15.58 10.75 15.6 10.73 15.61C10.71 15.63 10.68 15.64 10.66 15.65C10.63 15.66 10.61 15.67 10.58 15.67C10.55 15.68 10.52 15.68 10.5 15.68ZM9.28 19.28L14.46 19.28L14.46 20.13L9.28 20.13L9.28 19.28ZM9.28 20.98L14.46 20.98L14.46 21.83L9.28 21.83L9.28 20.98Z" fill="#4A4A4A" fill-opacity="1.000000" fill-rule="nonzero"/>
        <path id="path" d="M7.17 6.98C7.17 7.03 7.17 7.08 7.18 7.13C7.19 7.17 7.21 7.22 7.22 7.27C7.24 7.31 7.27 7.36 7.29 7.4C7.32 7.44 7.35 7.47 7.39 7.51C7.42 7.54 7.46 7.58 7.5 7.6C7.54 7.63 7.58 7.65 7.63 7.67C7.68 7.69 7.72 7.71 7.77 7.71C7.82 7.72 7.87 7.73 7.92 7.73C7.97 7.73 8.01 7.72 8.06 7.71C8.11 7.71 8.16 7.69 8.2 7.67C8.25 7.65 8.29 7.63 8.33 7.6C8.37 7.58 8.41 7.54 8.45 7.51C8.48 7.47 8.51 7.44 8.54 7.4C8.57 7.36 8.59 7.31 8.61 7.27C8.63 7.22 8.64 7.17 8.65 7.13C8.66 7.08 8.67 7.03 8.67 6.98C8.67 6.93 8.66 6.88 8.65 6.83C8.64 6.78 8.63 6.74 8.61 6.69C8.59 6.65 8.57 6.6 8.54 6.56C8.51 6.52 8.48 6.48 8.45 6.45C8.41 6.41 8.37 6.38 8.33 6.36C8.29 6.33 8.25 6.31 8.2 6.29C8.16 6.27 8.11 6.25 8.06 6.24C8.01 6.23 7.97 6.23 7.92 6.23C7.87 6.23 7.82 6.23 7.77 6.24C7.72 6.25 7.68 6.27 7.63 6.29C7.58 6.31 7.54 6.33 7.5 6.36C7.46 6.38 7.42 6.41 7.39 6.45C7.35 6.48 7.32 6.52 7.29 6.56C7.27 6.6 7.24 6.65 7.22 6.69C7.21 6.74 7.19 6.78 7.18 6.83C7.17 6.88 7.17 6.93 7.17 6.98Z" fill="#4A4A4A" fill-opacity="1.000000" fill-rule="nonzero"/>
        <path id="path" d="M15.27 6.98C15.27 7.03 15.27 7.08 15.28 7.13C15.29 7.17 15.3 7.22 15.32 7.27C15.34 7.31 15.36 7.36 15.39 7.4C15.42 7.44 15.45 7.47 15.49 7.51C15.52 7.54 15.56 7.58 15.6 7.6C15.64 7.63 15.68 7.65 15.73 7.67C15.77 7.69 15.82 7.71 15.87 7.71C15.92 7.72 15.97 7.73 16.02 7.73C16.06 7.73 16.11 7.72 16.16 7.71C16.21 7.71 16.26 7.69 16.3 7.67C16.35 7.65 16.39 7.63 16.43 7.6C16.47 7.58 16.51 7.54 16.55 7.51C16.58 7.47 16.61 7.44 16.64 7.4C16.67 7.36 16.69 7.31 16.71 7.27C16.73 7.22 16.74 7.17 16.75 7.13C16.76 7.08 16.77 7.03 16.77 6.98C16.77 6.93 16.76 6.88 16.75 6.83C16.74 6.78 16.73 6.74 16.71 6.69C16.69 6.65 16.67 6.6 16.64 6.56C16.61 6.52 16.58 6.48 16.55 6.45C16.51 6.41 16.47 6.38 16.43 6.36C16.39 6.33 16.35 6.31 16.3 6.29C16.26 6.27 16.21 6.25 16.16 6.24C16.11 6.23 16.06 6.23 16.02 6.23C15.97 6.23 15.92 6.23 15.87 6.24C15.82 6.25 15.77 6.27 15.73 6.29C15.68 6.31 15.64 6.33 15.6 6.36C15.56 6.38 15.52 6.41 15.49 6.45C15.45 6.48 15.42 6.52 15.39 6.56C15.36 6.6 15.34 6.65 15.32 6.69C15.3 6.74 15.29 6.78 15.28 6.83C15.27 6.88 15.27 6.93 15.27 6.98Z" fill="#4A4A4A" fill-opacity="1.000000" fill-rule="nonzero"/>
    </g>
</svg>
