<svg width="24.000000" height="24.000000" viewBox="0 0 24 24" fill="none" xmlns="http://www.w3.org/2000/svg" xmlns:xlink="http://www.w3.org/1999/xlink">
    <desc>
        Created with Pixso.
    </desc>
    <defs>
        <clipPath id="clip51_186">
            <rect id="铅笔" width="24.000000" height="24.000000" fill="white" fill-opacity="0"/>
        </clipPath>
    </defs>
    <g clip-path="url(#clip51_186)">
        <path id="path" d="M22.82 6.07L17.99 1.2C17.69 0.9 17.35 0.75 16.94 0.75C16.53 0.75 16.15 0.9 15.89 1.16L13.6 3.49L20.54 10.46L22.82 8.17C23.39 7.57 23.39 6.63 22.82 6.07Z" fill="#F2385A" fill-opacity="1.000000" fill-rule="nonzero"/>
        <path id="path" d="M0.89 21.44L2.58 23.13L7.72 22.75L1.42 16.38L0.89 21.44Z" fill="#FAD97F" fill-opacity="1.000000" fill-rule="nonzero"/>
        <path id="path" d="M14.43 5.4L13.08 4.05L1.61 15.56L2.96 16.91L14.43 5.4ZM3.48 17.43L4.83 18.78L16.26 7.23L14.91 5.88L3.48 17.43ZM18.14 9.11L16.79 7.76L5.36 19.3L6.7 20.65L18.14 9.11ZM18.63 9.63L7.19 21.18L8.54 22.53L19.97 10.98L18.63 9.63Z" fill="#9DE8F7" fill-opacity="1.000000" fill-rule="nonzero"/>
        <path id="path" d="M23.35 5.55L18.51 0.67C18.1 0.26 17.54 0 16.94 0C16.34 0 15.78 0.22 15.36 0.64L0.74 15.41L0 23.02L0.93 23.99L8.73 23.43L23.35 8.7C24.21 7.83 24.21 6.41 23.35 5.55ZM13.08 4.05L14.43 5.4L2.96 16.91L1.61 15.56L13.08 4.05ZM4.83 18.78L3.48 17.43L14.91 5.88L16.26 7.23L4.83 18.78ZM16.79 7.76L18.14 9.11L6.7 20.65L5.36 19.3L16.79 7.76ZM7.19 21.18L18.63 9.63L19.97 10.98L8.54 22.53L7.19 21.18ZM2.58 23.13L0.89 21.44L1.42 16.38L7.72 22.75L2.58 23.13ZM22.82 8.17L20.54 10.46L13.6 3.49L15.89 1.16C16.15 0.9 16.53 0.75 16.94 0.75C17.35 0.75 17.69 0.9 17.99 1.2L22.82 6.07C23.39 6.63 23.39 7.57 22.82 8.17Z" fill="#000000" fill-opacity="1.000000" fill-rule="nonzero"/>
    </g>
</svg>
