<svg width="24.000000" height="24.000000" viewBox="0 0 24 24" fill="none" xmlns="http://www.w3.org/2000/svg" xmlns:xlink="http://www.w3.org/1999/xlink">
    <desc>
        Created with Pixso.
    </desc>
    <defs>
        <clipPath id="clip87_1">
            <rect id="银行" width="24.000000" height="24.000000" fill="white" fill-opacity="0"/>
        </clipPath>
    </defs>
    <g clip-path="url(#clip87_1)">
        <path id="path" d="M18.57 3.17C19.47 3.75 18.54 5.29 16.5 6.6C14.94 7.61 13.18 8.19 12.03 8.16C12.01 8.16 11.99 8.16 11.97 8.16C11.94 8.16 11.92 8.16 11.9 8.16C10.75 8.19 9 7.61 7.44 6.6C5.39 5.29 4.47 3.75 5.37 3.17C6.13 2.68 7.95 3.03 9.73 3.95C9.99 2.49 10.89 1.42 11.97 1.42C13.04 1.42 13.94 2.49 14.2 3.95C15.98 3.03 17.81 2.68 18.57 3.17Z" fill="#5FCEFF" fill-opacity="1.000000" fill-rule="nonzero"/>
        <path id="path" d="M11.97 8.2C16.77 8.2 20.67 12.34 20.67 17.43C20.67 22.53 16.77 22.51 11.97 22.51C7.16 22.51 3.27 22.53 3.27 17.43C3.27 12.34 7.16 8.2 11.97 8.2Z" fill="#FFB578" fill-opacity="1.000000" fill-rule="nonzero"/>
        <path id="path" d="M11.97 8.68C11.94 8.68 11.92 8.68 11.9 8.68C11.87 8.68 11.83 8.68 11.8 8.68C10.5 8.68 8.72 8.06 7.15 7.04C5.49 5.97 4.5 4.76 4.5 3.79C4.5 3.35 4.7 2.97 5.08 2.73C5.4 2.52 5.82 2.42 6.34 2.42C7.19 2.42 8.27 2.7 9.38 3.19C9.82 1.81 10.83 0.89 11.97 0.89C13.11 0.89 14.11 1.81 14.55 3.19C15.66 2.7 16.74 2.42 17.6 2.42C18.11 2.42 18.54 2.53 18.85 2.73C19.23 2.97 19.44 3.35 19.44 3.79C19.44 4.76 18.44 5.97 16.78 7.04C15.21 8.06 13.43 8.68 12.14 8.68C12.1 8.68 12.07 8.68 12.04 8.68C12.01 8.68 11.99 8.68 11.97 8.68ZM11.9 7.63C11.91 7.63 11.91 7.63 11.92 7.63L11.97 7.63C11.97 7.63 11.98 7.63 11.99 7.63L12.01 7.63C12.03 7.63 12.04 7.63 12.05 7.63C12.08 7.63 12.11 7.63 12.14 7.63C13.23 7.63 14.83 7.06 16.21 6.16C17.81 5.14 18.39 4.18 18.39 3.79C18.39 3.71 18.36 3.66 18.28 3.61C18.2 3.56 18.01 3.47 17.6 3.47C16.77 3.47 15.58 3.82 14.44 4.41C14.4 4.43 14.37 4.45 14.33 4.46C14.29 4.47 14.24 4.47 14.2 4.47C14.16 4.47 14.12 4.47 14.08 4.46C14.04 4.45 14 4.43 13.97 4.42C13.93 4.4 13.9 4.38 13.86 4.35C13.83 4.32 13.8 4.29 13.78 4.26C13.76 4.23 13.73 4.19 13.72 4.15C13.7 4.12 13.69 4.08 13.68 4.04C13.47 2.82 12.75 1.94 11.97 1.94C11.19 1.94 10.46 2.82 10.25 4.04C10.24 4.08 10.23 4.12 10.21 4.15C10.2 4.19 10.18 4.23 10.15 4.26C10.13 4.29 10.1 4.32 10.07 4.35C10.04 4.38 10 4.4 9.97 4.42C9.93 4.43 9.89 4.45 9.85 4.46C9.81 4.47 9.77 4.47 9.73 4.47C9.69 4.47 9.65 4.47 9.61 4.46C9.57 4.45 9.53 4.43 9.49 4.41C8.35 3.82 7.17 3.47 6.34 3.47C5.93 3.47 5.73 3.56 5.65 3.61C5.57 3.66 5.55 3.71 5.55 3.79C5.55 4.18 6.12 5.14 7.72 6.16C9.11 7.06 10.71 7.63 11.8 7.63C11.83 7.63 11.85 7.63 11.88 7.63C11.89 7.63 11.89 7.63 11.9 7.63Z" fill="#4F46A3" fill-opacity="1.000000" fill-rule="nonzero"/>
        <path id="path" d="M12.09 23.03L11.85 23.03C9.47 23.03 7.24 23.03 5.58 22.35C3.67 21.57 2.74 19.96 2.74 17.43C2.74 12.05 6.88 7.68 11.97 7.68C17.05 7.68 21.19 12.05 21.19 17.43C21.19 19.96 20.26 21.57 18.36 22.35C16.7 23.03 14.46 23.03 12.09 23.03ZM11.91 21.98L12.09 21.98C14.35 21.98 16.49 21.98 17.96 21.38C19.47 20.76 20.14 19.54 20.14 17.43C20.14 12.63 16.47 8.73 11.97 8.73C7.46 8.73 3.79 12.63 3.79 17.43C3.79 19.54 4.46 20.76 5.97 21.38C7.44 21.98 9.58 21.98 11.85 21.98L11.91 21.98Z" fill="#4F46A3" fill-opacity="1.000000" fill-rule="nonzero"/>
        <path id="path" d="M14.47 14.65L9.46 14.65C9.43 14.65 9.39 14.65 9.36 14.64C9.33 14.63 9.29 14.62 9.26 14.61C9.23 14.6 9.2 14.58 9.17 14.56C9.14 14.54 9.12 14.52 9.09 14.5C9.07 14.47 9.05 14.45 9.03 14.42C9.01 14.39 8.99 14.36 8.98 14.33C8.97 14.29 8.96 14.26 8.95 14.23C8.94 14.19 8.94 14.16 8.94 14.13C8.94 14.09 8.94 14.06 8.95 14.02C8.96 13.99 8.97 13.96 8.98 13.93C8.99 13.89 9.01 13.86 9.03 13.83C9.05 13.81 9.07 13.78 9.09 13.76C9.12 13.73 9.14 13.71 9.17 13.69C9.2 13.67 9.23 13.65 9.26 13.64C9.29 13.63 9.33 13.62 9.36 13.61C9.39 13.6 9.43 13.6 9.46 13.6L14.47 13.6C14.5 13.6 14.54 13.6 14.57 13.61C14.61 13.62 14.64 13.63 14.67 13.64C14.7 13.65 14.73 13.67 14.76 13.69C14.79 13.71 14.82 13.73 14.84 13.76C14.86 13.78 14.89 13.81 14.91 13.83C14.92 13.86 14.94 13.89 14.95 13.93C14.97 13.96 14.98 13.99 14.98 14.02C14.99 14.06 14.99 14.09 14.99 14.13C14.99 14.16 14.99 14.19 14.98 14.23C14.98 14.26 14.97 14.29 14.95 14.33C14.94 14.36 14.92 14.39 14.91 14.42C14.89 14.45 14.86 14.47 14.84 14.5C14.82 14.52 14.79 14.54 14.76 14.56C14.73 14.58 14.7 14.6 14.67 14.61C14.64 14.62 14.61 14.63 14.57 14.64C14.54 14.65 14.5 14.65 14.47 14.65ZM14.47 16.99L9.46 16.99C9.43 16.99 9.39 16.99 9.36 16.98C9.33 16.98 9.29 16.97 9.26 16.95C9.23 16.94 9.2 16.92 9.17 16.91C9.14 16.89 9.12 16.86 9.09 16.84C9.07 16.82 9.05 16.79 9.03 16.76C9.01 16.73 8.99 16.7 8.98 16.67C8.97 16.64 8.96 16.61 8.95 16.57C8.94 16.54 8.94 16.5 8.94 16.47C8.94 16.43 8.94 16.4 8.95 16.37C8.96 16.33 8.97 16.3 8.98 16.27C8.99 16.24 9.01 16.21 9.03 16.18C9.05 16.15 9.07 16.12 9.09 16.1C9.12 16.07 9.14 16.05 9.17 16.03C9.2 16.01 9.23 16 9.26 15.98C9.29 15.97 9.33 15.96 9.36 15.95C9.39 15.95 9.43 15.94 9.46 15.94L14.47 15.94C14.5 15.94 14.54 15.95 14.57 15.95C14.61 15.96 14.64 15.97 14.67 15.98C14.7 16 14.73 16.01 14.76 16.03C14.79 16.05 14.82 16.07 14.84 16.1C14.87 16.12 14.89 16.15 14.91 16.18C14.93 16.21 14.94 16.24 14.95 16.27C14.97 16.3 14.98 16.33 14.98 16.37C14.99 16.4 14.99 16.43 14.99 16.47C14.99 16.5 14.99 16.54 14.98 16.57C14.98 16.61 14.97 16.64 14.95 16.67C14.94 16.7 14.93 16.73 14.91 16.76C14.89 16.79 14.87 16.82 14.84 16.84C14.82 16.86 14.79 16.89 14.76 16.91C14.73 16.92 14.7 16.94 14.67 16.95C14.64 16.97 14.61 16.98 14.57 16.98C14.54 16.99 14.5 16.99 14.47 16.99Z" fill="#4F46A3" fill-opacity="1.000000" fill-rule="nonzero"/>
        <path id="path" d="M11.97 19.58C11.93 19.58 11.9 19.58 11.86 19.57C11.83 19.56 11.8 19.55 11.77 19.54C11.73 19.53 11.7 19.51 11.68 19.49C11.65 19.47 11.62 19.45 11.6 19.43C11.57 19.4 11.55 19.37 11.53 19.35C11.51 19.32 11.5 19.29 11.48 19.26C11.47 19.22 11.46 19.19 11.45 19.16C11.45 19.12 11.44 19.09 11.44 19.05L11.44 14.16C11.44 14.13 11.45 14.1 11.45 14.06C11.46 14.03 11.47 14 11.48 13.96C11.5 13.93 11.51 13.9 11.53 13.87C11.55 13.84 11.57 13.82 11.6 13.79C11.62 13.77 11.65 13.75 11.68 13.73C11.7 13.71 11.73 13.69 11.77 13.68C11.8 13.67 11.83 13.66 11.86 13.65C11.9 13.64 11.93 13.64 11.97 13.64C12 13.64 12.04 13.64 12.07 13.65C12.1 13.66 12.14 13.67 12.17 13.68C12.2 13.69 12.23 13.71 12.26 13.73C12.29 13.75 12.31 13.77 12.34 13.79C12.36 13.82 12.38 13.84 12.4 13.87C12.42 13.9 12.44 13.93 12.45 13.96C12.46 14 12.47 14.03 12.48 14.06C12.49 14.1 12.49 14.13 12.49 14.16L12.49 19.05C12.49 19.09 12.49 19.12 12.48 19.16C12.47 19.19 12.46 19.22 12.45 19.26C12.44 19.29 12.42 19.32 12.4 19.35C12.38 19.37 12.36 19.4 12.34 19.43C12.31 19.45 12.29 19.47 12.26 19.49C12.23 19.51 12.2 19.53 12.17 19.54C12.14 19.55 12.1 19.56 12.07 19.57C12.04 19.58 12 19.58 11.97 19.58Z" fill="#4F46A3" fill-opacity="1.000000" fill-rule="nonzero"/>
        <path id="path" d="M11.98 14.45C11.86 14.45 11.75 14.41 11.65 14.33L11.63 14.31L9.3 12.39C9.28 12.37 9.25 12.34 9.23 12.32C9.21 12.29 9.19 12.26 9.18 12.23C9.16 12.2 9.15 12.17 9.14 12.13C9.13 12.1 9.12 12.07 9.12 12.03C9.12 12 9.12 11.97 9.12 11.93C9.12 11.9 9.13 11.87 9.14 11.83C9.15 11.8 9.16 11.77 9.18 11.74C9.2 11.71 9.22 11.68 9.24 11.65C9.26 11.63 9.28 11.6 9.31 11.58C9.34 11.56 9.36 11.54 9.39 11.52C9.42 11.51 9.46 11.5 9.49 11.49C9.52 11.48 9.56 11.47 9.59 11.47C9.62 11.46 9.66 11.46 9.69 11.47C9.73 11.47 9.76 11.48 9.79 11.48C9.82 11.49 9.86 11.51 9.89 11.52C9.92 11.54 9.94 11.56 9.97 11.58L12.32 13.52C12.36 13.55 12.4 13.59 12.43 13.64C12.46 13.68 12.48 13.73 12.49 13.78C12.51 13.84 12.51 13.89 12.51 13.94C12.51 14 12.5 14.05 12.48 14.1C12.46 14.15 12.43 14.2 12.4 14.24C12.37 14.28 12.33 14.32 12.29 14.35C12.24 14.38 12.19 14.41 12.14 14.42C12.09 14.44 12.04 14.45 11.98 14.45Z" fill="#4F46A3" fill-opacity="1.000000" fill-rule="nonzero"/>
        <path id="path" d="M11.95 14.45C11.89 14.45 11.84 14.44 11.79 14.42C11.74 14.4 11.69 14.38 11.64 14.35C11.6 14.32 11.56 14.28 11.53 14.24C11.5 14.19 11.47 14.15 11.45 14.09C11.44 14.04 11.43 13.99 11.42 13.94C11.42 13.88 11.43 13.83 11.44 13.78C11.46 13.72 11.48 13.68 11.51 13.63C11.54 13.58 11.58 13.55 11.62 13.51L11.64 13.5L13.96 11.58C13.99 11.56 14.02 11.54 14.05 11.52C14.08 11.51 14.11 11.49 14.14 11.48C14.17 11.47 14.21 11.47 14.24 11.46C14.28 11.46 14.31 11.46 14.35 11.46C14.38 11.46 14.41 11.47 14.45 11.48C14.48 11.49 14.51 11.5 14.54 11.52C14.57 11.54 14.6 11.56 14.63 11.58C14.65 11.6 14.68 11.62 14.7 11.65C14.72 11.68 14.74 11.7 14.76 11.73C14.77 11.77 14.79 11.8 14.8 11.83C14.81 11.86 14.81 11.9 14.82 11.93C14.82 11.96 14.82 12 14.82 12.03C14.81 12.07 14.81 12.1 14.8 12.13C14.79 12.17 14.78 12.2 14.76 12.23C14.74 12.26 14.72 12.29 14.7 12.32C14.68 12.34 14.66 12.37 14.63 12.39L12.3 14.31L12.29 14.32L12.28 14.33C12.18 14.41 12.07 14.45 11.95 14.45Z" fill="#4F46A3" fill-opacity="1.000000" fill-rule="nonzero"/>
    </g>
</svg>
