<svg width="24.000000" height="24.000000" viewBox="0 0 24 24" fill="none" xmlns="http://www.w3.org/2000/svg" xmlns:xlink="http://www.w3.org/1999/xlink">
    <desc>
        Created with Pixso.
    </desc>
    <defs>
        <clipPath id="clip87_10">
            <rect id="日历" width="24.000000" height="24.000000" fill="white" fill-opacity="0"/>
        </clipPath>
    </defs>
    <g clip-path="url(#clip87_10)">
        <path id="path" d="M17.45 21.02L6.56 21.02C4.66 21.02 3.11 19.47 3.11 17.57L3.11 8.18C3.11 6.28 4.66 4.73 6.56 4.73L17.45 4.73C19.36 4.73 20.9 6.28 20.9 8.18L20.9 17.57C20.9 19.47 19.36 21.02 17.45 21.02Z" fill="#FF6464" fill-opacity="1.000000" fill-rule="nonzero"/>
        <path id="path" d="M17.45 4.73L15.3 4.73C17.2 4.73 18.75 6.28 18.75 8.18L18.75 17.57C18.75 19.47 17.2 21.01 15.3 21.01L17.45 21.01C19.35 21.01 20.9 19.47 20.9 17.57L20.9 8.18C20.9 6.28 19.36 4.73 17.45 4.73Z" fill="#FF4436" fill-opacity="1.000000" fill-rule="nonzero"/>
        <path id="path" d="M17.45 21.38L6.56 21.38C4.46 21.38 2.75 19.67 2.75 17.57L2.75 8.18C2.75 6.08 4.46 4.37 6.56 4.37L17.45 4.37C19.55 4.37 21.26 6.08 21.26 8.18L21.26 17.57C21.26 19.67 19.55 21.38 17.45 21.38ZM6.56 5.09C4.86 5.09 3.47 6.48 3.47 8.18L3.47 17.57C3.47 19.27 4.86 20.65 6.56 20.65L17.45 20.65C19.15 20.65 20.54 19.27 20.54 17.57L20.54 8.18C20.54 6.48 19.15 5.09 17.45 5.09L6.56 5.09Z" fill="#333333" fill-opacity="1.000000" fill-rule="nonzero"/>
        <path id="path" d="M16.62 9.67L7.34 9.67C7.14 9.67 6.98 9.51 6.98 9.31C6.98 9.12 7.14 8.95 7.34 8.95L16.62 8.95C16.82 8.95 16.98 9.12 16.98 9.31C16.98 9.51 16.82 9.67 16.62 9.67Z" fill="#333333" fill-opacity="1.000000" fill-rule="nonzero"/>
        <path id="path" d="M8.81 7.25C8.13 7.25 7.59 6.71 7.59 6.03L7.59 3.96C7.59 3.28 8.13 2.73 8.81 2.73C9.49 2.73 10.04 3.28 10.04 3.96L10.04 6.03C10.04 6.71 9.49 7.25 8.81 7.25Z" fill="#F1D000" fill-opacity="1.000000" fill-rule="nonzero"/>
        <path id="path" d="M8.81 2.73C8.63 2.73 8.45 2.78 8.3 2.85C8.72 3.04 9.01 3.47 9.01 3.96L9.01 6.03C9.01 6.52 8.72 6.95 8.3 7.14C8.45 7.21 8.63 7.25 8.81 7.25C9.49 7.25 10.04 6.71 10.04 6.03L10.04 3.96C10.04 3.28 9.49 2.73 8.81 2.73Z" fill="#F2B200" fill-opacity="1.000000" fill-rule="nonzero"/>
        <path id="path" d="M14.94 7.25C14.26 7.25 13.71 6.71 13.71 6.03L13.71 3.96C13.71 3.28 14.26 2.73 14.94 2.73C15.62 2.73 16.17 3.28 16.17 3.96L16.17 6.03C16.17 6.71 15.62 7.25 14.94 7.25Z" fill="#F1D000" fill-opacity="1.000000" fill-rule="nonzero"/>
        <path id="path" d="M14.94 2.73C14.76 2.73 14.59 2.78 14.43 2.85C14.85 3.04 15.14 3.47 15.14 3.96L15.14 6.03C15.14 6.52 14.85 6.95 14.43 7.14C14.59 7.21 14.76 7.25 14.94 7.25C15.62 7.25 16.17 6.71 16.17 6.03L16.17 3.96C16.17 3.28 15.62 2.73 14.94 2.73Z" fill="#F2B200" fill-opacity="1.000000" fill-rule="nonzero"/>
        <path id="path" d="M8.81 7.61C7.94 7.61 7.23 6.9 7.23 6.03L7.23 3.96C7.23 3.09 7.94 2.37 8.81 2.37C9.68 2.37 10.4 3.09 10.4 3.96L10.4 6.03C10.4 6.9 9.69 7.61 8.81 7.61ZM8.81 3.09C8.33 3.09 7.95 3.48 7.95 3.96L7.95 6.03C7.95 6.51 8.34 6.89 8.81 6.89C9.29 6.89 9.68 6.5 9.68 6.03L9.68 3.96C9.68 3.48 9.29 3.09 8.81 3.09ZM14.94 7.61C14.07 7.61 13.35 6.9 13.35 6.03L13.35 3.96C13.35 3.09 14.07 2.37 14.94 2.37C15.81 2.37 16.53 3.09 16.53 3.96L16.53 6.03C16.53 6.9 15.81 7.61 14.94 7.61ZM14.94 3.09C14.46 3.09 14.07 3.48 14.07 3.96L14.07 6.03C14.07 6.51 14.46 6.89 14.94 6.89C15.42 6.89 15.81 6.5 15.81 6.03L15.81 3.96C15.81 3.48 15.42 3.09 14.94 3.09Z" fill="#333333" fill-opacity="1.000000" fill-rule="nonzero"/>
        <path id="path" d="M9.85 17C9.65 17 9.49 16.84 9.49 16.64L9.49 12.35L8.32 12.9C8.14 12.99 7.93 12.91 7.84 12.73C7.76 12.55 7.83 12.34 8.01 12.25L9.7 11.46C9.73 11.45 9.76 11.44 9.79 11.43C9.81 11.43 9.84 11.43 9.88 11.43C9.91 11.43 9.93 11.44 9.96 11.44C9.99 11.45 10.02 11.47 10.05 11.48C10.07 11.5 10.09 11.52 10.11 11.54C10.14 11.56 10.15 11.59 10.17 11.61C10.18 11.64 10.19 11.67 10.2 11.7C10.21 11.73 10.21 11.76 10.21 11.79L10.21 16.64C10.21 16.84 10.05 17 9.85 17ZM14.18 16.87C13.52 16.87 12.68 16.63 12.35 15.5L12.34 15.47C12.33 15.43 12.32 15.38 12.33 15.33C12.33 15.29 12.35 15.24 12.37 15.2C12.39 15.16 12.42 15.12 12.46 15.09C12.49 15.06 12.54 15.04 12.58 15.02C12.77 14.96 12.97 15.07 13.03 15.26L13.04 15.29C13.15 15.66 13.38 16.15 14.18 16.15L14.18 16.15C14.76 16.08 15.13 15.82 15.27 15.38C15.43 14.9 15.27 14.32 15.01 14.08C14.3 13.44 13.62 14.1 13.54 14.18C13.47 14.25 13.38 14.29 13.28 14.29L12.79 14.29C12.69 14.29 12.59 14.24 12.53 14.17C12.46 14.09 12.42 13.99 12.44 13.89L12.67 11.68C12.67 11.64 12.68 11.6 12.7 11.56C12.72 11.52 12.75 11.48 12.78 11.45C12.82 11.42 12.85 11.4 12.89 11.38C12.94 11.37 12.98 11.36 13.02 11.36L15.6 11.36C15.8 11.36 15.96 11.52 15.96 11.72C15.96 11.92 15.8 12.08 15.6 12.08L13.35 12.08L13.2 13.52C13.69 13.12 14.62 12.76 15.5 13.55C16 14.02 16.19 14.9 15.96 15.61C15.82 16.02 15.42 16.73 14.25 16.86C14.24 16.87 14.22 16.87 14.21 16.87C14.2 16.87 14.19 16.87 14.18 16.87Z" fill="#FFFFFF" fill-opacity="1.000000" fill-rule="nonzero"/>
        <path id="path" d="M13.29 19.22L7.2 19.22C7 19.22 6.84 19.05 6.84 18.86C6.84 18.66 7 18.5 7.2 18.5L13.29 18.5C13.49 18.5 13.65 18.66 13.65 18.86C13.65 19.05 13.49 19.22 13.29 19.22ZM16.74 19.22L15.36 19.22C15.16 19.22 15 19.05 15 18.86C15 18.66 15.16 18.5 15.36 18.5L16.74 18.5C16.94 18.5 17.1 18.66 17.1 18.86C17.1 19.05 16.94 19.22 16.74 19.22Z" fill="#333333" fill-opacity="1.000000" fill-rule="nonzero"/>
    </g>
</svg>
