<svg width="24.000000" height="24.000000" viewBox="0 0 24 24" fill="none" xmlns="http://www.w3.org/2000/svg" xmlns:xlink="http://www.w3.org/1999/xlink">
    <desc>
        Created with Pixso.
    </desc>
    <defs>
        <clipPath id="clip171_53">
            <rect id="标签_1" width="24.000000" height="24.000000" fill="white" fill-opacity="0"/>
        </clipPath>
    </defs>
    <g clip-path="url(#clip171_53)">
        <path id="path" d="M18.88 10.69L17.4 12.18L16.88 12.7L11.74 17.83L11.23 18.35L10.71 18.87L9.09 20.48L2.83 14.22L8.71 8.34L11.53 5.52L12.62 4.43L17.92 5.41L18.12 6.51C17.75 6.73 17.35 6.9 16.94 7.04C16.86 6.91 16.76 6.79 16.65 6.67C16.61 6.63 16.56 6.59 16.51 6.54C16.46 6.5 16.41 6.46 16.35 6.43C16.3 6.39 16.24 6.36 16.19 6.33C16.13 6.3 16.07 6.27 16.01 6.24C15.95 6.22 15.89 6.2 15.83 6.18C15.77 6.16 15.7 6.14 15.64 6.13C15.58 6.12 15.51 6.11 15.45 6.1C15.38 6.1 15.32 6.09 15.25 6.09C15.19 6.09 15.12 6.1 15.06 6.1C14.99 6.11 14.93 6.12 14.87 6.13C14.8 6.14 14.74 6.16 14.68 6.18C14.61 6.2 14.55 6.22 14.49 6.24C14.43 6.27 14.38 6.3 14.32 6.33C14.26 6.36 14.21 6.39 14.15 6.43C14.1 6.46 14.05 6.5 14 6.54C13.94 6.59 13.9 6.63 13.85 6.67C13.8 6.72 13.76 6.77 13.72 6.82C13.64 6.91 13.57 7.01 13.51 7.12C13.46 7.23 13.41 7.34 13.37 7.46C13.33 7.57 13.3 7.69 13.29 7.81C13.27 7.93 13.27 8.05 13.27 8.18C13.28 8.3 13.29 8.42 13.32 8.54C13.35 8.66 13.39 8.77 13.44 8.88C13.49 8.99 13.55 9.1 13.62 9.2C13.69 9.3 13.77 9.39 13.85 9.48C13.94 9.57 14.03 9.64 14.13 9.71C14.23 9.78 14.34 9.84 14.45 9.89C14.56 9.94 14.68 9.98 14.8 10.01C14.92 10.03 15.04 10.05 15.16 10.06C15.28 10.06 15.4 10.06 15.52 10.04C15.64 10.02 15.76 10 15.88 9.96C15.99 9.92 16.11 9.87 16.21 9.81C16.32 9.75 16.42 9.68 16.51 9.6C16.56 9.56 16.61 9.52 16.65 9.48C16.79 9.34 16.91 9.18 17 9.01C17.12 8.8 17.19 8.57 17.22 8.34C17.61 8.21 18 8.05 18.37 7.87L18.88 10.69Z" fill="#73ACFF" fill-opacity="1.000000" fill-rule="nonzero"/>
        <path id="path" d="M20.23 10.75L19.57 7.12C19.38 7.27 19.18 7.4 18.97 7.53C18.78 7.65 18.58 7.76 18.37 7.87L18.88 10.69L17.4 12.18L16.88 12.7L11.74 17.83L11.23 18.35L10.71 18.87L11.18 20.25L11.4 20.87C11.41 20.92 11.43 20.96 11.46 21.01C11.48 21.05 11.51 21.09 11.55 21.13C11.58 21.16 11.61 21.2 11.65 21.23C11.69 21.26 11.73 21.28 11.78 21.3C11.82 21.33 11.87 21.34 11.92 21.36C11.96 21.37 12.01 21.38 12.06 21.38C12.11 21.38 12.16 21.38 12.21 21.37C12.26 21.37 12.3 21.36 12.35 21.34L19.58 18.87C19.63 18.85 19.68 18.83 19.72 18.8C19.76 18.78 19.8 18.75 19.84 18.72C19.87 18.69 19.91 18.65 19.94 18.61C19.97 18.57 19.99 18.53 20.01 18.49C20.04 18.44 20.05 18.4 20.07 18.35C20.08 18.3 20.09 18.25 20.09 18.2C20.09 18.15 20.09 18.11 20.08 18.06C20.08 18.01 20.07 17.96 20.05 17.91L18.39 13.05L20.02 11.41C20.11 11.33 20.17 11.22 20.21 11.11C20.24 10.99 20.25 10.87 20.23 10.75ZM18.63 17.81L12.46 19.92L12.22 19.22L17.35 14.08L18.63 17.81Z" fill="#1F61C1" fill-opacity="1.000000" fill-rule="nonzero"/>
        <path id="path" d="M19.32 5.75C19.19 5.77 19.09 5.82 18.99 5.9C18.9 5.97 18.81 6.05 18.72 6.12C18.53 6.26 18.33 6.39 18.12 6.51L17.92 5.41L12.62 4.43L11.53 5.52L8.71 8.34L2.83 14.22L9.09 20.49L10.71 18.87L11.18 20.25L9.62 21.81C9.59 21.85 9.55 21.88 9.51 21.91C9.47 21.93 9.42 21.96 9.38 21.97C9.33 21.99 9.29 22.01 9.24 22.02C9.19 22.03 9.14 22.03 9.09 22.03C9.04 22.03 8.99 22.03 8.95 22.02C8.9 22.01 8.85 21.99 8.8 21.97C8.76 21.96 8.72 21.93 8.67 21.91C8.63 21.88 8.6 21.85 8.56 21.81L1.5 14.75C1.47 14.72 1.44 14.68 1.41 14.64C1.38 14.6 1.36 14.55 1.34 14.51C1.32 14.46 1.31 14.42 1.3 14.37C1.29 14.32 1.28 14.27 1.28 14.22C1.28 14.17 1.29 14.12 1.3 14.08C1.31 14.03 1.32 13.98 1.34 13.93C1.36 13.89 1.38 13.85 1.41 13.8C1.44 13.76 1.47 13.73 1.5 13.69L11.9 3.29C11.99 3.21 12.09 3.14 12.21 3.11C12.33 3.07 12.45 3.06 12.57 3.09L18.54 4.19C18.62 4.2 18.69 4.22 18.76 4.26C18.82 4.3 18.88 4.34 18.94 4.39C18.99 4.45 19.03 4.51 19.07 4.58C19.11 4.64 19.13 4.71 19.14 4.79L19.32 5.75Z" fill="#1F61C1" fill-opacity="1.000000" fill-rule="nonzero"/>
        <path id="path" d="M15.88 8.66C15.87 8.67 15.86 8.67 15.86 8.68C15.82 8.72 15.79 8.75 15.75 8.78C15.71 8.8 15.66 8.83 15.62 8.85C15.57 8.87 15.53 8.89 15.48 8.9C15.43 8.91 15.38 8.92 15.34 8.93C15.29 8.93 15.24 8.93 15.19 8.93C15.14 8.93 15.09 8.92 15.04 8.91C15 8.89 14.95 8.88 14.91 8.86C14.86 8.84 14.82 8.81 14.78 8.79C14.74 8.76 14.7 8.73 14.66 8.69C14.63 8.66 14.59 8.62 14.56 8.58C14.54 8.55 14.51 8.5 14.49 8.46C14.47 8.42 14.45 8.37 14.43 8.32C14.42 8.28 14.41 8.23 14.4 8.18C14.4 8.13 14.39 8.08 14.4 8.03C14.4 7.98 14.41 7.94 14.42 7.89C14.43 7.84 14.44 7.79 14.46 7.75C14.46 7.74 14.47 7.73 14.47 7.71C14.51 7.65 14.54 7.59 14.59 7.53C14.64 7.47 14.69 7.42 14.75 7.38C14.81 7.34 14.87 7.3 14.94 7.28C15.01 7.25 15.08 7.23 15.15 7.22C15.19 7.22 15.22 7.22 15.25 7.22C15.42 7.22 15.58 7.26 15.72 7.36L15.65 7.37C15.39 7.41 15.24 7.42 15.23 7.42C15.19 7.42 15.14 7.42 15.1 7.43C15.06 7.44 15.02 7.46 14.98 7.47C14.94 7.49 14.9 7.51 14.87 7.54C14.83 7.56 14.8 7.59 14.77 7.62C14.74 7.65 14.71 7.69 14.69 7.72C14.67 7.76 14.65 7.8 14.63 7.84C14.62 7.88 14.61 7.92 14.6 7.96C14.59 8.01 14.59 8.05 14.59 8.09C14.59 8.14 14.6 8.18 14.61 8.22C14.62 8.26 14.63 8.3 14.65 8.34C14.66 8.38 14.68 8.42 14.71 8.45C14.73 8.49 14.76 8.52 14.79 8.55C14.83 8.58 14.86 8.61 14.9 8.63C14.93 8.65 14.97 8.67 15.01 8.69C15.05 8.7 15.09 8.71 15.13 8.72C15.18 8.73 15.22 8.73 15.26 8.73L15.3 8.73C15.31 8.73 15.39 8.73 15.51 8.71C15.61 8.7 15.73 8.68 15.88 8.66Z" fill="#73ACFF" fill-opacity="1.000000" fill-rule="nonzero"/>
        <path id="path" d="M17.22 8.34C17.19 8.57 17.11 8.8 17 9.01C16.91 9.18 16.79 9.34 16.65 9.48C16.61 9.52 16.56 9.56 16.51 9.6C16.44 9.66 16.36 9.72 16.29 9.77C16.21 9.81 16.12 9.86 16.04 9.89C15.95 9.93 15.86 9.96 15.77 9.99C15.68 10.01 15.59 10.03 15.5 10.04C15.41 10.05 15.31 10.06 15.22 10.06C15.13 10.05 15.03 10.05 14.94 10.03C14.85 10.02 14.76 10 14.67 9.97C14.58 9.94 14.49 9.91 14.41 9.87C14.32 9.83 14.24 9.78 14.16 9.73C14.08 9.68 14.01 9.62 13.94 9.56C13.87 9.5 13.8 9.43 13.74 9.36C13.68 9.29 13.63 9.22 13.58 9.14C13.53 9.06 13.48 8.98 13.45 8.89C13.41 8.8 13.37 8.72 13.35 8.63C13.32 8.54 13.3 8.45 13.29 8.35C13.28 8.26 13.27 8.17 13.27 8.08C13.27 7.85 13.31 7.62 13.38 7.41C13.46 7.19 13.57 7 13.72 6.82C13.76 6.77 13.8 6.72 13.85 6.67C13.9 6.62 13.96 6.57 14.02 6.53C14.08 6.48 14.14 6.44 14.2 6.4C14.26 6.36 14.33 6.32 14.4 6.29C14.46 6.26 14.53 6.23 14.6 6.2C14.67 6.18 14.75 6.16 14.82 6.14C14.89 6.13 14.96 6.11 15.04 6.11C15.11 6.1 15.19 6.09 15.26 6.09C15.34 6.09 15.41 6.1 15.49 6.11C15.56 6.12 15.63 6.13 15.71 6.15C15.78 6.16 15.85 6.19 15.92 6.21C15.99 6.24 16.06 6.26 16.13 6.3C16.19 6.33 16.26 6.37 16.32 6.41C16.38 6.45 16.44 6.49 16.5 6.54C16.56 6.59 16.62 6.64 16.67 6.69C16.72 6.74 16.77 6.8 16.82 6.86C16.86 6.92 16.9 6.98 16.94 7.04C16.75 7.11 16.56 7.16 16.39 7.21C16.13 7.28 15.9 7.32 15.72 7.36C15.58 7.26 15.42 7.22 15.25 7.22C15.22 7.22 15.19 7.22 15.15 7.22C15.08 7.23 15.01 7.25 14.94 7.28C14.87 7.3 14.81 7.34 14.75 7.38C14.69 7.42 14.64 7.47 14.59 7.53C14.55 7.59 14.51 7.65 14.48 7.71C14.47 7.73 14.47 7.74 14.46 7.75C14.44 7.79 14.43 7.84 14.42 7.89C14.41 7.94 14.4 7.98 14.4 8.03C14.39 8.08 14.4 8.13 14.4 8.18C14.41 8.23 14.42 8.28 14.43 8.32C14.45 8.37 14.47 8.42 14.49 8.46C14.51 8.5 14.54 8.55 14.56 8.59C14.59 8.63 14.63 8.66 14.66 8.7C14.7 8.73 14.74 8.76 14.78 8.79C14.82 8.81 14.86 8.84 14.91 8.86C14.95 8.88 15 8.89 15.04 8.91C15.09 8.92 15.14 8.93 15.19 8.93C15.24 8.93 15.29 8.93 15.34 8.93C15.39 8.92 15.43 8.91 15.48 8.9C15.53 8.89 15.57 8.87 15.62 8.85C15.66 8.83 15.71 8.8 15.75 8.78C15.79 8.75 15.82 8.72 15.86 8.68C15.86 8.67 15.87 8.67 15.88 8.66C15.97 8.65 16.07 8.63 16.17 8.61C16.37 8.57 16.58 8.52 16.82 8.46C16.94 8.42 17.08 8.38 17.22 8.34Z" fill="#1F61C1" fill-opacity="1.000000" fill-rule="nonzero"/>
        <path id="path" d="M20.9 5.08C20.87 5.08 20.84 5.08 20.82 5.08C20.79 5.07 20.76 5.07 20.74 5.06C20.71 5.05 20.68 5.05 20.66 5.04C20.63 5.03 20.61 5.01 20.58 5C20.56 4.99 20.54 4.97 20.51 4.96C20.49 4.94 20.47 4.92 20.45 4.91C20.43 4.89 20.41 4.87 20.39 4.85C20.38 4.82 20.36 4.8 20.35 4.78C20.33 4.76 20.32 4.73 20.31 4.71C20.29 4.68 20.28 4.66 20.28 4.63C20.27 4.61 20.26 4.58 20.25 4.55C20.25 4.53 20.25 4.5 20.24 4.47C20.24 4.45 20.24 4.42 20.24 4.39C20.24 4.36 20.25 4.34 20.25 4.31C20.26 4.28 20.26 4.26 20.27 4.23C20.28 4.2 20.29 4.18 20.3 4.15C20.43 3.86 20.54 3.56 20.62 3.25C20.63 3.21 20.64 3.17 20.66 3.13C20.68 3.09 20.7 3.05 20.73 3.02C20.75 2.98 20.78 2.95 20.81 2.92C20.85 2.89 20.88 2.86 20.92 2.84C20.96 2.82 21 2.8 21.04 2.79C21.08 2.77 21.12 2.76 21.16 2.75C21.21 2.75 21.25 2.75 21.29 2.75C21.34 2.75 21.38 2.76 21.42 2.77C21.46 2.78 21.5 2.79 21.54 2.81C21.58 2.83 21.62 2.86 21.65 2.88C21.69 2.91 21.72 2.94 21.75 2.97C21.78 3 21.8 3.04 21.83 3.08C21.85 3.12 21.86 3.15 21.88 3.2C21.89 3.24 21.9 3.28 21.91 3.32C21.91 3.37 21.91 3.41 21.91 3.45C21.91 3.5 21.9 3.54 21.89 3.58C21.79 3.96 21.66 4.34 21.5 4.7C21.47 4.75 21.44 4.81 21.39 4.85C21.35 4.9 21.31 4.94 21.25 4.98C21.2 5.01 21.14 5.04 21.08 5.05C21.02 5.07 20.96 5.08 20.9 5.08ZM19.85 6.89C19.75 6.97 19.66 7.05 19.57 7.12C19.38 7.27 19.18 7.4 18.97 7.53C18.78 7.65 18.58 7.76 18.37 7.87C18 8.05 17.61 8.21 17.22 8.34C17.08 8.38 16.94 8.42 16.81 8.46C16.58 8.52 16.36 8.57 16.17 8.61C16.07 8.63 15.97 8.65 15.88 8.66C15.73 8.68 15.61 8.7 15.51 8.71C15.39 8.72 15.31 8.73 15.3 8.73L15.26 8.73C15.22 8.73 15.18 8.73 15.13 8.72C15.09 8.71 15.05 8.7 15.01 8.69C14.97 8.67 14.93 8.65 14.9 8.63C14.86 8.61 14.82 8.58 14.79 8.55C14.76 8.52 14.73 8.49 14.71 8.45C14.68 8.42 14.66 8.38 14.65 8.34C14.63 8.3 14.61 8.26 14.61 8.22C14.6 8.18 14.59 8.13 14.59 8.09C14.59 8.05 14.59 8 14.6 7.96C14.61 7.92 14.62 7.88 14.63 7.84C14.65 7.8 14.67 7.76 14.69 7.72C14.71 7.69 14.74 7.65 14.77 7.62C14.8 7.59 14.83 7.56 14.87 7.54C14.9 7.51 14.94 7.49 14.98 7.47C15.02 7.46 15.06 7.44 15.1 7.43C15.14 7.42 15.18 7.42 15.23 7.42C15.24 7.42 15.39 7.41 15.65 7.36L15.72 7.35C15.9 7.32 16.13 7.28 16.39 7.21C16.56 7.16 16.75 7.11 16.94 7.04C17.35 6.9 17.75 6.72 18.12 6.51C18.33 6.39 18.53 6.26 18.72 6.12C18.81 6.05 18.9 5.98 18.99 5.9C19.02 5.87 19.06 5.84 19.1 5.82C19.13 5.79 19.17 5.78 19.22 5.76C19.26 5.75 19.3 5.73 19.34 5.73C19.39 5.72 19.43 5.72 19.48 5.72C19.52 5.72 19.56 5.73 19.61 5.74C19.65 5.75 19.69 5.77 19.73 5.79C19.77 5.81 19.81 5.83 19.84 5.86C19.88 5.89 19.91 5.92 19.94 5.95C19.97 5.98 19.99 6.02 20.01 6.06C20.04 6.1 20.05 6.14 20.07 6.18C20.08 6.22 20.09 6.26 20.09 6.31C20.1 6.35 20.1 6.4 20.09 6.44C20.09 6.48 20.08 6.53 20.07 6.57C20.05 6.61 20.04 6.65 20.02 6.69C20 6.73 19.97 6.77 19.94 6.8C19.91 6.83 19.88 6.87 19.85 6.89Z" fill="#FFB640" fill-opacity="1.000000" fill-rule="nonzero"/>
    </g>
</svg>
