<svg width="14.000000" height="14.000000" viewBox="0 0 14 14" fill="none" xmlns="http://www.w3.org/2000/svg" xmlns:xlink="http://www.w3.org/1999/xlink">
    <desc>
        Created with Pixso.
    </desc>
    <defs>
        <clipPath id="clip171_60">
            <rect id="日历" width="14.000000" height="14.000000" fill="white" fill-opacity="0"/>
        </clipPath>
    </defs>
    <g clip-path="url(#clip171_60)">
        <path id="path" d="M3.65 2.39L10.34 2.39C11.66 2.39 12.32 3.05 12.32 4.38L12.32 11.06C12.32 12.38 11.66 13.05 10.34 13.05L3.65 13.05C2.33 13.05 1.67 12.38 1.67 11.06L1.67 4.38C1.67 3.05 2.33 2.39 3.65 2.39Z" fill="#C40000" fill-opacity="1.000000" fill-rule="nonzero"/>
        <path id="path" d="M12.32 4.38L12.32 11.06C12.32 12.16 11.43 13.05 10.34 13.05L3.65 13.05C2.93 13.05 2.3 12.66 1.95 12.09C2.12 12.21 2.3 12.3 2.5 12.36C2.7 12.43 2.9 12.46 3.11 12.46L9.79 12.46C10.89 12.46 11.78 11.57 11.78 10.47L11.78 3.79C11.78 3.61 11.76 3.43 11.71 3.26C11.66 3.08 11.59 2.92 11.5 2.76C12 3.12 12.32 3.71 12.32 4.38Z" fill="#9E0000" fill-opacity="1.000000" fill-rule="nonzero"/>
        <path id="path" d="M1.67 6.21C1.68 6.21 1.69 6.22 1.7 6.22C1.71 6.22 1.72 6.23 1.73 6.24C1.74 6.24 1.74 6.25 1.75 6.26C1.75 6.27 1.76 6.29 1.76 6.3L1.76 6.3L1.76 11.06C1.76 12.1 2.59 12.94 3.62 12.96L3.65 12.96L10.34 12.96C11.37 12.96 12.22 12.12 12.23 11.09L12.23 11.06L12.23 10.34C12.23 10.33 12.24 10.32 12.24 10.31C12.24 10.3 12.25 10.29 12.26 10.28C12.27 10.27 12.28 10.27 12.29 10.26C12.3 10.26 12.31 10.25 12.32 10.25C12.33 10.25 12.34 10.25 12.35 10.26C12.37 10.26 12.38 10.27 12.38 10.28C12.39 10.28 12.4 10.29 12.41 10.3C12.41 10.31 12.41 10.33 12.41 10.34L12.41 10.34L12.41 11.06C12.41 12.2 11.5 13.12 10.37 13.14L10.34 13.14L3.65 13.14C2.52 13.14 1.59 12.23 1.58 11.09L1.58 11.06L1.58 6.3C1.58 6.29 1.58 6.28 1.58 6.27C1.59 6.26 1.59 6.25 1.6 6.24C1.61 6.23 1.62 6.22 1.63 6.22C1.64 6.22 1.65 6.21 1.67 6.21ZM3.65 2.3L10.34 2.3C11.47 2.3 12.4 3.21 12.41 4.34L12.41 4.38L12.41 9.71C12.41 9.73 12.41 9.74 12.41 9.75C12.4 9.76 12.4 9.77 12.39 9.78C12.38 9.79 12.37 9.79 12.36 9.8C12.35 9.8 12.34 9.8 12.33 9.8C12.32 9.81 12.3 9.8 12.29 9.8C12.28 9.8 12.27 9.79 12.26 9.78C12.26 9.77 12.25 9.76 12.24 9.75C12.24 9.74 12.23 9.73 12.23 9.72L12.23 9.71L12.23 4.38C12.23 3.34 11.4 2.5 10.37 2.48L10.34 2.48L3.65 2.48C2.62 2.48 1.77 3.31 1.76 4.34L1.76 4.38L1.76 5.17C1.76 5.18 1.75 5.19 1.75 5.2C1.75 5.21 1.74 5.22 1.73 5.23C1.72 5.24 1.71 5.25 1.7 5.25C1.69 5.26 1.68 5.26 1.67 5.26C1.66 5.26 1.65 5.26 1.64 5.25C1.62 5.25 1.61 5.24 1.61 5.24C1.6 5.23 1.59 5.22 1.58 5.21C1.58 5.2 1.58 5.19 1.58 5.18L1.58 5.17L1.58 4.38C1.58 3.24 2.49 2.32 3.62 2.3L3.65 2.3L10.34 2.3L3.65 2.3Z" fill="#4C3030" fill-opacity="1.000000" fill-rule="nonzero"/>
        <path id="path" d="M1.58 5.91C1.58 5.92 1.58 5.93 1.58 5.95C1.59 5.96 1.59 5.97 1.6 5.98C1.61 5.98 1.62 5.99 1.63 5.99C1.64 6 1.65 6 1.67 6C1.68 6 1.69 6 1.7 5.99C1.71 5.99 1.72 5.98 1.73 5.98C1.74 5.97 1.74 5.96 1.75 5.95C1.75 5.93 1.76 5.92 1.76 5.91C1.76 5.9 1.75 5.89 1.75 5.88C1.74 5.87 1.74 5.86 1.73 5.85C1.72 5.84 1.71 5.83 1.7 5.83C1.69 5.82 1.68 5.82 1.67 5.82C1.65 5.82 1.64 5.82 1.63 5.83C1.62 5.83 1.61 5.84 1.6 5.85C1.59 5.86 1.59 5.87 1.58 5.88C1.58 5.89 1.58 5.9 1.58 5.91Z" fill="#4C3030" fill-opacity="1.000000" fill-rule="nonzero"/>
        <path id="path" d="M12.23 10.02C12.23 10.03 12.24 10.04 12.24 10.06C12.25 10.07 12.25 10.08 12.26 10.08C12.27 10.09 12.28 10.1 12.29 10.1C12.3 10.11 12.31 10.11 12.32 10.11C12.34 10.11 12.35 10.11 12.36 10.1C12.37 10.1 12.38 10.09 12.39 10.08C12.4 10.08 12.4 10.07 12.41 10.06C12.41 10.04 12.41 10.03 12.41 10.02C12.41 10.01 12.41 10 12.41 9.99C12.4 9.98 12.4 9.97 12.39 9.96C12.38 9.95 12.37 9.94 12.36 9.94C12.35 9.93 12.34 9.93 12.32 9.93C12.31 9.93 12.3 9.93 12.29 9.94C12.28 9.94 12.27 9.95 12.26 9.96C12.25 9.97 12.25 9.98 12.24 9.99C12.24 10 12.23 10.01 12.23 10.02Z" fill="#4C3030" fill-opacity="1.000000" fill-rule="nonzero"/>
        <path id="path" d="M4.06 4.74L9.92 4.74C10.86 4.74 11.32 5.2 11.32 6.14L11.32 10.63C11.32 11.56 10.86 12.03 9.92 12.03L4.06 12.03C3.13 12.03 2.66 11.56 2.66 10.63L2.66 6.14C2.66 5.2 3.13 4.74 4.06 4.74Z" fill="#FFFFFF" fill-opacity="1.000000" fill-rule="nonzero"/>
        <path id="path" d="M11.32 6.14L11.32 10.63C11.32 11.4 10.7 12.03 9.92 12.03L4.06 12.03C3.56 12.03 3.12 11.76 2.87 11.37C2.98 11.44 3.1 11.49 3.22 11.52C3.35 11.56 3.48 11.58 3.61 11.58L9.47 11.58C10.25 11.58 10.87 10.95 10.87 10.18L10.87 5.69C10.87 5.55 10.86 5.43 10.82 5.3C10.78 5.18 10.73 5.06 10.66 4.95C11.06 5.19 11.32 5.63 11.32 6.14Z" fill="#F9E5E5" fill-opacity="1.000000" fill-rule="nonzero"/>
        <path id="path" d="M11.32 6.14L11.32 10.63C11.32 11.4 10.7 12.03 9.92 12.03L4.06 12.03C3.56 12.03 3.12 11.76 2.87 11.37C2.98 11.44 3.1 11.49 3.22 11.52C3.35 11.56 3.48 11.58 3.61 11.58L9.47 11.58C10.25 11.58 10.87 10.95 10.87 10.18L10.87 5.69C10.87 5.55 10.86 5.43 10.82 5.3C10.78 5.18 10.73 5.06 10.66 4.95C11.06 5.19 11.32 5.63 11.32 6.14Z" fill="#F9E5E5" fill-opacity="1.000000" fill-rule="nonzero"/>
        <path id="path" d="M4.08 3.83L4.07 3.83L4.08 3.83C4.09 3.83 4.09 3.83 4.1 3.83L4.08 3.83ZM4.05 3.83L4.06 3.83L4.05 3.83ZM4.04 3.83L4.04 3.83C4.04 3.83 4.04 3.83 4.04 3.83ZM4.02 3.83L4.03 3.83L4.02 3.83ZM4 3.83L4.01 3.83C4.01 3.83 4 3.83 4 3.83ZM3.99 3.83L4 3.83C3.99 3.83 3.99 3.83 3.99 3.83ZM3.95 3.82C3.96 3.82 3.96 3.82 3.97 3.83L3.95 3.82ZM3.94 3.82L3.94 3.82L3.94 3.82ZM3.92 3.82L3.93 3.82C3.93 3.82 3.92 3.82 3.92 3.82ZM3.91 3.81L3.91 3.82L3.91 3.81ZM3.89 3.81L3.9 3.81C3.9 3.81 3.89 3.81 3.89 3.81ZM3.87 3.81L3.89 3.81C3.88 3.81 3.88 3.81 3.87 3.81ZM3.86 3.8L3.87 3.81C3.87 3.8 3.86 3.8 3.86 3.8ZM3.83 3.79C3.83 3.79 3.84 3.8 3.84 3.8L3.83 3.79ZM3.78 3.78C3.78 3.78 3.79 3.78 3.79 3.78L3.78 3.78ZM3.77 3.77L3.78 3.77C3.78 3.77 3.77 3.77 3.77 3.77ZM3.76 3.76L3.76 3.77L3.76 3.76ZM3.74 3.76L3.75 3.76C3.75 3.76 3.75 3.76 3.74 3.76ZM3.72 3.74C3.72 3.75 3.72 3.75 3.72 3.75L3.72 3.74ZM3.7 3.73L3.7 3.74C3.7 3.74 3.7 3.74 3.7 3.73ZM3.68 3.73L3.69 3.73C3.69 3.73 3.69 3.73 3.68 3.73ZM3.67 3.72L3.68 3.72L3.67 3.72ZM3.66 3.71L3.67 3.72C3.66 3.71 3.66 3.71 3.66 3.71ZM3.63 3.69C3.64 3.7 3.64 3.7 3.64 3.7L3.63 3.69ZM3.59 3.66L3.6 3.67C3.6 3.67 3.6 3.67 3.59 3.66ZM3.58 3.66L3.59 3.66C3.59 3.66 3.58 3.66 3.58 3.66ZM3.57 3.65L3.58 3.65C3.58 3.65 3.57 3.65 3.57 3.65ZM3.56 3.64L3.57 3.64C3.56 3.64 3.56 3.64 3.56 3.64ZM3.55 3.63L3.56 3.63C3.55 3.63 3.55 3.63 3.55 3.63ZM4.08 0.99C4.33 0.99 4.55 1.1 4.7 1.28C4.74 1.39 4.75 1.5 4.74 1.62L4.63 2.9L4.63 2.92C4.59 3.29 4.26 3.57 3.88 3.54C3.87 3.53 3.86 3.53 3.85 3.53L3.79 3.52L3.77 3.52C3.69 3.51 3.61 3.48 3.54 3.45C3.46 3.41 3.39 3.36 3.33 3.3C3.34 3.3 3.34 3.31 3.34 3.31C3.31 3.23 3.29 3.14 3.29 3.04L3.29 1.78C3.29 1.34 3.65 0.99 4.08 0.99ZM3.4 3.45L3.41 3.45L3.4 3.45ZM3.39 3.43L3.4 3.44C3.4 3.44 3.39 3.43 3.39 3.43ZM3.36 3.37L3.37 3.38C3.37 3.38 3.37 3.38 3.36 3.37ZM3.35 3.33L3.35 3.34C3.35 3.34 3.35 3.34 3.35 3.33ZM4.87 1.75L4.87 1.75C4.87 1.75 4.87 1.75 4.87 1.75L4.87 1.75C4.87 1.75 4.87 1.75 4.87 1.75ZM4.87 1.71L4.87 1.72C4.87 1.71 4.87 1.71 4.87 1.7L4.87 1.72C4.87 1.71 4.87 1.71 4.87 1.71ZM4.87 1.69L4.87 1.7C4.87 1.69 4.87 1.69 4.87 1.69L4.87 1.7L4.87 1.69ZM4.87 1.68L4.87 1.68C4.87 1.68 4.87 1.68 4.87 1.68ZM4.86 1.62L4.86 1.62C4.86 1.62 4.86 1.62 4.86 1.62ZM4.84 1.56L4.84 1.57C4.84 1.57 4.84 1.57 4.84 1.56ZM4.83 1.51L4.83 1.51L4.82 1.51L4.83 1.51C4.83 1.51 4.83 1.51 4.83 1.51ZM4.82 1.5L4.82 1.5C4.82 1.5 4.82 1.5 4.82 1.5ZM4.8 1.46L4.81 1.46L4.8 1.45L4.81 1.46L4.8 1.46ZM4.8 1.45L4.8 1.45C4.8 1.44 4.8 1.44 4.8 1.44L4.8 1.45L4.8 1.45ZM4.79 1.42L4.79 1.42C4.79 1.42 4.79 1.42 4.79 1.42L4.79 1.42L4.79 1.42ZM4.78 1.41L4.78 1.41C4.78 1.41 4.78 1.41 4.78 1.41L4.78 1.41L4.78 1.41ZM4.77 1.4L4.78 1.4C4.77 1.4 4.77 1.4 4.77 1.4ZM4.87 1.78L4.87 1.76C4.87 1.77 4.87 1.77 4.87 1.78ZM7.02 3.83L7.01 3.83L7.02 3.83C7.02 3.83 7.03 3.83 7.03 3.83L7.02 3.83ZM6.99 3.83L6.99 3.83L6.99 3.83ZM6.97 3.83L6.98 3.83L6.97 3.83ZM6.95 3.83L6.96 3.83C6.96 3.83 6.96 3.83 6.95 3.83ZM6.94 3.83L6.95 3.83C6.95 3.83 6.94 3.83 6.94 3.83ZM6.92 3.83L6.93 3.83C6.93 3.83 6.93 3.83 6.92 3.83ZM6.89 3.82C6.89 3.82 6.9 3.82 6.9 3.83L6.89 3.82ZM6.87 3.82L6.88 3.82C6.88 3.82 6.87 3.82 6.87 3.82ZM6.86 3.82L6.86 3.82C6.86 3.82 6.86 3.82 6.86 3.82ZM6.84 3.81L6.85 3.82L6.84 3.81ZM6.83 3.81L6.84 3.81C6.83 3.81 6.83 3.81 6.83 3.81ZM6.81 3.81L6.82 3.81C6.82 3.81 6.81 3.81 6.81 3.81ZM6.8 3.8L6.81 3.81C6.8 3.8 6.8 3.8 6.8 3.8ZM6.77 3.79C6.77 3.79 6.77 3.8 6.78 3.8L6.77 3.79ZM6.72 3.78C6.72 3.78 6.72 3.78 6.72 3.78L6.72 3.78ZM6.71 3.77L6.71 3.77L6.71 3.77ZM6.69 3.76L6.7 3.77L6.69 3.76ZM6.68 3.76L6.69 3.76C6.68 3.76 6.68 3.76 6.68 3.76ZM6.65 3.74C6.65 3.75 6.66 3.75 6.66 3.75L6.65 3.74ZM6.63 3.73L6.64 3.74C6.64 3.74 6.64 3.74 6.63 3.73ZM6.62 3.73L6.63 3.73C6.63 3.73 6.62 3.73 6.62 3.73ZM6.61 3.72L6.62 3.72L6.61 3.72ZM6.6 3.71L6.6 3.72L6.6 3.71ZM6.57 3.69C6.57 3.7 6.57 3.7 6.58 3.7L6.57 3.69ZM6.53 3.66L6.54 3.67C6.53 3.67 6.53 3.67 6.53 3.66ZM6.52 3.66L6.52 3.66C6.52 3.66 6.52 3.66 6.52 3.66ZM6.51 3.65L6.51 3.65C6.51 3.65 6.51 3.65 6.51 3.65ZM6.5 3.64L6.5 3.64L6.5 3.64ZM6.48 3.63L6.49 3.63C6.49 3.63 6.49 3.63 6.48 3.63ZM7.02 0.99C7.26 0.99 7.49 1.1 7.63 1.28C7.67 1.39 7.69 1.5 7.68 1.62L7.57 2.9L7.57 2.92C7.53 3.29 7.19 3.57 6.82 3.54C6.81 3.53 6.8 3.53 6.79 3.53L6.73 3.52L6.71 3.52C6.63 3.51 6.55 3.48 6.47 3.45C6.4 3.41 6.33 3.36 6.27 3.3C6.27 3.3 6.27 3.31 6.27 3.31C6.24 3.23 6.23 3.14 6.23 3.04L6.23 1.78C6.23 1.34 6.58 0.99 7.02 0.99ZM6.34 3.45L6.34 3.45L6.34 3.45ZM6.33 3.43L6.33 3.44C6.33 3.44 6.33 3.43 6.33 3.43ZM6.3 3.37L6.3 3.38C6.3 3.38 6.3 3.38 6.3 3.37ZM6.28 3.33L6.29 3.34C6.28 3.34 6.28 3.34 6.28 3.33ZM7.81 1.75L7.81 1.75C7.81 1.75 7.81 1.75 7.81 1.75L7.81 1.75C7.81 1.75 7.81 1.75 7.81 1.75ZM7.8 1.71L7.81 1.72C7.81 1.71 7.8 1.71 7.8 1.7L7.81 1.72C7.81 1.71 7.8 1.71 7.8 1.71ZM7.8 1.69L7.8 1.7C7.8 1.69 7.8 1.69 7.8 1.69L7.8 1.7L7.8 1.69ZM7.8 1.68L7.8 1.68C7.8 1.68 7.8 1.68 7.8 1.68ZM7.79 1.62L7.79 1.62C7.79 1.62 7.79 1.62 7.79 1.62ZM7.78 1.56L7.78 1.57C7.78 1.57 7.78 1.57 7.78 1.56ZM7.76 1.51L7.76 1.51L7.76 1.51L7.76 1.51C7.76 1.51 7.76 1.51 7.76 1.51ZM7.76 1.5L7.76 1.5C7.76 1.5 7.76 1.5 7.76 1.5ZM7.74 1.46L7.74 1.46L7.74 1.45L7.74 1.46L7.74 1.46ZM7.73 1.45L7.74 1.45L7.73 1.44L7.74 1.45L7.73 1.45ZM7.72 1.42L7.72 1.42C7.72 1.42 7.72 1.42 7.72 1.42L7.72 1.42L7.72 1.42ZM7.72 1.41L7.72 1.41C7.72 1.41 7.72 1.41 7.71 1.41L7.72 1.41L7.72 1.41ZM7.71 1.4L7.71 1.4C7.71 1.4 7.71 1.4 7.71 1.4ZM7.81 1.78L7.81 1.76C7.81 1.77 7.81 1.77 7.81 1.78ZM9.95 3.83L9.94 3.83L9.95 3.83C9.96 3.83 9.96 3.83 9.97 3.83L9.95 3.83ZM9.92 3.83L9.93 3.83L9.92 3.83ZM9.91 3.83L9.91 3.83L9.91 3.83ZM9.89 3.83L9.9 3.83C9.89 3.83 9.89 3.83 9.89 3.83ZM9.87 3.83L9.89 3.83C9.88 3.83 9.88 3.83 9.87 3.83ZM9.86 3.83L9.87 3.83C9.87 3.83 9.86 3.83 9.86 3.83ZM9.83 3.82C9.83 3.82 9.83 3.82 9.84 3.83L9.83 3.82ZM9.81 3.82L9.81 3.82C9.81 3.82 9.81 3.82 9.81 3.82ZM9.79 3.82L9.8 3.82C9.8 3.82 9.79 3.82 9.79 3.82ZM9.78 3.81L9.79 3.82L9.78 3.81ZM9.76 3.81L9.77 3.81C9.77 3.81 9.76 3.81 9.76 3.81ZM9.75 3.81L9.76 3.81C9.75 3.81 9.75 3.81 9.75 3.81ZM9.73 3.8L9.74 3.81C9.74 3.8 9.73 3.8 9.73 3.8ZM9.7 3.79C9.71 3.79 9.71 3.8 9.71 3.8L9.7 3.79ZM9.65 3.78C9.66 3.78 9.66 3.78 9.66 3.78L9.65 3.78ZM9.64 3.77L9.65 3.77L9.64 3.77ZM9.63 3.76L9.63 3.77L9.63 3.76ZM9.61 3.76L9.62 3.76C9.62 3.76 9.62 3.76 9.61 3.76ZM9.59 3.74C9.59 3.75 9.59 3.75 9.59 3.75L9.59 3.74ZM9.57 3.73L9.57 3.74C9.57 3.74 9.57 3.74 9.57 3.73ZM9.56 3.73L9.56 3.73C9.56 3.73 9.56 3.73 9.56 3.73ZM9.54 3.72L9.55 3.72L9.54 3.72ZM9.53 3.71L9.54 3.72L9.53 3.71ZM9.5 3.69C9.51 3.7 9.51 3.7 9.51 3.7L9.5 3.69ZM9.46 3.66L9.47 3.67C9.47 3.67 9.47 3.67 9.46 3.66ZM9.45 3.66L9.46 3.66C9.46 3.66 9.46 3.66 9.45 3.66ZM9.44 3.65L9.45 3.65C9.45 3.65 9.44 3.65 9.44 3.65ZM9.43 3.64L9.44 3.64L9.43 3.64ZM9.42 3.63L9.43 3.63C9.42 3.63 9.42 3.63 9.42 3.63ZM9.95 0.99C10.2 0.99 10.42 1.1 10.57 1.28C10.61 1.39 10.62 1.5 10.61 1.62L10.5 2.9L10.5 2.92C10.46 3.29 10.13 3.57 9.75 3.54C9.74 3.53 9.73 3.53 9.72 3.53L9.66 3.52L9.64 3.52C9.56 3.51 9.48 3.48 9.41 3.45C9.33 3.41 9.26 3.36 9.2 3.3C9.21 3.3 9.21 3.31 9.21 3.31C9.18 3.23 9.16 3.14 9.16 3.04L9.16 1.78C9.16 1.34 9.52 0.99 9.95 0.99ZM9.27 3.45L9.28 3.45L9.27 3.45ZM9.26 3.43L9.27 3.44C9.27 3.44 9.27 3.43 9.26 3.43ZM9.24 3.37L9.24 3.38C9.24 3.38 9.24 3.38 9.24 3.37ZM9.22 3.33L9.22 3.34C9.22 3.34 9.22 3.34 9.22 3.33ZM10.74 1.75L10.74 1.75C10.74 1.75 10.74 1.75 10.74 1.75L10.74 1.75C10.74 1.75 10.74 1.75 10.74 1.75ZM10.74 1.71L10.74 1.72C10.74 1.71 10.74 1.71 10.74 1.7L10.74 1.72C10.74 1.71 10.74 1.71 10.74 1.71ZM10.74 1.69L10.74 1.7C10.74 1.69 10.74 1.69 10.74 1.69L10.74 1.7L10.74 1.69ZM10.74 1.68L10.74 1.68C10.74 1.68 10.74 1.68 10.74 1.68ZM10.73 1.62L10.73 1.62C10.73 1.62 10.73 1.62 10.73 1.62ZM10.71 1.56L10.71 1.57C10.71 1.57 10.71 1.57 10.71 1.56ZM10.7 1.51L10.7 1.51L10.7 1.51L10.7 1.51C10.7 1.51 10.7 1.51 10.7 1.51ZM10.69 1.5L10.69 1.5C10.69 1.5 10.69 1.5 10.69 1.5ZM10.68 1.46L10.68 1.46L10.67 1.45L10.68 1.46L10.68 1.46ZM10.67 1.45L10.67 1.45L10.67 1.44L10.67 1.45L10.67 1.45ZM10.66 1.42L10.66 1.42C10.66 1.42 10.66 1.42 10.66 1.42L10.66 1.42L10.66 1.42ZM10.65 1.41L10.65 1.41C10.65 1.41 10.65 1.41 10.65 1.41L10.65 1.41L10.65 1.41ZM10.64 1.4L10.65 1.4C10.65 1.4 10.65 1.4 10.64 1.4ZM10.74 1.78L10.74 1.76C10.74 1.77 10.74 1.77 10.74 1.78Z" fill="#009042" fill-opacity="1.000000" fill-rule="nonzero"/>
        <path id="path" d="M4.87 1.78L4.87 3.04C4.87 3.48 4.52 3.83 4.08 3.83C3.74 3.83 3.44 3.61 3.33 3.3C3.4 3.36 3.47 3.41 3.54 3.45C3.62 3.49 3.71 3.51 3.79 3.52L3.85 3.53C3.86 3.53 3.87 3.53 3.88 3.54C4.26 3.57 4.6 3.28 4.63 2.9L4.74 1.62C4.75 1.5 4.74 1.39 4.7 1.28C4.75 1.35 4.8 1.43 4.83 1.51C4.86 1.6 4.87 1.69 4.87 1.78ZM7.81 1.78L7.81 3.04C7.81 3.48 7.45 3.83 7.02 3.83C6.67 3.83 6.38 3.61 6.27 3.3C6.33 3.36 6.4 3.41 6.48 3.45C6.56 3.49 6.64 3.51 6.73 3.52L6.79 3.53C6.8 3.53 6.81 3.53 6.82 3.54C7.2 3.57 7.54 3.28 7.57 2.9L7.68 1.62C7.69 1.5 7.67 1.39 7.63 1.28C7.69 1.35 7.73 1.43 7.76 1.51C7.79 1.6 7.81 1.69 7.81 1.78ZM10.74 1.78L10.74 3.04C10.74 3.48 10.39 3.83 9.95 3.83C9.61 3.83 9.31 3.61 9.21 3.3C9.27 3.36 9.34 3.41 9.42 3.45C9.49 3.49 9.58 3.51 9.66 3.52L9.72 3.53C9.73 3.53 9.74 3.53 9.75 3.54C10.14 3.57 10.47 3.28 10.5 2.9L10.61 1.62C10.62 1.5 10.61 1.39 10.57 1.28C10.62 1.35 10.67 1.43 10.7 1.51C10.73 1.6 10.74 1.69 10.74 1.78Z" fill="#056639" fill-opacity="1.000000" fill-rule="nonzero"/>
        <path id="path" d="M4.2 10.26C4.21 9.93 4.28 9.65 4.4 9.4C4.51 9.16 4.74 8.94 5.08 8.74L5.59 8.45L5.64 8.42C5.84 8.3 5.99 8.2 6.07 8.11C6.22 7.97 6.29 7.8 6.29 7.61C6.29 7.39 6.22 7.21 6.09 7.08C5.96 6.95 5.78 6.89 5.56 6.89C5.23 6.89 5.01 7.01 4.88 7.26C4.82 7.39 4.78 7.58 4.77 7.81L4.29 7.81C4.29 7.48 4.35 7.21 4.47 7C4.68 6.64 5.04 6.45 5.56 6.45C6 6.45 6.31 6.57 6.51 6.81C6.71 7.04 6.81 7.3 6.81 7.59C6.81 7.89 6.71 8.15 6.49 8.37C6.37 8.49 6.15 8.64 5.83 8.82L5.47 9.02C5.29 9.12 5.16 9.21 5.06 9.3C4.88 9.45 4.77 9.62 4.73 9.81L6.8 9.81L6.8 10.26L4.2 10.26ZM7.71 9.29C7.74 9.56 7.87 9.75 8.09 9.85C8.2 9.91 8.33 9.93 8.48 9.93C8.76 9.93 8.97 9.84 9.11 9.66C9.24 9.48 9.31 9.28 9.31 9.06C9.31 8.8 9.23 8.6 9.07 8.45C8.91 8.31 8.71 8.23 8.49 8.23C8.32 8.23 8.18 8.27 8.07 8.33C7.95 8.39 7.85 8.48 7.76 8.59L7.35 8.57L7.64 6.53L9.61 6.53L9.61 6.99L8 6.99L7.84 8.04C7.92 7.98 8.01 7.93 8.09 7.89C8.23 7.83 8.39 7.81 8.58 7.81C8.92 7.81 9.22 7.92 9.46 8.14C9.7 8.37 9.82 8.65 9.82 8.99C9.82 9.35 9.71 9.67 9.49 9.94C9.27 10.21 8.92 10.35 8.43 10.35C8.12 10.35 7.85 10.26 7.61 10.09C7.38 9.92 7.24 9.65 7.21 9.29L7.71 9.29ZM4.08 0.9C4.57 0.9 4.96 1.29 4.96 1.78L4.96 3.04C4.96 3.53 4.57 3.92 4.08 3.92C3.6 3.92 3.2 3.53 3.2 3.04L3.2 1.78C3.2 1.29 3.6 0.9 4.08 0.9ZM4.08 1.08C3.7 1.08 3.38 1.39 3.38 1.78L3.38 3.04C3.38 3.43 3.7 3.74 4.08 3.74C4.47 3.74 4.78 3.43 4.78 3.04L4.78 1.78C4.78 1.39 4.47 1.08 4.08 1.08ZM7.02 0.9C7.5 0.9 7.9 1.29 7.9 1.78L7.9 3.04C7.9 3.53 7.5 3.92 7.02 3.92C6.53 3.92 6.14 3.53 6.14 3.04L6.14 1.78C6.14 1.29 6.53 0.9 7.02 0.9ZM7.02 1.08C6.63 1.08 6.32 1.39 6.32 1.78L6.32 3.04C6.32 3.43 6.63 3.74 7.02 3.74C7.4 3.74 7.72 3.43 7.72 3.04L7.72 1.78C7.72 1.39 7.4 1.08 7.02 1.08ZM9.95 0.9C10.44 0.9 10.83 1.29 10.83 1.78L10.83 3.04C10.83 3.53 10.44 3.92 9.95 3.92C9.47 3.92 9.07 3.53 9.07 3.04L9.07 1.78C9.07 1.29 9.47 0.9 9.95 0.9ZM9.95 1.08C9.57 1.08 9.25 1.39 9.25 1.78L9.25 3.04C9.25 3.43 9.57 3.74 9.95 3.74C10.34 3.74 10.65 3.43 10.65 3.04L10.65 1.78C10.65 1.39 10.34 1.08 9.95 1.08Z" fill="#4C3030" fill-opacity="1.000000" fill-rule="nonzero"/>
    </g>
</svg>
