<svg width="24.000000" height="24.000000" viewBox="0 0 24 24" fill="none" xmlns="http://www.w3.org/2000/svg" xmlns:xlink="http://www.w3.org/1999/xlink">
    <desc>
        Created with Pixso.
    </desc>
    <defs>
        <clipPath id="clip91_30">
            <rect id="设置" width="24.000000" height="24.000000" fill="white" fill-opacity="0"/>
        </clipPath>
    </defs>
    <g clip-path="url(#clip91_30)">
        <path id="path" d="M0.16 16.53C0.62 17.56 1.21 18.51 1.93 19.37C1.99 19.45 2.07 19.52 2.14 19.59C2.22 19.66 2.3 19.72 2.38 19.78C2.46 19.83 2.55 19.88 2.64 19.93C2.73 19.97 2.82 20.01 2.92 20.04C3.02 20.07 3.11 20.1 3.21 20.12C3.31 20.14 3.41 20.15 3.51 20.15C3.61 20.16 3.71 20.16 3.82 20.15C3.92 20.14 4.02 20.12 4.11 20.1C4.34 20.05 4.57 20.03 4.8 20.02C5.03 20.01 5.26 20.02 5.49 20.06C5.72 20.09 5.94 20.14 6.16 20.21C6.38 20.28 6.59 20.37 6.8 20.48C6.99 20.59 7.18 20.71 7.35 20.84C7.52 20.98 7.68 21.14 7.82 21.3C7.96 21.47 8.09 21.65 8.19 21.84C8.3 22.03 8.39 22.23 8.46 22.44C8.5 22.54 8.53 22.63 8.58 22.72C8.62 22.81 8.68 22.9 8.73 22.98C8.79 23.06 8.85 23.14 8.92 23.21C8.99 23.29 9.07 23.36 9.14 23.42C9.22 23.48 9.31 23.54 9.39 23.59C9.48 23.64 9.57 23.69 9.66 23.73C9.75 23.77 9.85 23.8 9.95 23.83C10.05 23.85 10.14 23.87 10.24 23.88C11.41 24.03 12.57 24.03 13.74 23.88C13.84 23.87 13.94 23.85 14.03 23.83C14.13 23.8 14.23 23.77 14.32 23.73C14.41 23.69 14.5 23.65 14.59 23.59C14.68 23.54 14.76 23.48 14.84 23.42C14.92 23.36 14.99 23.29 15.06 23.21C15.13 23.14 15.19 23.06 15.25 22.98C15.31 22.9 15.36 22.81 15.4 22.72C15.45 22.63 15.49 22.54 15.52 22.44C15.59 22.23 15.68 22.03 15.79 21.84C15.9 21.65 16.03 21.47 16.18 21.3C16.32 21.13 16.48 20.98 16.66 20.84C16.83 20.7 17.02 20.59 17.21 20.48C17.42 20.37 17.63 20.28 17.85 20.21C18.07 20.14 18.29 20.09 18.52 20.06C18.75 20.02 18.98 20.01 19.21 20.02C19.44 20.03 19.67 20.05 19.89 20.1C19.99 20.12 20.09 20.14 20.19 20.15C20.29 20.16 20.4 20.16 20.5 20.15C20.6 20.15 20.7 20.14 20.8 20.12C20.9 20.1 20.99 20.07 21.09 20.04C21.18 20.01 21.28 19.97 21.37 19.93C21.46 19.88 21.55 19.83 21.63 19.78C21.71 19.72 21.79 19.66 21.87 19.59C21.95 19.52 22.02 19.45 22.08 19.37C22.81 18.51 23.39 17.56 23.85 16.53C23.89 16.44 23.92 16.34 23.95 16.25C23.97 16.15 23.99 16.05 24 15.95C24.01 15.85 24.02 15.75 24.01 15.65C24.01 15.55 24 15.45 23.98 15.35C23.96 15.25 23.93 15.15 23.9 15.06C23.86 14.96 23.82 14.87 23.78 14.78C23.73 14.69 23.67 14.61 23.61 14.53C23.55 14.45 23.48 14.38 23.41 14.31C23.33 14.23 23.26 14.15 23.19 14.07C23.13 13.99 23.06 13.9 23 13.81C22.94 13.72 22.88 13.63 22.83 13.54C22.78 13.44 22.74 13.35 22.69 13.25C22.65 13.15 22.62 13.05 22.59 12.95C22.55 12.84 22.53 12.74 22.51 12.63C22.49 12.53 22.47 12.42 22.46 12.32C22.45 12.21 22.44 12.1 22.44 12C22.44 11.89 22.45 11.78 22.46 11.67C22.47 11.57 22.49 11.46 22.51 11.36C22.53 11.25 22.55 11.15 22.59 11.04C22.62 10.94 22.65 10.84 22.69 10.74C22.74 10.64 22.78 10.55 22.83 10.45C22.88 10.36 22.94 10.27 23 10.18C23.06 10.09 23.13 10 23.19 9.92C23.26 9.84 23.33 9.76 23.41 9.68C23.48 9.61 23.55 9.54 23.61 9.46C23.67 9.38 23.73 9.3 23.78 9.21C23.82 9.12 23.86 9.03 23.9 8.93C23.93 8.84 23.96 8.74 23.98 8.64C24 8.54 24.01 8.44 24.01 8.34C24.02 8.24 24.01 8.14 24 8.04C23.99 7.94 23.97 7.84 23.95 7.74C23.92 7.65 23.89 7.55 23.85 7.46C23.39 6.43 22.8 5.48 22.07 4.62C22 4.54 21.93 4.47 21.86 4.4C21.78 4.33 21.7 4.27 21.62 4.21C21.53 4.16 21.45 4.11 21.36 4.06C21.27 4.02 21.17 3.98 21.08 3.95C20.98 3.92 20.88 3.89 20.78 3.87C20.68 3.85 20.58 3.84 20.48 3.84C20.38 3.83 20.28 3.83 20.18 3.84C20.08 3.85 19.98 3.87 19.88 3.89C19.66 3.93 19.43 3.96 19.2 3.97C18.97 3.98 18.74 3.96 18.51 3.93C18.29 3.9 18.06 3.85 17.85 3.78C17.63 3.7 17.42 3.61 17.21 3.51C17.02 3.4 16.83 3.29 16.66 3.15C16.48 3.01 16.32 2.86 16.18 2.69C16.03 2.52 15.91 2.34 15.79 2.15C15.68 1.96 15.59 1.76 15.52 1.55C15.49 1.45 15.45 1.36 15.4 1.27C15.36 1.18 15.31 1.1 15.25 1.01C15.19 0.93 15.13 0.85 15.06 0.78C14.99 0.7 14.92 0.63 14.84 0.57C14.76 0.51 14.68 0.45 14.59 0.4C14.51 0.35 14.42 0.3 14.33 0.26C14.23 0.22 14.14 0.19 14.04 0.16C13.94 0.14 13.84 0.12 13.74 0.11C12.58 -0.04 11.42 -0.04 10.25 0.11C10.15 0.12 10.05 0.14 9.95 0.16C9.86 0.19 9.76 0.22 9.67 0.26C9.57 0.3 9.48 0.34 9.4 0.39C9.31 0.45 9.23 0.5 9.15 0.57C9.07 0.63 8.99 0.7 8.93 0.77C8.86 0.85 8.79 0.93 8.74 1.01C8.68 1.09 8.63 1.18 8.58 1.27C8.53 1.36 8.5 1.45 8.46 1.55C8.39 1.76 8.3 1.96 8.19 2.15C8.08 2.34 7.96 2.52 7.81 2.69C7.67 2.86 7.51 3.01 7.34 3.15C7.17 3.28 6.98 3.4 6.79 3.51C6.59 3.62 6.37 3.71 6.15 3.78C5.94 3.85 5.71 3.9 5.48 3.93C5.25 3.97 5.02 3.98 4.79 3.97C4.56 3.96 4.33 3.94 4.11 3.89C4.01 3.87 3.91 3.85 3.81 3.84C3.71 3.83 3.61 3.83 3.51 3.84C3.41 3.84 3.31 3.85 3.21 3.87C3.11 3.89 3.01 3.92 2.91 3.95C2.82 3.98 2.72 4.02 2.63 4.06C2.54 4.11 2.46 4.16 2.37 4.21C2.29 4.27 2.21 4.33 2.13 4.4C2.06 4.47 1.99 4.54 1.92 4.62C1.2 5.48 0.61 6.43 0.16 7.46C0.12 7.55 0.09 7.65 0.06 7.74C0.04 7.84 0.02 7.94 0.01 8.04C0 8.14 -0.01 8.24 0 8.34C0 8.44 0.01 8.54 0.03 8.64C0.05 8.74 0.08 8.84 0.11 8.93C0.15 9.03 0.19 9.12 0.24 9.21C0.28 9.3 0.34 9.38 0.4 9.46C0.46 9.54 0.53 9.61 0.6 9.68C0.75 9.84 0.89 10 1.01 10.18C1.13 10.36 1.23 10.55 1.31 10.74C1.4 10.94 1.46 11.15 1.5 11.36C1.54 11.57 1.57 11.78 1.57 11.99C1.57 12.21 1.54 12.42 1.5 12.63C1.46 12.84 1.4 13.05 1.31 13.25C1.23 13.44 1.13 13.63 1.01 13.81C0.89 13.99 0.75 14.15 0.6 14.31C0.53 14.38 0.46 14.45 0.4 14.53C0.34 14.61 0.28 14.69 0.24 14.78C0.19 14.87 0.15 14.96 0.11 15.06C0.08 15.15 0.05 15.25 0.03 15.35C0.01 15.45 0 15.55 0 15.65C-0.01 15.75 0 15.85 0.01 15.95C0.02 16.05 0.04 16.15 0.06 16.25C0.09 16.34 0.12 16.44 0.16 16.53Z" fill="#2080CB" fill-opacity="1.000000" fill-rule="nonzero"/>
        <path id="path" d="M12 7.16C11.84 7.16 11.68 7.17 11.52 7.18C11.37 7.2 11.21 7.22 11.05 7.25C10.9 7.28 10.74 7.32 10.59 7.37C10.44 7.42 10.29 7.47 10.15 7.53C10 7.59 9.86 7.66 9.72 7.73C9.58 7.81 9.44 7.89 9.31 7.98C9.18 8.06 9.05 8.16 8.93 8.26C8.81 8.36 8.69 8.46 8.58 8.58C8.46 8.69 8.36 8.81 8.26 8.93C8.16 9.05 8.06 9.18 7.97 9.31C7.89 9.44 7.81 9.58 7.73 9.72C7.66 9.86 7.59 10 7.53 10.15C7.47 10.29 7.41 10.44 7.37 10.59C7.32 10.74 7.28 10.9 7.25 11.05C7.22 11.21 7.2 11.36 7.18 11.52C7.17 11.68 7.16 11.84 7.16 12C7.16 12.15 7.17 12.31 7.18 12.47C7.2 12.63 7.22 12.78 7.25 12.94C7.28 13.09 7.32 13.25 7.37 13.4C7.41 13.55 7.47 13.7 7.53 13.85C7.59 13.99 7.65 14.14 7.73 14.28C7.8 14.42 7.89 14.55 7.97 14.68C8.06 14.81 8.16 14.94 8.26 15.06C8.36 15.19 8.46 15.3 8.57 15.42C8.69 15.53 8.8 15.63 8.93 15.73C9.05 15.83 9.18 15.93 9.31 16.02C9.44 16.1 9.57 16.19 9.71 16.26C9.85 16.34 10 16.4 10.14 16.46C10.29 16.52 10.44 16.58 10.59 16.62C10.74 16.67 10.9 16.71 11.05 16.74C11.21 16.77 11.36 16.79 11.52 16.81C11.68 16.82 11.84 16.83 11.99 16.83C12.15 16.83 12.31 16.82 12.47 16.81C12.63 16.79 12.78 16.77 12.94 16.74C13.09 16.71 13.25 16.67 13.4 16.62C13.55 16.58 13.7 16.52 13.85 16.46C13.99 16.4 14.13 16.33 14.27 16.26C14.41 16.19 14.55 16.1 14.68 16.02C14.81 15.93 14.94 15.83 15.06 15.73C15.18 15.63 15.3 15.53 15.41 15.41C15.53 15.3 15.63 15.18 15.73 15.06C15.83 14.94 15.93 14.81 16.02 14.68C16.1 14.55 16.18 14.41 16.26 14.27C16.33 14.13 16.4 13.99 16.46 13.84C16.52 13.7 16.58 13.55 16.62 13.4C16.67 13.25 16.71 13.09 16.74 12.94C16.77 12.78 16.79 12.63 16.81 12.47C16.82 12.31 16.83 12.15 16.83 11.99C16.83 11.84 16.82 11.68 16.81 11.52C16.79 11.36 16.77 11.21 16.74 11.05C16.7 10.9 16.67 10.74 16.62 10.59C16.57 10.44 16.52 10.29 16.46 10.15C16.4 10 16.33 9.86 16.26 9.72C16.18 9.58 16.1 9.44 16.01 9.31C15.93 9.18 15.83 9.05 15.73 8.93C15.63 8.81 15.52 8.69 15.41 8.58C15.3 8.47 15.18 8.36 15.06 8.26C14.94 8.16 14.81 8.07 14.68 7.98C14.55 7.89 14.41 7.81 14.27 7.73C14.13 7.66 13.99 7.59 13.85 7.53C13.7 7.47 13.55 7.42 13.4 7.37C13.25 7.32 13.09 7.29 12.94 7.26C12.78 7.22 12.63 7.2 12.47 7.19C12.31 7.17 12.16 7.16 12 7.16ZM14.88 11.99C14.88 12.09 14.88 12.18 14.87 12.28C14.86 12.37 14.85 12.46 14.83 12.56C14.81 12.65 14.79 12.74 14.76 12.83C14.73 12.92 14.7 13.01 14.67 13.1C14.63 13.19 14.59 13.27 14.54 13.36C14.5 13.44 14.45 13.52 14.4 13.6C14.35 13.68 14.29 13.75 14.23 13.83C14.17 13.9 14.11 13.97 14.04 14.04C13.97 14.1 13.9 14.17 13.83 14.23C13.76 14.29 13.68 14.34 13.6 14.4C13.52 14.45 13.44 14.5 13.36 14.54C13.28 14.59 13.19 14.63 13.1 14.66C13.02 14.7 12.93 14.73 12.84 14.76C12.75 14.79 12.66 14.81 12.56 14.83C12.47 14.85 12.38 14.86 12.28 14.87C12.19 14.88 12.09 14.88 12 14.88C11.9 14.88 11.81 14.88 11.72 14.87C11.62 14.86 11.53 14.85 11.44 14.83C11.34 14.81 11.25 14.79 11.16 14.76C11.07 14.73 10.98 14.7 10.89 14.66C10.81 14.63 10.72 14.59 10.64 14.54C10.55 14.5 10.47 14.45 10.39 14.4C10.32 14.35 10.24 14.29 10.17 14.23C10.09 14.17 10.02 14.11 9.96 14.04C9.89 13.97 9.83 13.9 9.77 13.83C9.71 13.76 9.65 13.68 9.6 13.6C9.54 13.52 9.5 13.44 9.45 13.36C9.41 13.28 9.37 13.19 9.33 13.1C9.29 13.02 9.26 12.93 9.23 12.84C9.21 12.75 9.18 12.65 9.17 12.56C9.15 12.47 9.13 12.37 9.12 12.28C9.11 12.19 9.11 12.09 9.11 12C9.11 11.9 9.11 11.81 9.12 11.71C9.13 11.62 9.15 11.53 9.16 11.43C9.18 11.34 9.21 11.25 9.23 11.16C9.26 11.07 9.29 10.98 9.33 10.89C9.37 10.8 9.41 10.72 9.45 10.64C9.49 10.55 9.54 10.47 9.6 10.39C9.65 10.31 9.7 10.24 9.76 10.17C9.82 10.09 9.89 10.02 9.95 9.95C10.02 9.89 10.09 9.82 10.16 9.76C10.24 9.7 10.31 9.65 10.39 9.6C10.47 9.54 10.55 9.49 10.64 9.45C10.72 9.41 10.8 9.37 10.89 9.33C10.98 9.29 11.07 9.26 11.16 9.23C11.25 9.21 11.34 9.18 11.43 9.16C11.53 9.15 11.62 9.13 11.71 9.12C11.81 9.11 11.9 9.11 12 9.11C12.09 9.11 12.19 9.11 12.28 9.12C12.37 9.13 12.47 9.15 12.56 9.16C12.65 9.18 12.74 9.21 12.83 9.23C12.92 9.26 13.01 9.29 13.1 9.33C13.19 9.37 13.27 9.41 13.36 9.45C13.44 9.49 13.52 9.54 13.6 9.6C13.68 9.65 13.75 9.7 13.83 9.76C13.9 9.82 13.97 9.89 14.04 9.95C14.1 10.02 14.17 10.09 14.23 10.16C14.29 10.24 14.34 10.31 14.4 10.39C14.45 10.47 14.5 10.55 14.54 10.63C14.59 10.72 14.63 10.8 14.66 10.89C14.7 10.98 14.73 11.07 14.76 11.16C14.79 11.25 14.81 11.34 14.83 11.43C14.85 11.52 14.86 11.62 14.87 11.71C14.88 11.8 14.88 11.9 14.88 11.99Z" fill="#FFFFFF" fill-opacity="1.000000" fill-rule="nonzero"/>
    </g>
</svg>
