<svg width="34.391754" height="24.000000" viewBox="0 0 34.3918 24" fill="none" xmlns="http://www.w3.org/2000/svg" xmlns:xlink="http://www.w3.org/1999/xlink">
    <desc>
        Created with Pixso.
    </desc>
    <defs>
        <clipPath id="clip56_14">
            <rect id="铅笔" width="34.391754" height="24.000000" fill="white" fill-opacity="0"/>
        </clipPath>
    </defs>
    <g clip-path="url(#clip56_14)">
        <path id="path" d="M22.78 0.02L6.94 0.02C5.29 0.02 3.94 1.19 3.94 2.63L3.94 13.83L3.95 13.83L4.09 14.12C4.61 15.25 4.8 15.68 7.69 17.39L14.85 20.95L21.43 17.6C21.97 17.29 22.46 17.02 22.9 16.78C24.66 15.82 25.73 15.23 25.77 13.83L25.77 13.83L25.77 2.63C25.78 1.19 24.43 0.02 22.78 0.02ZM11.16 0.42L19.19 0.42L19.19 12.32L14.94 14.42L11.16 12.4L11.16 0.42ZM4.63 14L4.51 13.74L4.51 2.63C4.51 1.41 5.6 0.42 6.94 0.42L10.67 0.42L10.67 12.3L4.68 14.1C4.66 14.07 4.65 14.03 4.63 14ZM22.55 16.46C22.1 16.71 21.61 16.98 21.08 17.29L14.85 20.46L8.05 17.08C5.75 15.71 5.26 15.24 4.86 14.48L10.78 12.7L14.93 14.91L19.41 12.71L24.94 14.74C24.56 15.36 23.77 15.8 22.55 16.46ZM25.2 13.76L25.19 13.76C25.19 13.98 25.17 14.17 25.11 14.35L19.68 12.35L19.68 0.42L22.78 0.42C24.11 0.42 25.2 1.41 25.2 2.63L25.2 13.76L25.2 13.76Z" fill="#000000" fill-opacity="1.000000" fill-rule="nonzero"/>
        <path id="path" d="M19.19 12.32L14.89 14.44L11.71 12.69L11.93 0.43L19.19 0.43L19.19 12.32Z" fill="#000000" fill-opacity="1.000000" fill-rule="nonzero"/>
        <path id="path" d="M5.29 15.15L10.85 13.33L14.44 15.08L14.96 14.86L19.43 12.69L24.95 14.72C24.95 14.72 26.1 15.4 14.85 20.45C14.45 20.63 6.59 16.58 5.29 15.15Z" fill="#E6A72F" fill-opacity="1.000000" fill-rule="nonzero"/>
        <path id="path" d="M10.67 0.43L7.23 0.43C6.16 0.43 5.29 1.21 5.29 2.16L5.29 13.91L10.67 12.31L10.67 0.43Z" fill="#000000" fill-opacity="1.000000" fill-rule="nonzero"/>
        <path id="path" d="M20.63 0.42L23 0.42C23.97 0.42 25.22 1.17 25.22 2.61L25.37 9.9L25.17 14.38L20.63 12.71L20.63 0.42Z" fill="#ADE194" fill-opacity="1.000000" fill-rule="nonzero"/>
    </g>
</svg>
