<svg width="28.000000" height="28.000000" viewBox="0 0 28 28" fill="none" xmlns="http://www.w3.org/2000/svg" xmlns:xlink="http://www.w3.org/1999/xlink">
    <desc>
        Created with Pixso.
    </desc>
    <defs>
        <clipPath id="clip91_33">
            <rect id="通用-进度条-完成" width="28.000000" height="28.000000" fill="white" fill-opacity="0"/>
        </clipPath>
    </defs>
    <g clip-path="url(#clip91_33)">
        <path id="path" d="M1.73 13.98C1.73 14.18 1.74 14.38 1.75 14.59C1.76 14.79 1.77 14.99 1.79 15.18C1.81 15.38 1.83 15.58 1.86 15.78C1.89 15.98 1.93 16.18 1.97 16.37C2.01 16.57 2.05 16.77 2.1 16.96C2.15 17.16 2.2 17.35 2.26 17.54C2.32 17.73 2.38 17.92 2.45 18.11C2.51 18.3 2.59 18.49 2.66 18.67C2.74 18.86 2.82 19.04 2.91 19.22C2.99 19.4 3.08 19.58 3.18 19.76C3.27 19.94 3.37 20.11 3.47 20.28C3.58 20.45 3.68 20.62 3.8 20.79C3.91 20.96 4.02 21.12 4.14 21.28C4.26 21.44 4.38 21.6 4.51 21.76C4.64 21.91 4.77 22.06 4.9 22.21C5.04 22.36 5.18 22.5 5.32 22.65C5.46 22.79 5.61 22.93 5.75 23.06C5.9 23.2 6.06 23.33 6.21 23.45C6.37 23.58 6.52 23.7 6.68 23.82C6.85 23.94 7.01 24.06 7.18 24.17C7.34 24.28 7.51 24.39 7.68 24.49C7.86 24.59 8.03 24.69 8.21 24.79C8.38 24.88 8.56 24.97 8.74 25.06C8.93 25.14 9.11 25.22 9.29 25.3C9.48 25.38 9.67 25.45 9.85 25.52C10.04 25.59 10.23 25.65 10.43 25.71C10.62 25.76 10.81 25.82 11 25.87C11.2 25.92 11.39 25.96 11.59 26C11.79 26.04 11.99 26.07 12.18 26.1C12.38 26.13 12.58 26.16 12.78 26.18C12.98 26.19 13.18 26.21 13.38 26.22C13.58 26.23 13.78 26.23 13.98 26.23C14.18 26.23 14.38 26.23 14.58 26.22C14.78 26.21 14.98 26.19 15.18 26.18C15.38 26.16 15.58 26.13 15.78 26.1C15.98 26.07 16.17 26.04 16.37 26C16.57 25.96 16.76 25.92 16.96 25.87C17.15 25.82 17.35 25.76 17.54 25.71C17.73 25.65 17.92 25.59 18.11 25.52C18.3 25.45 18.48 25.38 18.67 25.3C18.85 25.22 19.04 25.14 19.22 25.06C19.4 24.97 19.58 24.88 19.76 24.79C19.93 24.69 20.11 24.59 20.28 24.49C20.45 24.39 20.62 24.28 20.79 24.17C20.95 24.06 21.12 23.94 21.28 23.82C21.44 23.7 21.6 23.58 21.75 23.45C21.91 23.33 22.06 23.2 22.21 23.06C22.36 22.93 22.5 22.79 22.64 22.65C22.79 22.5 22.92 22.36 23.06 22.21C23.19 22.06 23.32 21.91 23.45 21.76C23.58 21.6 23.7 21.44 23.82 21.28C23.94 21.12 24.06 20.96 24.17 20.79C24.28 20.62 24.39 20.45 24.49 20.28C24.59 20.11 24.69 19.94 24.78 19.76C24.88 19.58 24.97 19.4 25.06 19.22C25.14 19.04 25.22 18.86 25.3 18.67C25.38 18.49 25.45 18.3 25.52 18.11C25.58 17.92 25.65 17.73 25.7 17.54C25.76 17.35 25.82 17.16 25.86 16.96C25.91 16.77 25.96 16.57 26 16.37C26.04 16.18 26.07 15.98 26.1 15.78C26.13 15.58 26.15 15.38 26.17 15.18C26.19 14.99 26.21 14.79 26.22 14.59C26.23 14.38 26.23 14.18 26.23 13.98C26.23 13.78 26.23 13.58 26.22 13.38C26.21 13.18 26.19 12.98 26.17 12.78C26.15 12.58 26.13 12.38 26.1 12.19C26.07 11.99 26.04 11.79 26 11.59C25.96 11.4 25.91 11.2 25.86 11.01C25.82 10.81 25.76 10.62 25.7 10.43C25.65 10.24 25.58 10.05 25.52 9.86C25.45 9.67 25.38 9.48 25.3 9.3C25.22 9.11 25.14 8.93 25.06 8.75C24.97 8.57 24.88 8.39 24.78 8.21C24.69 8.03 24.59 7.86 24.49 7.69C24.39 7.51 24.28 7.35 24.17 7.18C24.06 7.01 23.94 6.85 23.82 6.69C23.7 6.53 23.58 6.37 23.45 6.21C23.32 6.06 23.19 5.91 23.06 5.76C22.92 5.61 22.79 5.46 22.64 5.32C22.5 5.18 22.36 5.04 22.21 4.91C22.06 4.77 21.91 4.64 21.75 4.51C21.6 4.39 21.44 4.26 21.28 4.14C21.12 4.03 20.95 3.91 20.79 3.8C20.62 3.69 20.45 3.58 20.28 3.48C20.11 3.37 19.93 3.28 19.76 3.18C19.58 3.09 19.4 3 19.22 2.91C19.04 2.82 18.85 2.74 18.67 2.67C18.48 2.59 18.3 2.52 18.11 2.45C17.92 2.38 17.73 2.32 17.54 2.26C17.35 2.2 17.15 2.15 16.96 2.1C16.76 2.05 16.57 2.01 16.37 1.97C16.17 1.93 15.98 1.9 15.78 1.87C15.58 1.84 15.38 1.81 15.18 1.79C14.98 1.77 14.78 1.76 14.58 1.75C14.38 1.74 14.18 1.73 13.98 1.73C13.78 1.73 13.58 1.74 13.38 1.75C13.18 1.76 12.98 1.77 12.78 1.79C12.58 1.81 12.38 1.84 12.18 1.87C11.99 1.9 11.79 1.93 11.59 1.97C11.39 2.01 11.2 2.05 11 2.1C10.81 2.15 10.62 2.2 10.43 2.26C10.23 2.32 10.04 2.38 9.85 2.45C9.67 2.52 9.48 2.59 9.29 2.67C9.11 2.74 8.93 2.82 8.74 2.91C8.56 3 8.38 3.09 8.21 3.18C8.03 3.28 7.86 3.37 7.68 3.48C7.51 3.58 7.34 3.69 7.18 3.8C7.01 3.91 6.85 4.03 6.68 4.14C6.52 4.26 6.37 4.39 6.21 4.51C6.06 4.64 5.9 4.77 5.75 4.91C5.61 5.04 5.46 5.18 5.32 5.32C5.18 5.46 5.04 5.61 4.9 5.76C4.77 5.91 4.64 6.06 4.51 6.21C4.38 6.37 4.26 6.53 4.14 6.69C4.02 6.85 3.91 7.01 3.8 7.18C3.68 7.35 3.58 7.51 3.47 7.69C3.37 7.86 3.27 8.03 3.18 8.21C3.08 8.39 2.99 8.57 2.91 8.75C2.82 8.93 2.74 9.11 2.66 9.3C2.59 9.48 2.51 9.67 2.45 9.86C2.38 10.05 2.32 10.24 2.26 10.43C2.2 10.62 2.15 10.81 2.1 11.01C2.05 11.2 2.01 11.4 1.97 11.59C1.93 11.79 1.89 11.99 1.86 12.19C1.83 12.38 1.81 12.58 1.79 12.78C1.77 12.98 1.76 13.18 1.75 13.38C1.74 13.58 1.73 13.78 1.73 13.98Z" fill="#F8B62D" fill-opacity="1.000000" fill-rule="nonzero"/>
        <path id="path" d="M12.17 19.77C11.82 19.77 11.47 19.63 11.2 19.37L7.59 15.75C7.06 15.22 7.06 14.35 7.59 13.82C8.12 13.28 8.99 13.28 9.52 13.82L12.17 16.47L18.44 10.2C18.97 9.67 19.84 9.67 20.37 10.2C20.9 10.74 20.9 11.6 20.37 12.14L13.14 19.37C12.87 19.63 12.52 19.77 12.17 19.77Z" fill="#FFFFFF" fill-opacity="1.000000" fill-rule="nonzero"/>
    </g>
</svg>
