<svg width="48.000000" height="48.000000" viewBox="0 0 48 48" fill="none" xmlns="http://www.w3.org/2000/svg" xmlns:xlink="http://www.w3.org/1999/xlink">
    <desc>
        Created with Pixso.
    </desc>
    <defs>
        <clipPath id="clip211_1">
            <rect id="关闭" width="48.000000" height="48.000000" fill="white" fill-opacity="0"/>
        </clipPath>
    </defs>
    <g clip-path="url(#clip211_1)">
        <path id="path" d="M0 24C0 24.39 0 24.78 0.02 25.17C0.04 25.56 0.07 25.96 0.11 26.35C0.15 26.74 0.2 27.13 0.25 27.52C0.31 27.91 0.38 28.29 0.46 28.68C0.53 29.06 0.62 29.45 0.71 29.83C0.81 30.21 0.91 30.59 1.03 30.96C1.14 31.34 1.27 31.71 1.4 32.08C1.53 32.45 1.67 32.82 1.82 33.18C1.97 33.54 2.13 33.9 2.3 34.26C2.47 34.61 2.64 34.96 2.83 35.31C3.01 35.65 3.21 36 3.41 36.33C3.61 36.67 3.82 37 4.04 37.33C4.26 37.66 4.48 37.98 4.72 38.29C4.95 38.61 5.19 38.92 5.44 39.22C5.69 39.52 5.95 39.82 6.21 40.11C6.48 40.4 6.75 40.69 7.02 40.97C7.3 41.24 7.59 41.51 7.88 41.78C8.17 42.04 8.47 42.3 8.77 42.55C9.07 42.8 9.38 43.04 9.7 43.27C10.01 43.51 10.33 43.73 10.66 43.95C10.99 44.17 11.32 44.38 11.66 44.58C11.99 44.78 12.34 44.98 12.68 45.16C13.03 45.35 13.38 45.52 13.73 45.69C14.09 45.86 14.45 46.02 14.81 46.17C15.17 46.32 15.54 46.46 15.91 46.59C16.28 46.72 16.65 46.85 17.03 46.96C17.4 47.08 17.78 47.18 18.16 47.28C18.54 47.37 18.93 47.46 19.31 47.53C19.7 47.61 20.08 47.68 20.47 47.74C20.86 47.79 21.25 47.84 21.64 47.88C22.03 47.92 22.43 47.95 22.82 47.97C23.21 47.99 23.6 48 24 48C24.39 48 24.78 47.99 25.17 47.97C25.56 47.95 25.96 47.92 26.35 47.88C26.74 47.84 27.13 47.79 27.52 47.74C27.91 47.68 28.29 47.61 28.68 47.53C29.06 47.46 29.45 47.37 29.83 47.28C30.21 47.18 30.59 47.08 30.96 46.96C31.34 46.85 31.71 46.72 32.08 46.59C32.45 46.46 32.82 46.32 33.18 46.17C33.54 46.02 33.9 45.86 34.26 45.69C34.61 45.52 34.96 45.35 35.31 45.16C35.65 44.98 36 44.78 36.33 44.58C36.67 44.38 37 44.17 37.33 43.95C37.66 43.73 37.98 43.51 38.29 43.27C38.61 43.04 38.92 42.8 39.22 42.55C39.52 42.3 39.82 42.04 40.11 41.78C40.4 41.51 40.69 41.24 40.97 40.97C41.24 40.69 41.51 40.4 41.78 40.11C42.04 39.82 42.3 39.52 42.55 39.22C42.8 38.92 43.04 38.61 43.27 38.29C43.51 37.98 43.73 37.66 43.95 37.33C44.17 37 44.38 36.67 44.58 36.33C44.78 36 44.98 35.65 45.16 35.31C45.35 34.96 45.52 34.61 45.69 34.26C45.86 33.9 46.02 33.54 46.17 33.18C46.32 32.82 46.46 32.45 46.59 32.08C46.72 31.71 46.85 31.34 46.96 30.96C47.08 30.59 47.18 30.21 47.28 29.83C47.37 29.45 47.46 29.06 47.53 28.68C47.61 28.29 47.68 27.91 47.74 27.52C47.79 27.13 47.84 26.74 47.88 26.35C47.92 25.96 47.95 25.56 47.97 25.17C47.99 24.78 48 24.39 48 24C48 23.6 47.99 23.21 47.97 22.82C47.95 22.43 47.92 22.03 47.88 21.64C47.84 21.25 47.79 20.86 47.74 20.47C47.68 20.09 47.61 19.7 47.53 19.31C47.46 18.93 47.37 18.54 47.28 18.16C47.18 17.78 47.08 17.4 46.96 17.03C46.85 16.65 46.72 16.28 46.59 15.91C46.46 15.54 46.32 15.17 46.17 14.81C46.02 14.45 45.86 14.09 45.69 13.73C45.52 13.38 45.35 13.03 45.16 12.68C44.98 12.34 44.78 11.99 44.58 11.66C44.38 11.32 44.17 10.99 43.95 10.66C43.73 10.33 43.51 10.01 43.27 9.7C43.04 9.38 42.8 9.07 42.55 8.77C42.3 8.47 42.04 8.17 41.78 7.88C41.51 7.59 41.24 7.3 40.97 7.02C40.69 6.75 40.4 6.48 40.11 6.21C39.82 5.95 39.52 5.69 39.22 5.44C38.92 5.19 38.61 4.95 38.29 4.72C37.98 4.48 37.66 4.26 37.33 4.04C37 3.82 36.67 3.61 36.33 3.41C36 3.21 35.65 3.01 35.31 2.83C34.96 2.64 34.61 2.47 34.26 2.3C33.9 2.13 33.54 1.97 33.18 1.82C32.82 1.67 32.45 1.53 32.08 1.4C31.71 1.27 31.34 1.14 30.96 1.03C30.59 0.91 30.21 0.81 29.83 0.71C29.45 0.62 29.06 0.53 28.68 0.46C28.29 0.38 27.91 0.31 27.52 0.25C27.13 0.2 26.74 0.15 26.35 0.11C25.96 0.07 25.56 0.04 25.17 0.02C24.78 0 24.39 0 24 0C23.6 0 23.21 0 22.82 0.02C22.43 0.04 22.03 0.07 21.64 0.11C21.25 0.15 20.86 0.2 20.47 0.25C20.08 0.31 19.7 0.38 19.31 0.46C18.93 0.53 18.54 0.62 18.16 0.71C17.78 0.81 17.4 0.91 17.03 1.03C16.65 1.14 16.28 1.27 15.91 1.4C15.54 1.53 15.17 1.67 14.81 1.82C14.45 1.97 14.09 2.13 13.73 2.3C13.38 2.47 13.03 2.64 12.68 2.83C12.34 3.01 11.99 3.21 11.66 3.41C11.32 3.61 10.99 3.82 10.66 4.04C10.33 4.26 10.01 4.48 9.7 4.72C9.38 4.95 9.07 5.19 8.77 5.44C8.47 5.69 8.17 5.95 7.88 6.21C7.59 6.48 7.3 6.75 7.02 7.02C6.75 7.3 6.48 7.59 6.21 7.88C5.95 8.17 5.69 8.47 5.44 8.77C5.19 9.07 4.95 9.38 4.72 9.7C4.48 10.01 4.26 10.33 4.04 10.66C3.82 10.99 3.61 11.32 3.41 11.66C3.21 11.99 3.01 12.34 2.83 12.68C2.64 13.03 2.47 13.38 2.3 13.73C2.13 14.09 1.97 14.45 1.82 14.81C1.67 15.17 1.53 15.54 1.4 15.91C1.27 16.28 1.14 16.65 1.03 17.03C0.91 17.4 0.81 17.78 0.71 18.16C0.62 18.54 0.53 18.93 0.46 19.31C0.38 19.7 0.31 20.09 0.25 20.47C0.2 20.86 0.15 21.25 0.11 21.64C0.07 22.03 0.04 22.43 0.02 22.82C0 23.21 0 23.6 0 24Z" fill="#57BFB5" fill-opacity="1.000000" fill-rule="nonzero"/>
        <path id="path" d="M42.14 10.2L19.28 33.05C19.2 33.13 19.12 33.21 19.05 33.29C18.98 33.38 18.91 33.47 18.84 33.56C18.78 33.66 18.72 33.75 18.67 33.85C18.61 33.95 18.56 34.06 18.52 34.16C18.47 34.26 18.43 34.37 18.4 34.48C18.36 34.59 18.33 34.7 18.31 34.81C18.29 34.92 18.27 35.03 18.26 35.14C18.25 35.26 18.24 35.37 18.24 35.48C18.24 35.6 18.24 35.71 18.25 35.82C18.26 35.94 18.28 36.05 18.3 36.16C18.32 36.27 18.35 36.38 18.38 36.49C18.41 36.6 18.45 36.71 18.49 36.81C18.54 36.92 18.58 37.02 18.64 37.12C18.69 37.22 18.75 37.32 18.81 37.41C18.87 37.51 18.94 37.6 19.01 37.68C19.09 37.77 19.16 37.86 19.24 37.94C19.32 38.02 19.41 38.09 19.49 38.17C19.58 38.24 19.67 38.3 19.77 38.37C19.86 38.43 19.96 38.49 20.06 38.54C20.16 38.59 20.26 38.64 20.37 38.69C20.47 38.73 20.58 38.77 20.69 38.8C20.8 38.83 20.91 38.86 21.02 38.88C21.13 38.9 21.24 38.92 21.36 38.93C21.47 38.94 21.58 38.94 21.7 38.94C21.81 38.94 21.92 38.93 22.04 38.92C22.15 38.91 22.26 38.89 22.37 38.87C22.48 38.84 22.59 38.82 22.7 38.78C22.81 38.75 22.91 38.71 23.02 38.66C23.12 38.62 23.23 38.57 23.32 38.51C23.42 38.46 23.52 38.4 23.61 38.33C23.71 38.27 23.8 38.2 23.88 38.13C23.97 38.05 24.05 37.98 24.13 37.89L46.99 15.04C47.07 14.96 47.14 14.88 47.21 14.79C47.28 14.7 47.34 14.61 47.4 14.52C47.46 14.43 47.52 14.33 47.57 14.23C47.62 14.13 47.67 14.03 47.71 13.93C47.75 13.83 47.79 13.72 47.82 13.61C47.85 13.51 47.87 13.4 47.89 13.29C47.91 13.18 47.93 13.07 47.94 12.96C47.95 12.85 47.95 12.74 47.95 12.63C47.95 12.52 47.95 12.41 47.93 12.3C47.92 12.19 47.9 12.08 47.88 11.97C47.86 11.86 47.83 11.75 47.8 11.64C47.77 11.54 47.73 11.43 47.69 11.33C47.64 11.23 47.6 11.13 47.54 11.03C47.49 10.93 47.43 10.84 47.37 10.75C47.31 10.65 47.24 10.57 47.17 10.48C47.1 10.39 47.03 10.31 46.95 10.23C46.87 10.15 46.79 10.08 46.7 10.01C46.62 9.94 46.53 9.87 46.44 9.81C46.34 9.75 46.25 9.69 46.15 9.64C46.05 9.59 45.95 9.54 45.85 9.5C45.75 9.45 45.64 9.42 45.54 9.38C45.43 9.35 45.32 9.32 45.22 9.3C45.11 9.28 45 9.26 44.89 9.25C44.78 9.24 44.67 9.23 44.55 9.23C44.44 9.23 44.33 9.23 44.22 9.24C44.11 9.25 44 9.27 43.89 9.29C43.78 9.31 43.67 9.33 43.57 9.37C43.46 9.4 43.36 9.43 43.25 9.47C43.15 9.51 43.05 9.56 42.95 9.61C42.85 9.66 42.76 9.72 42.66 9.78C42.57 9.84 42.48 9.9 42.39 9.97C42.31 10.04 42.22 10.12 42.14 10.2Z" fill="#394648" fill-opacity="1.000000" fill-rule="nonzero"/>
        <path id="path" d="M24.13 10.2L46.99 33.05C47.07 33.13 47.15 33.21 47.22 33.3C47.3 33.38 47.37 33.47 47.43 33.57C47.49 33.66 47.55 33.76 47.61 33.86C47.66 33.96 47.71 34.06 47.76 34.16C47.8 34.27 47.84 34.37 47.88 34.48C47.91 34.59 47.94 34.7 47.96 34.81C47.99 34.92 48.01 35.03 48.02 35.15C48.03 35.26 48.04 35.37 48.04 35.49C48.04 35.6 48.03 35.71 48.02 35.83C48.01 35.94 48 36.05 47.98 36.16C47.95 36.27 47.93 36.38 47.89 36.49C47.86 36.6 47.82 36.71 47.78 36.81C47.74 36.92 47.69 37.02 47.64 37.12C47.58 37.22 47.53 37.32 47.46 37.41C47.4 37.51 47.33 37.6 47.26 37.69C47.19 37.78 47.11 37.86 47.03 37.94C46.95 38.02 46.87 38.1 46.78 38.17C46.69 38.24 46.6 38.31 46.51 38.37C46.41 38.43 46.32 38.49 46.21 38.55C46.11 38.6 46.01 38.65 45.91 38.69C45.8 38.73 45.69 38.77 45.59 38.8C45.48 38.83 45.37 38.86 45.26 38.88C45.14 38.9 45.03 38.92 44.92 38.93C44.81 38.94 44.69 38.95 44.58 38.94C44.47 38.94 44.35 38.94 44.24 38.92C44.13 38.91 44.01 38.89 43.9 38.87C43.79 38.85 43.68 38.82 43.57 38.78C43.47 38.75 43.36 38.71 43.26 38.67C43.15 38.62 43.05 38.57 42.95 38.52C42.85 38.46 42.75 38.4 42.66 38.34C42.57 38.27 42.48 38.2 42.39 38.13C42.3 38.06 42.22 37.98 42.14 37.9L19.28 15.05C19.2 14.97 19.13 14.88 19.06 14.8C18.99 14.71 18.92 14.62 18.86 14.53C18.8 14.43 18.74 14.34 18.68 14.24C18.63 14.14 18.58 14.04 18.54 13.93C18.5 13.83 18.46 13.72 18.43 13.62C18.4 13.51 18.37 13.4 18.35 13.29C18.32 13.18 18.31 13.07 18.3 12.96C18.29 12.85 18.28 12.73 18.28 12.62C18.28 12.51 18.29 12.4 18.3 12.29C18.31 12.17 18.32 12.06 18.35 11.95C18.37 11.84 18.4 11.73 18.43 11.63C18.46 11.52 18.5 11.41 18.54 11.31C18.58 11.21 18.63 11.11 18.68 11.01C18.74 10.91 18.8 10.81 18.86 10.72C18.92 10.62 18.99 10.53 19.06 10.45C19.13 10.36 19.2 10.28 19.28 10.2C19.36 10.12 19.45 10.04 19.53 9.97C19.62 9.9 19.71 9.83 19.8 9.77C19.9 9.71 19.99 9.65 20.09 9.6C20.19 9.55 20.29 9.5 20.4 9.45C20.5 9.41 20.6 9.37 20.71 9.34C20.82 9.31 20.93 9.28 21.04 9.26C21.15 9.24 21.26 9.22 21.37 9.21C21.48 9.2 21.6 9.19 21.71 9.19C21.82 9.19 21.93 9.2 22.04 9.21C22.16 9.22 22.27 9.24 22.38 9.26C22.49 9.28 22.6 9.31 22.7 9.34C22.81 9.37 22.92 9.41 23.02 9.45C23.12 9.5 23.22 9.54 23.32 9.6C23.42 9.65 23.52 9.71 23.61 9.77C23.71 9.83 23.8 9.9 23.88 9.97C23.97 10.04 24.05 10.12 24.13 10.2Z" fill="#394648" fill-opacity="1.000000" fill-rule="nonzero"/>
    </g>
</svg>
