<svg width="16.000000" height="16.000000" viewBox="0 0 16 16" fill="none" xmlns="http://www.w3.org/2000/svg" xmlns:xlink="http://www.w3.org/1999/xlink">
    <desc>
        Created with Pixso.
    </desc>
    <defs>
        <clipPath id="clip171_28">
            <rect id="难过-1" width="16.000000" height="16.000000" fill="white" fill-opacity="0"/>
        </clipPath>
    </defs>
    <g clip-path="url(#clip171_28)">
        <path id="path" d="M0.31 8C0.31 8.12 0.31 8.25 0.32 8.37C0.32 8.5 0.33 8.62 0.34 8.75C0.36 8.87 0.37 9 0.39 9.12C0.41 9.25 0.43 9.37 0.46 9.49C0.48 9.62 0.51 9.74 0.54 9.86C0.57 9.98 0.6 10.11 0.64 10.23C0.68 10.35 0.71 10.47 0.76 10.58C0.8 10.7 0.84 10.82 0.89 10.94C0.94 11.05 0.99 11.17 1.05 11.28C1.1 11.4 1.16 11.51 1.22 11.62C1.27 11.73 1.34 11.84 1.4 11.95C1.47 12.06 1.53 12.16 1.6 12.27C1.67 12.37 1.75 12.47 1.82 12.57C1.9 12.68 1.97 12.77 2.05 12.87C2.13 12.97 2.21 13.06 2.3 13.16C2.38 13.25 2.47 13.34 2.56 13.43C2.65 13.52 2.74 13.61 2.83 13.69C2.93 13.78 3.02 13.86 3.12 13.94C3.22 14.02 3.31 14.09 3.42 14.17C3.52 14.24 3.62 14.32 3.72 14.39C3.83 14.46 3.94 14.52 4.04 14.59C4.15 14.65 4.26 14.72 4.37 14.77C4.48 14.83 4.59 14.89 4.71 14.94C4.82 15 4.94 15.05 5.05 15.1C5.17 15.15 5.29 15.19 5.41 15.23C5.52 15.28 5.64 15.31 5.76 15.35C5.88 15.39 6.01 15.42 6.13 15.45C6.25 15.48 6.37 15.51 6.5 15.53C6.62 15.56 6.74 15.58 6.87 15.6C6.99 15.62 7.12 15.63 7.24 15.65C7.37 15.66 7.49 15.67 7.62 15.67C7.74 15.68 7.87 15.68 8 15.68C8.12 15.68 8.25 15.68 8.37 15.67C8.5 15.67 8.62 15.66 8.75 15.65C8.87 15.63 9 15.62 9.12 15.6C9.25 15.58 9.37 15.56 9.49 15.53C9.62 15.51 9.74 15.48 9.86 15.45C9.98 15.42 10.11 15.39 10.23 15.35C10.35 15.31 10.47 15.28 10.58 15.23C10.7 15.19 10.82 15.15 10.94 15.1C11.05 15.05 11.17 15 11.28 14.94C11.4 14.89 11.51 14.83 11.62 14.77C11.73 14.72 11.84 14.65 11.95 14.59C12.06 14.52 12.16 14.46 12.27 14.39C12.37 14.32 12.47 14.24 12.57 14.17C12.68 14.09 12.77 14.02 12.87 13.94C12.97 13.86 13.06 13.78 13.16 13.69C13.25 13.61 13.34 13.52 13.43 13.43C13.52 13.34 13.61 13.25 13.69 13.16C13.78 13.06 13.86 12.97 13.94 12.87C14.02 12.77 14.09 12.68 14.17 12.57C14.24 12.47 14.32 12.37 14.39 12.27C14.46 12.16 14.52 12.06 14.59 11.95C14.65 11.84 14.72 11.73 14.77 11.62C14.83 11.51 14.89 11.4 14.94 11.28C15 11.17 15.05 11.05 15.1 10.94C15.15 10.82 15.19 10.7 15.23 10.58C15.28 10.47 15.31 10.35 15.35 10.23C15.39 10.11 15.42 9.98 15.45 9.86C15.48 9.74 15.51 9.62 15.53 9.49C15.56 9.37 15.58 9.25 15.6 9.12C15.62 9 15.63 8.87 15.65 8.75C15.66 8.62 15.67 8.5 15.67 8.37C15.68 8.25 15.68 8.12 15.68 8C15.68 7.87 15.68 7.74 15.67 7.62C15.67 7.49 15.66 7.37 15.65 7.24C15.63 7.12 15.62 6.99 15.6 6.87C15.58 6.74 15.56 6.62 15.53 6.5C15.51 6.37 15.48 6.25 15.45 6.13C15.42 6.01 15.39 5.88 15.35 5.76C15.31 5.64 15.28 5.52 15.23 5.41C15.19 5.29 15.15 5.17 15.1 5.05C15.05 4.94 15 4.82 14.94 4.71C14.89 4.59 14.83 4.48 14.77 4.37C14.72 4.26 14.65 4.15 14.59 4.04C14.52 3.94 14.46 3.83 14.39 3.72C14.32 3.62 14.24 3.52 14.17 3.42C14.09 3.31 14.02 3.22 13.94 3.12C13.86 3.02 13.78 2.93 13.69 2.83C13.61 2.74 13.52 2.65 13.43 2.56C13.34 2.47 13.25 2.38 13.16 2.3C13.06 2.21 12.97 2.13 12.87 2.05C12.77 1.97 12.68 1.9 12.57 1.82C12.47 1.75 12.37 1.67 12.27 1.6C12.16 1.53 12.06 1.47 11.95 1.4C11.84 1.34 11.73 1.27 11.62 1.22C11.51 1.16 11.4 1.1 11.28 1.05C11.17 0.99 11.05 0.94 10.94 0.89C10.82 0.84 10.7 0.8 10.58 0.76C10.47 0.71 10.35 0.68 10.23 0.64C10.11 0.6 9.98 0.57 9.86 0.54C9.74 0.51 9.62 0.48 9.49 0.46C9.37 0.43 9.25 0.41 9.12 0.39C9 0.37 8.87 0.36 8.75 0.34C8.62 0.33 8.5 0.32 8.37 0.32C8.25 0.31 8.12 0.31 8 0.31C7.87 0.31 7.74 0.31 7.62 0.32C7.49 0.32 7.37 0.33 7.24 0.34C7.12 0.36 6.99 0.37 6.87 0.39C6.74 0.41 6.62 0.43 6.5 0.46C6.37 0.48 6.25 0.51 6.13 0.54C6.01 0.57 5.88 0.6 5.76 0.64C5.64 0.68 5.52 0.71 5.41 0.76C5.29 0.8 5.17 0.84 5.05 0.89C4.94 0.94 4.82 0.99 4.71 1.05C4.59 1.1 4.48 1.16 4.37 1.22C4.26 1.27 4.15 1.34 4.04 1.4C3.94 1.47 3.83 1.53 3.72 1.6C3.62 1.67 3.52 1.75 3.42 1.82C3.31 1.9 3.22 1.97 3.12 2.05C3.02 2.13 2.93 2.21 2.83 2.3C2.74 2.38 2.65 2.47 2.56 2.56C2.47 2.65 2.38 2.74 2.3 2.83C2.21 2.93 2.13 3.02 2.05 3.12C1.97 3.22 1.9 3.31 1.82 3.42C1.75 3.52 1.67 3.62 1.6 3.72C1.53 3.83 1.47 3.94 1.4 4.04C1.34 4.15 1.27 4.26 1.22 4.37C1.16 4.48 1.1 4.59 1.05 4.71C0.99 4.82 0.94 4.94 0.89 5.05C0.84 5.17 0.8 5.29 0.76 5.41C0.71 5.52 0.68 5.64 0.64 5.76C0.6 5.88 0.57 6.01 0.54 6.13C0.51 6.25 0.48 6.37 0.46 6.5C0.43 6.62 0.41 6.74 0.39 6.87C0.37 6.99 0.36 7.12 0.34 7.24C0.33 7.37 0.32 7.49 0.32 7.62C0.31 7.74 0.31 7.87 0.31 8Z" fill="#FDDF6D" fill-opacity="1.000000" fill-rule="nonzero"/>
        <path id="path" d="M9.64 14.55C5.4 14.55 1.96 11.11 1.96 6.86C1.96 4.59 2.94 2.55 4.5 1.15C2.01 2.42 0.31 5.01 0.31 7.99C0.31 12.24 3.75 15.68 8 15.68C9.97 15.68 11.78 14.94 13.14 13.71C12.09 14.24 10.9 14.55 9.64 14.55Z" fill="#FCC56B" fill-opacity="1.000000" fill-rule="nonzero"/>
        <path id="path" d="M11.49 13.03L7.76 13.03C7.59 13.03 7.45 12.89 7.45 12.72C7.45 12.55 7.59 12.41 7.76 12.41L11.49 12.41C11.67 12.41 11.81 12.55 11.81 12.72C11.81 12.89 11.67 13.03 11.49 13.03ZM6.9 9.82C6.14 9.82 5.46 9.62 5.07 9.29C4.93 9.18 4.92 8.99 5.03 8.85C5.14 8.72 5.33 8.7 5.47 8.81C5.74 9.04 6.3 9.19 6.9 9.19C7.49 9.19 8.06 9.04 8.36 8.81C8.5 8.7 8.69 8.73 8.8 8.86C8.91 9 8.88 9.2 8.74 9.3C8.33 9.62 7.64 9.82 6.9 9.82ZM12.33 9.82C11.57 9.82 10.88 9.62 10.49 9.29C10.36 9.18 10.34 8.99 10.45 8.85C10.56 8.72 10.76 8.7 10.89 8.81C11.16 9.04 11.73 9.19 12.33 9.19C12.91 9.19 13.49 9.04 13.79 8.81C13.92 8.7 14.12 8.73 14.22 8.86C14.33 9 14.31 9.2 14.17 9.3C13.75 9.62 13.07 9.82 12.33 9.82ZM5.42 8.21C5.31 8.21 5.2 8.2 5.1 8.18C4.94 8.13 4.84 7.96 4.88 7.79C4.93 7.62 5.1 7.53 5.27 7.57C5.42 7.62 5.74 7.59 6.1 7.42C6.45 7.26 6.69 7.04 6.77 6.88C6.85 6.73 7.04 6.67 7.19 6.75C7.34 6.83 7.4 7.02 7.32 7.18C7.16 7.49 6.8 7.79 6.36 7.99C6.03 8.14 5.7 8.21 5.42 8.21ZM13.73 8.21C13.45 8.21 13.12 8.14 12.8 7.99C12.36 7.79 11.99 7.49 11.83 7.18C11.75 7.02 11.81 6.83 11.96 6.75C12.11 6.67 12.3 6.73 12.38 6.88C12.46 7.04 12.7 7.26 13.05 7.42C13.41 7.59 13.73 7.62 13.88 7.57C14.05 7.53 14.22 7.62 14.27 7.79C14.31 7.96 14.22 8.13 14.05 8.18C13.95 8.2 13.85 8.21 13.73 8.21Z" fill="#7F184C" fill-opacity="1.000000" fill-rule="nonzero"/>
        <path id="path" d="M11.11 0.62C10.95 0.56 10.76 0.63 10.7 0.79C10.63 0.95 10.7 1.13 10.86 1.2C13.6 2.36 15.37 5.02 15.37 7.99C15.37 12.06 12.06 15.37 8 15.37C3.93 15.37 0.62 12.06 0.62 7.99C0.62 3.93 3.93 0.62 8 0.62C8.17 0.62 8.31 0.48 8.31 0.31C8.31 0.13 8.17 0 8 0C3.58 0 3.05e-5 3.58 3.05e-5 7.99C3.05e-5 12.41 3.58 16 8 16C12.41 16 16 12.41 16 8C16 4.77 14.08 1.88 11.11 0.62Z" fill="#000000" fill-opacity="1.000000" fill-rule="nonzero"/>
        <path id="path" d="M7.76 12.41C7.59 12.41 7.45 12.55 7.45 12.72C7.45 12.89 7.59 13.03 7.76 13.03L11.49 13.03C11.67 13.03 11.81 12.89 11.81 12.72C11.81 12.55 11.67 12.41 11.49 12.41L7.76 12.41ZM5.47 8.81C5.33 8.7 5.14 8.72 5.03 8.85C4.92 8.99 4.93 9.18 5.07 9.29C5.46 9.62 6.14 9.82 6.9 9.82C7.64 9.82 8.33 9.62 8.74 9.3C8.88 9.2 8.91 9 8.8 8.86C8.69 8.73 8.5 8.7 8.36 8.81C8.06 9.04 7.49 9.19 6.9 9.19C6.3 9.19 5.74 9.04 5.47 8.81ZM10.49 9.29C10.88 9.62 11.57 9.82 12.33 9.82C13.07 9.82 13.75 9.62 14.17 9.3C14.31 9.2 14.33 9 14.22 8.86C14.12 8.73 13.92 8.7 13.79 8.81C13.49 9.04 12.91 9.19 12.33 9.19C11.73 9.19 11.16 9.04 10.89 8.81C10.76 8.7 10.56 8.72 10.45 8.85C10.34 8.99 10.36 9.18 10.49 9.29ZM5.42 8.22C5.7 8.22 6.03 8.14 6.36 7.99C6.8 7.79 7.16 7.49 7.32 7.18C7.4 7.02 7.34 6.83 7.19 6.75C7.04 6.67 6.85 6.73 6.77 6.89C6.69 7.04 6.45 7.26 6.1 7.42C5.74 7.59 5.42 7.62 5.27 7.57C5.1 7.53 4.93 7.62 4.88 7.79C4.84 7.96 4.94 8.13 5.1 8.18C5.2 8.2 5.31 8.22 5.42 8.22ZM12.8 7.99C13.12 8.14 13.45 8.22 13.73 8.22C13.85 8.22 13.95 8.2 14.05 8.18C14.22 8.13 14.31 7.96 14.27 7.79C14.26 7.77 14.26 7.75 14.25 7.73C14.24 7.71 14.23 7.7 14.21 7.68C14.2 7.67 14.19 7.65 14.17 7.64C14.16 7.62 14.14 7.61 14.12 7.6C14.1 7.59 14.08 7.58 14.06 7.58C14.05 7.57 14.03 7.57 14 7.56C13.98 7.56 13.96 7.56 13.94 7.56C13.92 7.56 13.9 7.57 13.88 7.57C13.73 7.61 13.41 7.59 13.05 7.42C12.7 7.26 12.46 7.04 12.38 6.89C12.3 6.73 12.11 6.67 11.96 6.75C11.81 6.83 11.75 7.02 11.83 7.18C11.99 7.49 12.36 7.79 12.8 7.99Z" fill="#000000" fill-opacity="1.000000" fill-rule="nonzero"/>
        <path id="path" d="M9.65 0.58C9.65 0.6 9.66 0.62 9.66 0.64C9.66 0.66 9.67 0.68 9.68 0.7C9.69 0.72 9.7 0.74 9.71 0.76C9.72 0.77 9.73 0.79 9.75 0.8C9.76 0.82 9.78 0.83 9.79 0.84C9.81 0.86 9.83 0.86 9.85 0.87C9.87 0.88 9.89 0.89 9.91 0.89C9.93 0.89 9.95 0.9 9.97 0.9C9.99 0.9 10.01 0.89 10.03 0.89C10.05 0.89 10.07 0.88 10.09 0.87C10.11 0.86 10.12 0.86 10.14 0.84C10.16 0.83 10.17 0.82 10.19 0.8C10.2 0.79 10.22 0.77 10.23 0.76C10.24 0.74 10.25 0.72 10.26 0.7C10.26 0.68 10.27 0.66 10.27 0.64C10.28 0.62 10.28 0.6 10.28 0.58C10.28 0.56 10.28 0.54 10.27 0.52C10.27 0.5 10.26 0.48 10.26 0.46C10.25 0.45 10.24 0.43 10.23 0.41C10.22 0.39 10.2 0.38 10.19 0.36C10.17 0.35 10.16 0.34 10.14 0.32C10.12 0.31 10.11 0.3 10.09 0.29C10.07 0.29 10.05 0.28 10.03 0.28C10.01 0.27 9.99 0.27 9.97 0.27C9.95 0.27 9.93 0.27 9.91 0.28C9.89 0.28 9.87 0.29 9.85 0.29C9.83 0.3 9.81 0.31 9.79 0.32C9.78 0.34 9.76 0.35 9.75 0.36C9.73 0.38 9.72 0.39 9.71 0.41C9.7 0.43 9.69 0.45 9.68 0.46C9.67 0.48 9.66 0.5 9.66 0.52C9.66 0.54 9.65 0.56 9.65 0.58Z" fill="#000000" fill-opacity="1.000000" fill-rule="nonzero"/>
    </g>
</svg>
