<svg width="16.000000" height="16.000000" viewBox="0 0 16 16" fill="none" xmlns="http://www.w3.org/2000/svg" xmlns:xlink="http://www.w3.org/1999/xlink">
    <desc>
        Created with Pixso.
    </desc>
    <defs>
        <clipPath id="clip171_1">
            <rect id="清空" width="16.000000" height="16.000000" fill="white" fill-opacity="0"/>
        </clipPath>
    </defs>
    <g clip-path="url(#clip171_1)">
        <path id="path" d="M3.57 7.42L14.31 10.3L14.29 10.32L14.28 10.52C14.24 11.05 14.18 11.51 14 12.7L13.89 13.38C13.83 13.79 13.79 14.12 13.76 14.42C13.69 14.99 13.39 15.44 12.9 15.7C12.66 15.82 12.4 15.89 12.19 15.91L12.12 15.91L10.71 15.53C10.69 15.52 10.67 15.51 10.65 15.5C10.63 15.49 10.61 15.48 10.6 15.47C10.58 15.45 10.56 15.44 10.55 15.42C10.54 15.4 10.53 15.38 10.52 15.36C10.51 15.34 10.5 15.32 10.5 15.3C10.49 15.28 10.49 15.26 10.49 15.24C10.49 15.22 10.49 15.19 10.5 15.17C10.5 15.15 10.51 15.13 10.52 15.11L11.07 13.99L10.76 14.4C10.53 14.68 10.28 14.95 10.02 15.19C9.98 15.23 9.93 15.25 9.88 15.27C9.83 15.28 9.78 15.28 9.73 15.27L8.55 14.95C8.53 14.95 8.51 14.94 8.49 14.93C8.47 14.92 8.46 14.91 8.44 14.89C8.42 14.88 8.41 14.86 8.39 14.84C8.38 14.83 8.37 14.81 8.36 14.79C8.35 14.77 8.34 14.75 8.34 14.73C8.34 14.7 8.33 14.68 8.33 14.66C8.33 14.64 8.34 14.62 8.34 14.6C8.35 14.58 8.35 14.55 8.36 14.54L8.92 13.42L8.6 13.83C8.37 14.11 8.12 14.37 7.86 14.62C7.82 14.65 7.78 14.68 7.73 14.69C7.68 14.7 7.63 14.7 7.58 14.69L6.2 14.32C6.17 14.31 6.15 14.31 6.13 14.3C6.12 14.29 6.1 14.27 6.08 14.26C6.06 14.25 6.05 14.23 6.04 14.21C6.02 14.2 6.01 14.18 6 14.16C5.99 14.14 5.99 14.12 5.98 14.1C5.98 14.07 5.98 14.05 5.98 14.03C5.98 14.01 5.98 13.99 5.98 13.97C5.99 13.95 6 13.92 6.01 13.91L6.56 12.79L6.24 13.2C6.01 13.48 5.77 13.74 5.5 13.99C5.46 14.02 5.42 14.05 5.37 14.06C5.32 14.07 5.27 14.07 5.22 14.06L4.24 13.8C4.22 13.79 4.2 13.79 4.18 13.78C4.16 13.77 4.14 13.75 4.13 13.74C4.11 13.72 4.09 13.71 4.08 13.69C4.07 13.67 4.06 13.66 4.05 13.64C4.04 13.62 4.03 13.59 4.03 13.57C4.02 13.55 4.02 13.53 4.02 13.51C4.02 13.49 4.02 13.46 4.03 13.44C4.03 13.42 4.04 13.4 4.05 13.38L4.6 12.27L4.29 12.68C4.16 12.84 3.97 13.05 3.72 13.3C3.67 13.34 3.63 13.38 3.57 13.41C3.52 13.44 3.46 13.46 3.4 13.48C3.34 13.49 3.28 13.5 3.22 13.5C3.16 13.5 3.1 13.49 3.04 13.48L1.82 13.15L1.46 13.02C1 12.62 0.76 12.06 0.85 11.52C0.94 10.94 1.35 10.47 2.13 10.14C2.67 9.91 3.19 8.98 3.53 7.68L3.59 7.45L3.57 7.42ZM2.91 6.23C2.93 6.2 2.96 6.17 2.98 6.14L4.92 4.02C5.07 3.85 5.31 3.72 5.57 3.64C5.83 3.58 6.1 3.57 6.33 3.63L8.26 4.15L8.33 4.11L9.19 0.9C9.33 0.39 9.88 0.09 10.42 0.24L11.72 0.58C12.27 0.73 12.59 1.26 12.46 1.77L11.59 4.98L11.63 5.05L13.48 5.54C13.71 5.6 13.94 5.74 14.13 5.93C14.33 6.13 14.46 6.36 14.51 6.58L15.13 9.38C15.14 9.43 15.14 9.48 15.15 9.53C15.14 9.64 15.06 9.7 14.93 9.71L3.04 6.53C2.88 6.48 2.83 6.38 2.91 6.23Z" fill="#000000" fill-opacity="1.000000" fill-rule="nonzero"/>
    </g>
</svg>
