<svg width="16.000000" height="16.000000" viewBox="0 0 16 16" fill="none" xmlns="http://www.w3.org/2000/svg" xmlns:xlink="http://www.w3.org/1999/xlink">
    <desc>
        Created with Pixso.
    </desc>
    <defs>
        <clipPath id="clip171_20">
            <rect id="开心-1" width="16.000000" height="16.000000" fill="white" fill-opacity="0"/>
        </clipPath>
    </defs>
    <g clip-path="url(#clip171_20)">
        <path id="path" d="M0.31 8C0.31 8.12 0.31 8.25 0.32 8.37C0.32 8.5 0.33 8.62 0.34 8.75C0.36 8.87 0.37 9 0.39 9.12C0.41 9.25 0.43 9.37 0.45 9.5C0.48 9.62 0.51 9.74 0.54 9.86C0.57 9.99 0.6 10.11 0.64 10.23C0.67 10.35 0.71 10.47 0.76 10.59C0.8 10.7 0.84 10.82 0.89 10.94C0.94 11.05 0.99 11.17 1.04 11.28C1.1 11.4 1.16 11.51 1.21 11.62C1.27 11.73 1.34 11.84 1.4 11.95C1.47 12.06 1.53 12.16 1.6 12.27C1.67 12.37 1.74 12.47 1.82 12.58C1.89 12.68 1.97 12.78 2.05 12.87C2.13 12.97 2.21 13.07 2.3 13.16C2.38 13.25 2.47 13.34 2.56 13.43C2.65 13.52 2.74 13.61 2.83 13.69C2.92 13.78 3.02 13.86 3.12 13.94C3.21 14.02 3.31 14.1 3.41 14.17C3.52 14.25 3.62 14.32 3.72 14.39C3.83 14.46 3.93 14.53 4.04 14.59C4.15 14.66 4.26 14.72 4.37 14.78C4.48 14.84 4.59 14.89 4.71 14.95C4.82 15 4.94 15.05 5.05 15.1C5.17 15.15 5.29 15.19 5.4 15.24C5.52 15.28 5.64 15.32 5.76 15.35C5.88 15.39 6 15.42 6.13 15.45C6.25 15.49 6.37 15.51 6.49 15.54C6.62 15.56 6.74 15.58 6.87 15.6C6.99 15.62 7.12 15.64 7.24 15.65C7.37 15.66 7.49 15.67 7.62 15.68C7.74 15.68 7.87 15.69 8 15.69C8.12 15.69 8.25 15.68 8.37 15.68C8.5 15.67 8.62 15.66 8.75 15.65C8.87 15.64 9 15.62 9.12 15.6C9.25 15.58 9.37 15.56 9.5 15.54C9.62 15.51 9.74 15.49 9.86 15.45C9.99 15.42 10.11 15.39 10.23 15.35C10.35 15.32 10.47 15.28 10.59 15.24C10.7 15.19 10.82 15.15 10.94 15.1C11.05 15.05 11.17 15 11.28 14.95C11.4 14.89 11.51 14.84 11.62 14.78C11.73 14.72 11.84 14.66 11.95 14.59C12.06 14.53 12.16 14.46 12.27 14.39C12.37 14.32 12.47 14.25 12.58 14.17C12.68 14.1 12.78 14.02 12.87 13.94C12.97 13.86 13.07 13.78 13.16 13.69C13.25 13.61 13.34 13.52 13.43 13.43C13.52 13.34 13.61 13.25 13.69 13.16C13.78 13.07 13.86 12.97 13.94 12.87C14.02 12.78 14.1 12.68 14.17 12.58C14.25 12.47 14.32 12.37 14.39 12.27C14.46 12.16 14.52 12.06 14.59 11.95C14.65 11.84 14.72 11.73 14.78 11.62C14.83 11.51 14.89 11.4 14.95 11.28C15 11.17 15.05 11.05 15.1 10.94C15.15 10.82 15.19 10.7 15.23 10.59C15.28 10.47 15.32 10.35 15.35 10.23C15.39 10.11 15.42 9.99 15.45 9.86C15.48 9.74 15.51 9.62 15.54 9.5C15.56 9.37 15.58 9.25 15.6 9.12C15.62 9 15.63 8.87 15.65 8.75C15.66 8.62 15.67 8.5 15.67 8.37C15.68 8.25 15.68 8.12 15.68 8C15.68 7.87 15.68 7.74 15.67 7.62C15.67 7.49 15.66 7.37 15.65 7.24C15.63 7.12 15.62 6.99 15.6 6.87C15.58 6.74 15.56 6.62 15.54 6.49C15.51 6.37 15.48 6.25 15.45 6.13C15.42 6 15.39 5.88 15.35 5.76C15.32 5.64 15.28 5.52 15.23 5.4C15.19 5.29 15.15 5.17 15.1 5.05C15.05 4.94 15 4.82 14.95 4.71C14.89 4.59 14.83 4.48 14.78 4.37C14.72 4.26 14.65 4.15 14.59 4.04C14.52 3.93 14.46 3.83 14.39 3.72C14.32 3.62 14.25 3.52 14.17 3.41C14.1 3.31 14.02 3.21 13.94 3.12C13.86 3.02 13.78 2.92 13.69 2.83C13.61 2.74 13.52 2.65 13.43 2.56C13.34 2.47 13.25 2.38 13.16 2.3C13.07 2.21 12.97 2.13 12.87 2.05C12.78 1.97 12.68 1.89 12.58 1.82C12.47 1.74 12.37 1.67 12.27 1.6C12.16 1.53 12.06 1.46 11.95 1.4C11.84 1.33 11.73 1.27 11.62 1.21C11.51 1.15 11.4 1.1 11.28 1.04C11.17 0.99 11.05 0.94 10.94 0.89C10.82 0.84 10.7 0.8 10.59 0.75C10.47 0.71 10.35 0.67 10.23 0.64C10.11 0.6 9.99 0.57 9.86 0.54C9.74 0.5 9.62 0.48 9.5 0.45C9.37 0.43 9.25 0.41 9.12 0.39C9 0.37 8.87 0.35 8.75 0.34C8.62 0.33 8.5 0.32 8.37 0.31C8.25 0.31 8.12 0.31 8 0.31C7.87 0.31 7.74 0.31 7.62 0.31C7.49 0.32 7.37 0.33 7.24 0.34C7.12 0.35 6.99 0.37 6.87 0.39C6.74 0.41 6.62 0.43 6.49 0.45C6.37 0.48 6.25 0.5 6.13 0.54C6 0.57 5.88 0.6 5.76 0.64C5.64 0.67 5.52 0.71 5.4 0.75C5.29 0.8 5.17 0.84 5.05 0.89C4.94 0.94 4.82 0.99 4.71 1.04C4.59 1.1 4.48 1.15 4.37 1.21C4.26 1.27 4.15 1.33 4.04 1.4C3.93 1.46 3.83 1.53 3.72 1.6C3.62 1.67 3.52 1.74 3.41 1.82C3.31 1.89 3.21 1.97 3.12 2.05C3.02 2.13 2.92 2.21 2.83 2.3C2.74 2.38 2.65 2.47 2.56 2.56C2.47 2.65 2.38 2.74 2.3 2.83C2.21 2.92 2.13 3.02 2.05 3.12C1.97 3.21 1.89 3.31 1.82 3.41C1.74 3.52 1.67 3.62 1.6 3.72C1.53 3.83 1.47 3.93 1.4 4.04C1.34 4.15 1.27 4.26 1.21 4.37C1.16 4.48 1.1 4.59 1.04 4.71C0.99 4.82 0.94 4.94 0.89 5.05C0.84 5.17 0.8 5.29 0.76 5.4C0.71 5.52 0.67 5.64 0.64 5.76C0.6 5.88 0.57 6 0.54 6.13C0.51 6.25 0.48 6.37 0.45 6.49C0.43 6.62 0.41 6.74 0.39 6.87C0.37 6.99 0.36 7.12 0.34 7.24C0.33 7.37 0.32 7.49 0.32 7.62C0.31 7.74 0.31 7.87 0.31 8Z" fill="#FDDF6D" fill-opacity="1.000000" fill-rule="nonzero"/>
        <path id="path" d="M4.69 7.52C4.12 7.52 3.66 7.98 3.66 8.55L5.73 8.55C5.73 7.98 5.26 7.52 4.69 7.52ZM13.71 7.38C13.14 7.38 12.67 7.84 12.67 8.41L14.74 8.41C14.74 7.84 14.28 7.38 13.71 7.38Z" fill="#F9A880" fill-opacity="1.000000" fill-rule="nonzero"/>
        <path id="path" d="M9.64 14.55C5.4 14.55 1.96 11.11 1.96 6.86C1.96 4.59 2.94 2.55 4.5 1.15C2.01 2.42 0.31 5.01 0.31 8C0.31 12.24 3.75 15.68 8 15.68C9.97 15.68 11.78 14.94 13.14 13.71C12.09 14.25 10.9 14.55 9.64 14.55Z" fill="#FCC56B" fill-opacity="1.000000" fill-rule="nonzero"/>
        <path id="path" d="M7.69 5.93C7.52 5.93 7.38 5.79 7.38 5.62C7.38 5.21 7.05 4.88 6.65 4.88C6.24 4.88 5.92 5.21 5.92 5.62C5.92 5.79 5.78 5.93 5.6 5.93C5.43 5.93 5.29 5.79 5.29 5.62C5.29 4.87 5.9 4.26 6.65 4.26C7.4 4.26 8 4.87 8 5.62C8 5.79 7.86 5.93 7.69 5.93ZM12.97 5.93C12.8 5.93 12.66 5.79 12.66 5.62C12.66 5.21 12.33 4.88 11.93 4.88C11.53 4.88 11.2 5.21 11.2 5.62C11.2 5.79 11.06 5.93 10.89 5.93C10.71 5.93 10.57 5.79 10.57 5.62C10.57 4.87 11.18 4.26 11.93 4.26C12.68 4.26 13.29 4.87 13.29 5.62C13.29 5.79 13.15 5.93 12.97 5.93ZM9.38 12.42C8.55 12.42 7.79 11.97 7.38 11.25C7.3 11.1 7.35 10.9 7.5 10.82C7.65 10.74 7.85 10.79 7.93 10.94C8.22 11.47 8.78 11.8 9.38 11.8C9.97 11.8 10.53 11.46 10.85 10.93C10.94 10.79 11.13 10.74 11.28 10.83C11.42 10.91 11.47 11.11 11.38 11.25C10.95 11.97 10.19 12.42 9.38 12.42Z" fill="#7F184C" fill-opacity="1.000000" fill-rule="nonzero"/>
        <path id="path" d="M14.6 3.47C13.7 2.17 12.46 1.17 11 0.58C10.84 0.51 10.66 0.59 10.6 0.75C10.53 0.91 10.61 1.09 10.77 1.16C12.11 1.7 13.26 2.63 14.08 3.83C14.92 5.06 15.37 6.5 15.37 8C15.37 12.06 12.06 15.37 7.99 15.37C3.93 15.37 0.62 12.06 0.62 8C0.62 3.93 3.93 0.62 8 0.62C8.17 0.62 8.31 0.48 8.31 0.31C8.31 0.14 8.17 0 8 0C3.58 0 0 3.58 0 8C0 12.41 3.58 16 8 16C12.41 16 16 12.41 16 8C16 6.37 15.51 4.81 14.6 3.47Z" fill="#000000" fill-opacity="1.000000" fill-rule="nonzero"/>
        <path id="path" d="M7.69 5.93C7.86 5.93 8 5.79 8 5.62C8 4.87 7.4 4.26 6.65 4.26C5.9 4.26 5.29 4.87 5.29 5.62C5.29 5.79 5.43 5.93 5.6 5.93C5.78 5.93 5.92 5.79 5.92 5.62C5.92 5.21 6.24 4.88 6.65 4.88C7.05 4.88 7.38 5.21 7.38 5.62C7.38 5.79 7.52 5.93 7.69 5.93ZM11.2 5.62C11.2 5.21 11.53 4.88 11.93 4.88C12.33 4.88 12.66 5.21 12.66 5.62C12.66 5.79 12.8 5.93 12.97 5.93C13.15 5.93 13.29 5.79 13.29 5.62C13.29 4.87 12.68 4.26 11.93 4.26C11.18 4.26 10.57 4.87 10.57 5.62C10.57 5.79 10.71 5.93 10.89 5.93C11.06 5.93 11.2 5.79 11.2 5.62ZM7.93 10.94C7.85 10.79 7.65 10.74 7.5 10.82C7.35 10.9 7.3 11.1 7.38 11.25C7.79 11.97 8.55 12.42 9.38 12.42C10.19 12.42 10.95 11.97 11.38 11.25C11.47 11.11 11.42 10.91 11.28 10.83C11.13 10.74 10.94 10.79 10.85 10.93C10.53 11.46 9.97 11.8 9.38 11.8C8.78 11.8 8.22 11.47 7.93 10.94Z" fill="#000000" fill-opacity="1.000000" fill-rule="nonzero"/>
        <path id="path" d="M9.5 0.53C9.5 0.55 9.5 0.57 9.5 0.59C9.51 0.61 9.51 0.63 9.52 0.65C9.53 0.67 9.54 0.68 9.55 0.7C9.56 0.72 9.57 0.73 9.59 0.75C9.6 0.76 9.62 0.78 9.64 0.79C9.65 0.8 9.67 0.81 9.69 0.82C9.71 0.82 9.73 0.83 9.75 0.83C9.77 0.84 9.79 0.84 9.81 0.84C9.83 0.84 9.85 0.84 9.87 0.83C9.89 0.83 9.91 0.82 9.93 0.82C9.95 0.81 9.97 0.8 9.98 0.79C10 0.78 10.02 0.76 10.03 0.75C10.05 0.73 10.06 0.72 10.07 0.7C10.08 0.68 10.09 0.67 10.1 0.65C10.11 0.63 10.11 0.61 10.12 0.59C10.12 0.57 10.12 0.55 10.12 0.53C10.12 0.51 10.12 0.49 10.12 0.47C10.11 0.45 10.11 0.43 10.1 0.41C10.09 0.39 10.08 0.37 10.07 0.35C10.06 0.34 10.05 0.32 10.03 0.31C10.02 0.29 10 0.28 9.98 0.27C9.97 0.25 9.95 0.25 9.93 0.24C9.91 0.23 9.89 0.22 9.87 0.22C9.85 0.22 9.83 0.21 9.81 0.21C9.79 0.21 9.77 0.22 9.75 0.22C9.73 0.22 9.71 0.23 9.69 0.24C9.67 0.25 9.65 0.25 9.64 0.27C9.62 0.28 9.6 0.29 9.59 0.31C9.57 0.32 9.56 0.34 9.55 0.35C9.54 0.37 9.53 0.39 9.52 0.41C9.51 0.43 9.51 0.45 9.5 0.47C9.5 0.49 9.5 0.51 9.5 0.53Z" fill="#000000" fill-opacity="1.000000" fill-rule="nonzero"/>
    </g>
</svg>
