<svg width="30.000000" height="30.000000" viewBox="0 0 32 32" fill="none" xmlns="http://www.w3.org/2000/svg" xmlns:xlink="http://www.w3.org/1999/xlink">
    <desc>
        Created with Pixso.
    </desc>
    <defs>
        <clipPath id="clip51_166">
            <rect id="我的" width="32.000000" height="32.000000" fill="white" fill-opacity="0"/>
        </clipPath>
    </defs>
    <g clip-path="url(#clip51_166)">
        <path id="path" d="M22.25 31.5C18.25 31.5 15 28.25 15 24.25C15 20.25 18.25 17 22.25 17C26.25 17 29.5 20.25 29.5 24.25C29.5 28.25 26.25 31.5 22.25 31.5Z" fill="#96E8BA" fill-opacity="1.000000" fill-rule="nonzero"/>
        <path id="path" d="M14.15 15.85C13.25 15.85 12.35 15.7 11.5 15.35C9.69 14.65 8.35 13.3 7.54 11.55C6.75 9.8 6.75 7.85 7.44 6.05C8.14 4.25 9.5 2.9 11.25 2.1C13 1.4 20.5 1.2 21.45 2.3C21.95 2.85 21.85 3.95 21.2 6.8C21.15 6.95 21.15 7.1 21.1 7.15C21.05 7.5 21 7.8 20.95 8.1C20.5 11.2 20.04 13.9 17 15.25C16.1 15.65 15.15 15.85 14.15 15.85ZM16.29 3.05C14.5 3.05 12.65 3.2 11.9 3.5C10.5 4.1 9.44 5.2 8.89 6.6C8.35 8 8.39 9.5 9 10.9C9.6 12.3 10.7 13.35 12.1 13.9C13.5 14.45 15.05 14.45 16.4 13.85C18.7 12.85 19 10.85 19.45 7.85C19.5 7.55 19.54 7.2 19.6 6.85C19.6 6.8 19.65 6.65 19.7 6.4C20.2 4.45 20.25 3.65 20.25 3.3C19.65 3.15 18 3.05 16.29 3.05ZM14.25 30.1C11.25 30.1 8.44 29.75 6.35 29.1C3.1 28.1 2.39 26.7 2.39 25.65C2.39 21.25 5.79 17.45 10.85 16.2C11.05 16.15 11.2 16.2 11.35 16.29C12.7 17.35 14.5 17.54 16.1 16.9C16.45 16.75 16.79 16.54 17.1 16.29C17.25 16.2 17.45 16.15 17.6 16.2C22.55 17.45 26.05 21.3 26.05 25.65C26.05 28.95 19.7 30.1 14.25 30.1ZM10.85 17.5C6.6 18.65 3.6 22 3.6 25.65C3.6 27.45 8.25 28.85 14.2 28.85C20.15 28.85 24.8 27.45 24.8 25.65C24.8 21.95 21.85 18.65 17.54 17.5C17.2 17.75 16.9 17.9 16.54 18.04C14.7 18.9 12.55 18.65 10.85 17.5Z" fill="#103E26" fill-opacity="1.000000" fill-rule="nonzero"/>
        <path id="path" d="M13.75 12.35C13.35 12.35 13 12 13 11.6C13 11.2 13.3 10.85 13.75 10.85C13.85 10.85 14.8 10.8 15.35 10.05C15.85 9.4 15.8 8.65 15.75 8.45C15.7 8.05 15.95 7.65 16.4 7.6C16.79 7.55 17.2 7.8 17.25 8.2C17.29 8.55 17.45 9.85 16.54 11C15.55 12.25 14.05 12.35 13.75 12.35ZM16.5 23.25L11.3 23.25C10.95 23.25 10.7 23 10.7 22.65C10.7 20.85 12.15 19.4 13.9 19.4C15.65 19.4 17.1 20.85 17.1 22.65C17.1 22.95 16.85 23.25 16.5 23.25ZM12 22.05L15.85 22.05C15.6 21.2 14.85 20.6 13.95 20.6C13.05 20.6 12.25 21.2 12 22.05Z" fill="#103E26" fill-opacity="1.000000" fill-rule="nonzero"/>
    </g>
</svg>
