<svg width="32.000000" height="32.000000" viewBox="0 0 32 32" fill="none" xmlns="http://www.w3.org/2000/svg" xmlns:xlink="http://www.w3.org/1999/xlink">
    <desc>
        Created with Pixso.
    </desc>
    <defs>
        <clipPath id="clip51_182">
            <rect id="账单" width="32.000000" height="32.000000" fill="white" fill-opacity="0"/>
        </clipPath>
    </defs>
    <g clip-path="url(#clip51_182)">
        <path id="path" d="M27.01 12.03L27.01 27.45L15.04 27.45L15.04 12.03L27.01 12.03Z" fill="#000000" fill-opacity="1.000000" fill-rule="nonzero"/>
        <path id="path" d="M22.42 4.41L7.01 4.41C5.89 4.41 4.98 5.33 4.98 6.45L4.98 27.01C4.98 28.13 5.89 29.05 7.01 29.05L18.71 29.05L24.45 24.01L24.45 6.45C24.45 5.33 23.54 4.41 22.42 4.41ZM22.19 22.98L17.86 26.78L7.24 26.78L7.24 6.68L22.19 6.68L22.19 22.98Z" fill="#2A2A2A" fill-opacity="1.000000" fill-rule="nonzero"/>
        <path id="path" d="M10.65 13.16L18.78 13.16C19.4 13.16 19.91 12.65 19.91 12.03C19.91 11.41 19.4 10.9 18.78 10.9L10.65 10.9C10.03 10.9 9.52 11.41 9.52 12.03C9.52 12.65 10.03 13.16 10.65 13.16ZM10.65 17.86L18.78 17.86C19.4 17.86 19.91 17.35 19.91 16.73C19.91 16.11 19.4 15.6 18.78 15.6L10.65 15.6C10.03 15.6 9.52 16.11 9.52 16.73C9.52 17.35 10.03 17.86 10.65 17.86ZM10.65 22.56L18.78 22.56C19.4 22.56 19.91 22.05 19.91 21.43C19.91 20.81 19.4 20.3 18.78 20.3L10.65 20.3C10.03 20.3 9.52 20.81 9.52 21.43C9.52 22.05 10.03 22.56 10.65 22.56Z" fill="#2A2A2A" fill-opacity="1.000000" fill-rule="nonzero"/>
    </g>
</svg>
