<svg width="32.000000" height="32.000000" viewBox="0 0 32 32" fill="none" xmlns="http://www.w3.org/2000/svg" xmlns:xlink="http://www.w3.org/1999/xlink">
    <desc>
        Created with Pixso.
    </desc>
    <defs>
        <clipPath id="clip51_192">
            <rect id="图表" width="32.000000" height="32.000000" fill="white" fill-opacity="0"/>
        </clipPath>
    </defs>
    <g clip-path="url(#clip51_192)">
        <path id="path" d="M2.28 26.43C1.87 26.43 1.53 26.76 1.52 27.17C1.52 27.58 1.85 27.92 2.26 27.93L29.69 27.93C30.1 27.94 30.44 27.6 30.45 27.19C30.45 26.78 30.12 26.44 29.71 26.43L2.28 26.43Z" fill="#000000" fill-opacity="1.000000" fill-rule="nonzero"/>
        <path id="path" d="M23.21 4.74L25.71 4.74C26.53 4.74 27.2 5.41 27.2 6.24L27.2 22.7C27.2 23.52 26.54 24.19 25.71 24.19L23.21 24.19C22.39 24.19 21.72 23.52 21.72 22.7L21.72 6.24C21.72 5.41 22.39 4.74 23.21 4.74Z" fill="#000000" fill-opacity="1.000000" fill-rule="nonzero"/>
        <path id="path" d="M24.96 4.74L24.96 21.2C24.96 21.61 24.62 21.95 24.21 21.95L21.72 21.95L21.72 22.69C21.72 23.52 22.38 24.19 23.21 24.19L25.71 24.19C26.54 24.19 27.2 23.52 27.2 22.69L27.2 6.24C27.2 5.41 26.54 4.74 25.71 4.74L24.96 4.74Z" fill="#8A8A8A" fill-opacity="1.000000" fill-rule="nonzero"/>
        <path id="path" d="M14.74 8.73L17.23 8.73C18.05 8.73 18.73 9.4 18.73 10.23L18.73 22.7C18.73 23.52 18.06 24.19 17.23 24.19L14.74 24.19C13.91 24.19 13.24 23.52 13.24 22.7L13.24 10.23C13.24 9.4 13.91 8.73 14.74 8.73Z" fill="#000000" fill-opacity="1.000000" fill-rule="nonzero"/>
        <path id="path" d="M16.48 8.73L16.48 21.2C16.48 21.61 16.15 21.95 15.74 21.95L13.24 21.95L13.24 22.69C13.24 23.52 13.91 24.19 14.74 24.19L17.23 24.19C18.06 24.19 18.73 23.52 18.73 22.69L18.73 10.23C18.73 9.4 18.06 8.73 17.23 8.73L16.48 8.73L16.48 8.73Z" fill="#000000" fill-opacity="1.000000" fill-rule="nonzero"/>
        <path id="path" d="M14.74 7.98C13.5 7.98 12.49 8.99 12.49 10.23L12.49 22.69C12.49 23.92 13.5 24.94 14.74 24.94L17.23 24.94C18.46 24.94 19.47 23.92 19.47 22.69L19.47 10.23C19.47 8.99 18.46 7.98 17.23 7.98L14.74 7.98ZM14.74 9.48L17.23 9.48C17.66 9.48 17.98 9.8 17.98 10.23L17.98 22.69C17.98 23.12 17.65 23.44 17.23 23.44L14.74 23.44C14.31 23.44 13.99 23.12 13.99 22.69L13.99 10.23C13.99 9.8 14.31 9.48 14.74 9.48Z" fill="#000000" fill-opacity="1.000000" fill-rule="nonzero"/>
        <path id="path" d="M6.26 12.72L8.75 12.72C9.58 12.72 10.25 13.39 10.25 14.22L10.25 22.7C10.25 23.52 9.58 24.19 8.75 24.19L6.26 24.19C5.44 24.19 4.76 23.52 4.76 22.7L4.76 14.22C4.76 13.39 5.43 12.72 6.26 12.72Z" fill="#FFEE91" fill-opacity="1.000000" fill-rule="nonzero"/>
        <path id="path" d="M8 12.72L8 21.2C8 21.61 7.67 21.95 7.26 21.95L4.76 21.95L4.76 22.69C4.76 23.52 5.43 24.19 6.26 24.19L8.75 24.19C9.58 24.19 10.25 23.52 10.25 22.69L10.25 14.22C10.25 13.39 9.59 12.72 8.75 12.72L8 12.72Z" fill="#000000" fill-opacity="1.000000" fill-rule="nonzero"/>
        <path id="path" d="M6.26 11.97C5.03 11.97 4.02 12.99 4.02 14.22L4.02 22.7C4.02 23.93 5.03 24.94 6.26 24.94L8.75 24.94C9.99 24.94 11 23.93 11 22.7L11 14.22C11 12.99 9.99 11.97 8.75 11.97L6.26 11.97ZM6.26 13.47L8.75 13.47C9.18 13.47 9.5 13.79 9.5 14.22L9.5 22.7C9.5 23.12 9.18 23.44 8.75 23.44L6.26 23.44C5.83 23.44 5.51 23.12 5.51 22.7L5.51 14.22C5.51 13.79 5.83 13.47 6.26 13.47ZM23.21 4C21.98 4 20.97 5.01 20.97 6.24L20.97 22.7C20.97 23.93 21.98 24.94 23.21 24.94L25.71 24.94C26.12 24.95 26.46 24.61 26.47 24.2C26.47 23.79 26.14 23.45 25.73 23.44L23.21 23.44C22.79 23.44 22.47 23.12 22.47 22.7L22.47 6.24C22.47 5.81 22.79 5.49 23.21 5.49L25.71 5.49C26.14 5.49 26.45 5.81 26.45 6.24L26.45 12.72C26.45 13.13 26.78 13.47 27.19 13.48C27.6 13.49 27.95 13.15 27.95 12.74L27.95 6.24C27.95 5.01 26.94 4 25.71 4L23.21 4Z" fill="#000000" fill-opacity="1.000000" fill-rule="nonzero"/>
        <path id="path" d="M25.19 14.6C24.65 14.62 24.35 15.24 24.68 15.67L26.15 17.7L25.22 17.7C24.33 17.69 24.33 19.04 25.22 19.03L26.54 19.03L26.54 19.92L25.22 19.92C24.33 19.9 24.33 21.26 25.22 21.25L26.54 21.25L26.54 21.9C26.53 22.8 27.88 22.8 27.87 21.9L27.87 21.25L29.19 21.25C30.09 21.26 30.09 19.9 29.19 19.92L27.87 19.92L27.87 19.03L29.19 19.03C30.09 19.04 30.09 17.69 29.19 17.7L28.26 17.7L29.73 15.67C30.06 15.24 29.75 14.61 29.21 14.61C28.99 14.6 28.78 14.71 28.66 14.89L27.21 16.89L25.76 14.89C25.63 14.7 25.41 14.6 25.19 14.6Z" fill="#000000" fill-opacity="1.000000" fill-rule="nonzero"/>
    </g>
</svg>
