<svg width="105" height="276" viewBox="0 0 105 276" fill="none" xmlns="http://www.w3.org/2000/svg">
    <path d="M52.7263 70.5463C58.6226 75.3698 66.1703 82.3204 72.4678 86.4067L72.5985 86.4907C72.5985 86.4907 72.7477 86.6493 73.2702 86.6213C77.991 85.6137 82.5159 81.4154 86.4716 78.2246C86.8944 77.8194 87.4513 77.5836 88.0366 77.5621C88.6218 77.5406 89.1945 77.7348 89.6459 78.1079C90.0973 78.481 90.3959 79.0069 90.4849 79.5858C90.574 80.1646 90.4472 80.7559 90.1288 81.2474C87.8241 84.9252 84.9705 88.2287 81.6669 91.0436C79.7378 92.726 77.469 93.9734 75.0148 94.7008C72.9178 95.2855 70.6818 95.1137 68.6986 94.2156L67.6817 93.6932C59.8261 89.3176 53.0901 83.6358 46.3821 77.7582C41.8479 73.4292 47.8376 66.6185 52.7076 70.565L52.7263 70.5463Z" fill="#EBC0BB"/>
    <path d="M52.0733 84.6621C53.9352 85.4867 55.7371 86.4406 57.4658 87.517C61.9067 90.1479 67.0753 93.5439 67.0753 93.5439L71.311 84.5035C63.2035 76.1814 51.0377 69.632 51.0377 69.632C51.0377 69.632 50.5619 72.4309 50.3473 75.5564C50.0674 79.4561 50.1887 83.9717 52.0733 84.6621Z" fill="black"/>
    <path d="M66.4689 93.3947L71.311 82.9175L73.7367 86.3974L68.7734 95.0927L66.4689 93.3947Z" fill="black"/>
    <path opacity="0.6" d="M66.4689 93.3947L71.311 82.9175L73.7367 86.3974L68.7734 95.0927L66.4689 93.3947Z" fill="white"/>
    <path opacity="0.2" d="M52.0733 82.6562C53.9232 83.3608 55.7246 84.1867 57.4658 85.1285C56.4673 80.9429 54.2071 77.1651 50.991 74.3062C50.7675 74.4456 50.5526 74.5982 50.3473 74.7633C50.0674 78.1406 50.1887 82.0591 52.0733 82.6562Z" fill="black"/>
    <path d="M28.0961 119.2C28.0961 119.2 28.5439 126.776 32.2384 140.043C34.5555 148.254 37.3753 156.314 40.6818 164.179C42.5477 168.62 44.6748 173.322 47.0632 178.285C48.1641 180.543 49.3303 182.838 50.5618 185.189C51.98 225.381 74.5297 266.236 74.5297 266.236C75.7799 266.879 80.1275 266.17 80.1275 264.902C76.7875 259.602 70.2194 208.112 65.9838 183.687C65.7225 180.366 65.34 176.811 64.8736 173.135C63.6327 163.283 61.8041 152.554 60.0221 143.122C57.2232 128.269 54.5549 116.625 54.5549 116.625L47.0912 117.344L28.0961 119.2Z" fill="#EEC1BB"/>
    <path d="M19.2143 174.833C19.8362 179.143 20.6106 183.765 21.5373 188.697C13.4765 215.576 30.046 267.999 30.046 267.999C32.8449 268.549 35.3265 268.186 36.5767 267.253C33.4513 251.448 35.6997 210.342 38.1254 185.795C38.34 183.575 38.6106 181.131 38.9091 178.5C39.4129 174.077 40.01 169.17 40.6445 164.151C41.708 155.707 42.9116 146.816 43.9938 138.961C45.3186 129.435 46.4755 121.384 47.0632 117.334C47.3245 115.553 47.4644 114.536 47.4644 114.536L24.2056 117.055C24.2056 117.055 18.2906 123.688 17.395 144.4C17.0846 154.578 17.6935 164.764 19.2143 174.833Z" fill="#EEC1BB"/>
    <path opacity="0.2" d="M19.2142 174.833C25.5766 176.988 32.2087 178.244 38.9184 178.565C39.4222 174.143 40.0193 169.235 40.6537 164.216C42.5197 168.657 44.6468 173.359 47.0352 178.322C53.2497 177.748 59.2944 175.977 64.8362 173.107C63.5954 163.255 61.7667 152.526 59.9848 143.094C57.5207 141.652 54.8582 140.58 52.0826 139.912C49.4377 139.29 46.7295 138.977 44.0124 138.979C40.0562 138.956 36.107 139.316 32.2198 140.052C27.1456 140.992 22.1833 142.458 17.4136 144.428C17.0987 154.596 17.7014 164.773 19.2142 174.833Z" fill="black"/>
    <path d="M19.0836 70.3224C19.0836 70.3224 20.1192 74.1662 21.2388 80.585C21.528 82.1711 21.8172 83.9344 22.0878 85.819C22.2837 87.1904 22.4703 88.6179 22.6569 90.1293C22.8621 91.8366 23.0581 93.6372 23.2353 95.4938C23.9182 102.625 24.1767 109.79 24.0097 116.952H54.6389C54.6389 116.952 59.4717 81.1261 51.4948 69.576C51.4948 69.6507 35.793 62.2523 19.0836 70.3224Z" fill="black"/>
    <path opacity="0.2" d="M21.2388 80.6224C21.528 82.2084 21.8172 83.9717 22.0878 85.8563C22.2837 87.2277 22.4703 88.6552 22.6569 90.1666C23.9785 85.5907 23.9461 80.73 22.5636 76.1721L21.2388 80.6224Z" fill="black"/>
    <path d="M34.9254 64.4447C25.3158 64.4447 24.1123 72.3469 24.1123 72.3469L28.5999 70.4157L41.8013 79.2415L45.0387 70.3317L49.1064 71.0874C49.1064 71.0874 43.2661 64.454 34.9254 64.4447Z" fill="black"/>
    <path opacity="0.6" d="M34.9254 64.4447C25.3158 64.4447 24.1123 72.3469 24.1123 72.3469L28.5999 70.4157L41.8013 79.2415L45.0387 70.3317L49.1064 71.0874C49.1064 71.0874 43.2661 64.454 34.9254 64.4447Z" fill="white"/>
    <path d="M28.973 68.8204L41.4281 78.15C41.4281 78.0754 43.3593 68.8204 43.3593 68.8204C40.4205 68.1766 39.217 66.7492 38.8998 65.0325C38.7288 63.6278 38.8755 62.2026 39.3289 60.8622L32.4343 55.4043L30.5684 53.9396C31.436 58.1939 32.2477 65.9841 28.973 68.8204Z" fill="#EEC1BB"/>
    <path opacity="0.2" d="M32.3783 58.5484C32.6396 61.226 35.9236 64.0156 38.9091 65.0325C38.7381 63.6278 38.8848 62.2026 39.3383 60.8621L32.4437 55.4043C32.2822 56.4448 32.2602 57.5021 32.3783 58.5484Z" fill="black"/>
    <path d="M52.829 44.47L52.1759 44.2367L54.2937 38.3871C53.9941 38.08 53.6662 37.8019 53.3141 37.5567L53.7153 36.9876C54.1904 37.3046 54.615 37.6915 54.9748 38.1352L55.0681 38.2751L52.829 44.47Z" fill="black"/>
    <path d="M51.4202 51.2246C51.4202 51.2246 57.5031 38.8442 45.2719 31.5857C33.0408 24.3273 24.1869 39.4879 25.4184 47.0916C25.9409 50.3663 27.1724 54.3594 30.3258 56.328C31.5947 57.1117 31.688 53.5291 31.688 53.5291C31.688 53.5291 43.5739 57.7367 51.4202 51.2246Z" fill="#263238"/>
    <path d="M31.2028 42.9959C30.1113 50.5249 29.4955 53.6784 32.3784 58.4458C36.7073 65.6203 45.9623 65.7696 49.2277 58.8377C52.1572 52.5868 53.4447 41.3352 46.9513 36.5025C45.5925 35.4188 43.9685 34.7185 42.2477 34.4741C40.527 34.2297 38.7721 34.4502 37.1653 35.1127C35.5586 35.7752 34.1583 36.8556 33.1099 38.2418C32.0614 39.628 31.403 41.2694 31.2028 42.9959Z" fill="#EEC1BB"/>
    <path d="M39.0304 39.9638C33.4326 43.6956 39.4409 52.1949 31.5667 49.1255C23.6924 46.056 30.7923 35.8401 36.4274 34.8978C42.0625 33.9555 39.0304 39.9638 39.0304 39.9638Z" fill="#263238"/>
    <path d="M47.1192 50.5342C47.3818 52.1079 47.8458 53.6413 48.5 55.0964C48.1437 55.244 47.7584 55.3081 47.3736 55.2838C46.9887 55.2596 46.6145 55.1476 46.2795 54.9565L47.1192 50.5342Z" fill="#D4827D"/>
    <path d="M44.8894 43.425C44.8416 43.4184 44.7929 43.4216 44.7464 43.4344C44.6999 43.4472 44.6565 43.4694 44.6188 43.4996C44.2742 43.7939 43.8621 43.9981 43.4193 44.0942C42.9764 44.1902 42.5167 44.1751 42.0812 44.0501C42.0365 44.0343 41.9891 44.0278 41.9419 44.0311C41.8946 44.0345 41.8486 44.0475 41.8066 44.0693C41.7646 44.0912 41.7275 44.1215 41.6977 44.1583C41.6679 44.1951 41.646 44.2377 41.6334 44.2833C41.6089 44.3797 41.6211 44.4818 41.6677 44.5698C41.7142 44.6577 41.7918 44.7252 41.8853 44.7591C42.4327 44.9284 43.014 44.9565 43.5752 44.8407C44.1363 44.7248 44.659 44.4689 45.0947 44.0967C45.163 44.027 45.2013 43.9332 45.2013 43.8355C45.2013 43.7378 45.163 43.644 45.0947 43.5743C45.0442 43.5036 44.9722 43.4512 44.8894 43.425Z" fill="#263238"/>
    <path d="M50.0768 44.358C49.9896 44.325 49.8934 44.325 49.8062 44.358C49.7199 44.4053 49.6558 44.4848 49.6279 44.5791C49.5999 44.6735 49.6103 44.7751 49.6569 44.8618C49.9023 45.4093 50.2708 45.8928 50.7336 46.2747C51.1964 46.6566 51.741 46.9266 52.3252 47.0636C52.3727 47.0715 52.4214 47.0694 52.468 47.0574C52.5147 47.0454 52.5583 47.0237 52.5961 46.9939C52.6339 46.964 52.665 46.9265 52.6874 46.8839C52.7099 46.8413 52.7231 46.7944 52.7264 46.7464C52.731 46.6479 52.7008 46.5509 52.6411 46.4724C52.5814 46.3939 52.496 46.339 52.3998 46.3172C51.9381 46.2041 51.5086 45.9862 51.1446 45.6804C50.7805 45.3747 50.4918 44.9892 50.3007 44.5539C50.2539 44.4623 50.1737 44.3922 50.0768 44.358Z" fill="#263238"/>
    <path d="M42.3424 36.745C42.3424 36.745 38.9091 42.5387 33.7778 43.9195C28.6465 45.3003 28.292 42.7813 28.292 42.7813C28.292 42.7813 28.6745 35.4109 35.4385 33.8808C35.4385 33.8808 36.4368 31.6977 42.3238 32.1922C48.2108 32.6866 55.0028 37.538 52.745 44.5166C51.4692 43.627 49.9965 43.0603 48.4534 42.8653C47.8602 40.4628 46.4189 38.3555 44.395 36.9316C45.7489 38.5097 46.5916 40.4618 46.8114 42.5294C46.8114 42.5294 45.4865 38.2564 42.3424 36.745Z" fill="#263238"/>
    <path d="M43.6579 48.5097L45.188 48.4537C45.188 48.4537 44.227 49.4333 43.6579 48.5097Z" fill="#263238"/>
    <path d="M43.6579 48.5097C43.2775 48.8083 42.8137 48.9813 42.3306 49.0047C41.8476 49.0281 41.3692 48.9008 40.9617 48.6403C40.9617 48.6403 42.2958 49.7412 43.1448 49.5733C43.3978 49.5319 43.6375 49.4319 43.8449 49.2812C44.0523 49.1306 44.2215 48.9334 44.339 48.7056L43.6579 48.5097Z" fill="#263238"/>
    <path d="M49.8715 49.4706L51.3922 49.4147C51.3922 49.4147 50.4312 50.3943 49.8715 49.4706Z" fill="#263238"/>
    <path d="M49.8714 49.4706C49.8714 49.4706 49.4609 50.4036 47.8376 49.5733C47.8376 49.5733 48.5 50.7022 49.349 50.5715C49.6019 50.5302 49.8417 50.4301 50.0491 50.2795C50.2564 50.1288 50.4257 49.9317 50.5432 49.7039L49.8714 49.4706Z" fill="#263238"/>
    <path d="M45.0481 57.9886C44.9935 57.9897 44.9403 57.9717 44.8977 57.9376C44.855 57.9035 44.8257 57.8555 44.8148 57.802C44.8148 57.802 44.4043 55.8148 41.5681 54.574C41.5399 54.5618 41.5143 54.5442 41.4929 54.5221C41.4715 54.5 41.4547 54.4739 41.4434 54.4453C41.4321 54.4167 41.4266 54.3861 41.4272 54.3553C41.4278 54.3246 41.4345 54.2943 41.4468 54.2661C41.4732 54.2107 41.5197 54.1673 41.5769 54.1448C41.634 54.1223 41.6976 54.1223 41.7547 54.1448C44.8335 55.4976 45.2626 57.6248 45.272 57.7181C45.2829 57.7787 45.2694 57.8411 45.2344 57.8918C45.1995 57.9425 45.1459 57.9773 45.0854 57.9886H45.0481Z" fill="#263238"/>
    <path d="M42.2118 35.9613C40.1499 35.9613 38.5825 35.1216 38.5825 34.0114C38.5825 32.9012 40.1499 32.0522 42.2118 32.0522C44.2736 32.0522 45.841 32.8919 45.841 34.0114C45.841 35.131 44.2829 35.9613 42.2118 35.9613ZM42.2118 32.7519C40.4858 32.7519 39.2822 33.4143 39.2822 34.0114C39.2822 34.6085 40.4858 35.2616 42.2118 35.2616C43.9378 35.2616 45.1413 34.5992 45.1413 34.0114C45.1413 33.4236 43.9564 32.7706 42.2118 32.7706V32.7519Z" fill="black"/>
    <path d="M52.3531 38.1351C51.4273 38.0924 50.5279 37.8129 49.7408 37.3235C47.9495 36.2972 47.0165 34.7858 47.5763 33.8155C48.1361 32.8825 49.8994 32.8825 51.6907 33.9368C53.482 34.991 54.4149 36.4838 53.8552 37.4447C53.6903 37.6845 53.4636 37.8753 53.1992 37.9968C52.9348 38.1184 52.6424 38.1662 52.3531 38.1351ZM48.1827 34.17C47.8842 34.6832 48.5932 35.8587 50.0487 36.717C51.5041 37.5754 52.9129 37.65 53.2114 37.0995C53.51 36.5491 52.8009 35.4109 51.3455 34.5432C49.8901 33.6756 48.4813 33.6569 48.1827 34.17Z" fill="black"/>
    <path d="M47.4551 34.6086C47.2044 34.2903 46.8461 34.0746 46.4475 34.0021C46.3147 33.9949 46.1819 34.0161 46.058 34.0644C45.9341 34.1127 45.822 34.1869 45.7291 34.282L45.2533 33.7689C45.4167 33.607 45.6127 33.4817 45.8282 33.4013C46.0438 33.3208 46.2739 33.2871 46.5035 33.3024C47.0934 33.3983 47.6277 33.7069 48.0055 34.1701L47.4551 34.6086Z" fill="black"/>
    <path d="M32.1731 47.726L31.5201 47.4834L36.1103 34.6832L36.1849 34.6178C37.0178 34.1493 37.9278 33.8334 38.8718 33.6849L39.0024 34.3753C38.2015 34.5032 37.4245 34.7517 36.698 35.1123L32.1731 47.726Z" fill="black"/>
    <path d="M28.1894 49.5826C28.2648 50.3059 28.4915 51.0053 28.8547 51.6354C29.218 52.2654 29.7096 52.8121 30.2978 53.2398C31.7906 54.2381 33.1527 52.596 33.246 50.5249C33.33 48.6589 32.6583 45.86 30.9043 45.7574C29.1503 45.6548 27.9281 47.642 28.1894 49.5826Z" fill="#EEC1BB"/>
    <path d="M29.4675 274.894H30.7643L31.1281 273.289L35.4104 275.229H46.2888C46.2888 275.229 48.0148 273.485 42.8368 272.104C42.5827 272.035 42.3358 271.941 42.0998 271.824C39.3476 270.527 35.4104 266.161 35.4104 266.161H29.4488C29.2694 266.437 29.1073 266.723 28.9637 267.019C28.3106 268.326 27.163 271.068 29.4675 274.894Z" fill="#263238"/>
    <path d="M28.9637 267.019C29.7474 266.142 33.33 269.996 35.9609 271.311C38.3027 272.477 40.9336 272.99 42.0998 271.805C39.3476 270.509 35 264.855 35 264.855H30.2045C30.2045 264.855 29.2436 266.46 28.9637 267.019Z" fill="#FFC2BC"/>
    <path d="M74.7443 274.894H76.0411L76.3956 273.289L80.6873 275.229H91.5377C91.5377 275.229 93.273 273.485 88.095 272.104C87.8403 272.036 87.5933 271.943 87.358 271.824C84.5591 270.527 80.6686 266.161 80.6686 266.161H74.7443C74.5649 266.437 74.4029 266.723 74.2592 267.019C73.5968 268.326 72.4679 271.068 74.7443 274.894Z" fill="#263238"/>
    <path d="M74.2498 267.019C75.0335 266.142 78.6161 269.996 81.2377 271.311C83.5888 272.477 86.2197 272.99 87.3859 271.805C84.5871 270.509 80.2861 264.855 80.2861 264.855H75.4906C75.4906 264.855 74.5297 266.46 74.2498 267.019Z" fill="#FFC2BC"/>
    <path d="M54.9374 114.564H24.0563L23.2259 118.538C23.2259 118.538 11.8811 134.24 17.6281 173.396C17.6281 173.396 42.473 176.26 65.8717 171.241C65.8717 171.241 60.6192 131.021 55.124 117.894L54.9374 114.564Z" fill="#263238"/>
    <path d="M33.2647 117.978H22.8994L23.5245 115.03H33.2647V117.978Z" fill="#263238"/>
    <path d="M52.0826 115.03H55.1894L55.4506 117.978H52.0826V115.03Z" fill="#263238"/>
    <path d="M51.0563 115.03H34.2723V117.988H51.0563V115.03Z" fill="#263238"/>
    <path opacity="0.6" d="M33.2647 117.978H22.8994L23.5245 115.03H33.2647V117.978Z" fill="white"/>
    <path opacity="0.6" d="M52.0826 115.03H55.1894L55.4506 117.978H52.0826V115.03Z" fill="white"/>
    <path opacity="0.6" d="M51.0563 115.03H34.2723V117.988H51.0563V115.03Z" fill="white"/>
    <path d="M41.7174 118.202H46.3822C46.6604 118.202 46.886 117.977 46.886 117.698V115.301C46.886 115.022 46.6604 114.797 46.3822 114.797H41.7174C41.4391 114.797 41.2136 115.022 41.2136 115.301V117.698C41.2136 117.977 41.4391 118.202 41.7174 118.202Z" fill="white"/>
    <path d="M95.4841 73.1306L95.6053 75.491C95.6251 75.9271 95.5426 76.3618 95.3644 76.7603C95.1862 77.1588 94.9173 77.5101 94.5791 77.7861L91.323 80.3798C90.6852 80.892 89.9339 81.2441 89.132 81.4064C88.3302 81.5687 87.5011 81.5366 86.7142 81.3127L85.7252 81.0328C85.2494 77.133 87.5912 72.5615 87.5912 72.5615L88.1136 71.19C88.2129 70.9039 88.3681 70.6404 88.5701 70.4148C88.7721 70.1891 89.0169 70.0059 89.2904 69.8757C89.5638 69.7455 89.8604 69.6709 90.1629 69.6563C90.4654 69.6417 90.7678 69.6873 91.0525 69.7906L93.7954 70.8075C94.2724 70.9885 94.6862 71.3046 94.9861 71.7173C95.2861 72.1299 95.4591 72.6211 95.4841 73.1306Z" fill="#EEC1BB"/>
    <path d="M21.3134 81.0422C17.1991 85.4738 12.3196 90.7823 8.31721 95.3165L8.80237 94.5422C8.89567 94.3089 8.85835 94.1783 8.80237 94.2436C8.91433 96.9119 10.6683 99.4496 12.1144 101.922C14.2415 105.346 16.7792 108.751 19.1769 111.989C19.519 112.452 19.6822 113.023 19.6364 113.597C19.5906 114.171 19.339 114.709 18.9279 115.113C18.5167 115.516 17.9737 115.757 17.3989 115.791C16.8241 115.826 16.2561 115.652 15.7996 115.301C14.0363 113.929 12.4503 112.502 10.8456 110.99C7.49341 107.914 4.59974 104.373 2.25295 100.476C0.592277 97.5277 -0.797843 93.2454 1.47859 89.98C5.35054 84.3604 9.72214 79.102 14.5401 74.2689C19.1396 70.1172 25.4651 76.4427 21.3134 81.0422Z" fill="#EBC0BB"/>
    <path d="M19.0836 70.313C19.0836 70.313 12.133 73.9143 2.56079 87.2743L10.1644 93.4786L21.7612 83.7291C22.9265 80.9887 23.3201 77.9818 22.8994 75.0338C22.0691 70.6489 19.0836 70.313 19.0836 70.313Z" fill="black"/>
    <path d="M11.2467 93.0308L1.8424 85.6044L0.40564 89.7187L9.36211 95.0926L11.2467 93.0308Z" fill="black"/>
    <path opacity="0.6" d="M11.2467 93.0308L1.8424 85.6044L0.40564 89.7187L9.36211 95.0926L11.2467 93.0308Z" fill="white"/>
    <path d="M23.8138 119.602L24.0004 117.251C24.0302 116.814 23.9571 116.376 23.7869 115.972C23.6168 115.569 23.3544 115.211 23.0208 114.927L19.8394 112.259C19.2111 111.735 18.4669 111.369 17.6685 111.19C16.8702 111.012 16.0407 111.026 15.2492 111.233L14.2509 111.494C13.6818 115.375 15.9209 120.003 15.9209 120.003L16.4154 121.393C16.5093 121.681 16.6593 121.947 16.8567 122.177C17.0542 122.407 17.2951 122.595 17.5657 122.732C17.8363 122.868 18.1312 122.949 18.4334 122.971C18.7355 122.992 19.039 122.954 19.3262 122.858L22.1251 121.925C22.6021 121.744 23.0159 121.428 23.3159 121.015C23.6158 120.602 23.7889 120.111 23.8138 119.602Z" fill="#EEC1BB"/>
    <path d="M33.2554 32.1175C33.2554 32.1175 30.755 21.743 21.2388 23.5902C11.7225 25.4375 17.6375 41.1953 15.641 47.0916C13.6444 52.9879 13.2526 62.2056 21.2388 63.885C20.1611 62.9191 19.4212 61.6334 19.1274 60.2164C18.8336 58.7994 19.0013 57.3255 19.6061 56.0108C19.3463 57.4565 19.6537 58.9468 20.4644 60.1718C20.0068 59.2264 19.8362 58.1675 19.9738 57.1262C20.1115 56.0849 20.5512 55.1068 21.2388 54.3127C23.6645 51.5885 28.4972 41.4472 28.973 38.2751C29.4489 35.103 33.2554 32.1175 33.2554 32.1175Z" fill="#263238"/>
    <path d="M92.3658 84.4219L91.4471 84.5844C91.1328 84.64 90.8092 84.5685 90.5477 84.3855C90.2861 84.2026 90.1079 83.9232 90.0523 83.6089L81.4323 34.8716L84.7029 34.2931L93.3164 82.9937C93.3439 83.1493 93.3405 83.3089 93.3064 83.4632C93.2723 83.6175 93.2081 83.7636 93.1175 83.8931C93.0269 84.0226 92.9117 84.133 92.7785 84.218C92.6452 84.303 92.4965 84.3609 92.3409 84.3884L92.3658 84.4219Z" fill="#263238"/>
    <path d="M83.1829 44.7352C93.8887 42.8416 100.947 32.1466 98.9489 20.8471C96.9504 9.54755 86.6515 1.92248 75.9456 3.81599C65.2397 5.70951 58.181 16.4046 60.1795 27.7041C62.178 39.0036 72.477 46.6287 83.1829 44.7352Z" fill="black"/>
    <path opacity="0.6" d="M83.1829 44.7352C93.8887 42.8416 100.947 32.1466 98.9489 20.8471C96.9504 9.54755 86.6515 1.92248 75.9456 3.81599C65.2397 5.70951 58.181 16.4046 60.1795 27.7041C62.178 39.0036 72.477 46.6287 83.1829 44.7352Z" fill="white"/>
    <path d="M85.0198 44.4108C95.7257 42.5172 102.784 31.8222 100.786 20.5227C98.7874 9.22314 88.4885 1.59808 77.7826 3.49159C67.0767 5.38511 60.018 16.0802 62.0165 27.3797C64.015 38.6792 74.314 46.3043 85.0198 44.4108Z" fill="black"/>
    <path opacity="0.7" d="M85.0198 44.4108C95.7257 42.5172 102.784 31.8222 100.786 20.5227C98.7874 9.22314 88.4885 1.59808 77.7826 3.49159C67.0767 5.38511 60.018 16.0802 62.0165 27.3797C64.015 38.6792 74.314 46.3043 85.0198 44.4108Z" fill="white"/>
    <path d="M72.4212 34.5525L79.5957 24.2899L69.3331 17.1154L70.8165 14.9976L81.0791 22.1721L88.2536 11.9095L90.3714 13.3929L83.1969 23.6555L93.4595 30.83L91.9761 32.9478L81.7135 25.7733L74.539 36.036L72.4212 34.5525Z" fill="black"/>
</svg>
