<svg width="164" height="348" viewBox="0 0 164 348" fill="none" xmlns="http://www.w3.org/2000/svg">
    <path d="M109.426 114.572C109.039 114.276 108.653 113.989 108.266 113.709L108.535 113.175L109.709 114.054L109.426 114.572Z" fill="#263238"/>
    <path d="M92.5644 196.886H92.0673V196.27C92.9891 196.294 93.9114 196.253 94.8292 196.146L94.8844 196.763C94.1318 196.828 93.3447 196.886 92.5644 196.886ZM97.6878 196.212L97.5773 195.613C98.4754 195.371 99.357 195.049 100.215 194.651L100.401 195.226C99.5183 195.629 98.6113 195.953 97.6878 196.196V196.212ZM102.956 193.748L102.701 193.214C103.494 192.662 104.249 192.036 104.959 191.341L105.29 191.809C104.559 192.534 103.779 193.186 102.956 193.756V193.748ZM107.327 189.476L106.947 189.057C107.567 188.247 108.137 187.385 108.653 186.477L109.081 186.822C108.551 187.762 107.965 188.654 107.327 189.492V189.476ZM110.489 183.898L110.02 183.635C110.413 182.646 110.735 181.618 110.98 180.563L111.477 180.727C111.226 181.819 110.896 182.883 110.489 183.906V183.898ZM111.981 177.392L111.463 177.342C111.463 176.899 111.511 176.447 111.511 176.012C111.509 175.402 111.479 174.793 111.421 174.188C110.884 174.145 110.349 174.065 109.82 173.95L109.909 173.342C110.753 173.523 111.607 173.616 112.464 173.621H112.644V174.237H112.457H111.939C111.995 174.832 112.022 175.43 112.022 176.028C112.029 176.472 112.008 176.94 111.981 177.4V177.392ZM115.482 173.826L115.364 173.227C116.252 172.977 117.112 172.601 117.926 172.109L118.161 172.66C117.31 173.176 116.41 173.57 115.482 173.835V173.826ZM107.071 173.062C106.179 172.679 105.313 172.212 104.482 171.666L104.738 171.132C105.541 171.66 106.38 172.111 107.244 172.479L107.071 173.062ZM110.786 170.894C110.483 169.867 110.085 168.883 109.599 167.961L110.034 167.632C110.545 168.591 110.962 169.616 111.276 170.688L110.786 170.894ZM120.536 170.762L120.204 170.294C120.905 169.59 121.546 168.806 122.117 167.953L122.518 168.339C121.928 169.232 121.264 170.052 120.536 170.787V170.762ZM102.141 169.776L101.996 169.612C101.313 168.898 100.769 168.015 100.401 167.024L100.885 166.794C101.221 167.701 101.721 168.509 102.349 169.16L102.487 169.308L102.141 169.776ZM124.119 165.579L123.678 165.258C124.161 164.305 124.61 163.328 125.003 162.367L125.473 162.638C125.072 163.615 124.617 164.609 124.119 165.579ZM107.879 165.455C107.248 164.729 106.554 164.084 105.808 163.533L105.704 163.451L105.974 162.925L106.084 163.007C106.854 163.585 107.569 164.26 108.218 165.02L107.879 165.455ZM101.023 163.87L100.595 163.525C100.89 163.031 101.282 162.629 101.737 162.354C102.191 162.08 102.695 161.94 103.205 161.948V162.564C102.78 162.561 102.361 162.678 101.982 162.905C101.602 163.132 101.274 163.462 101.023 163.87ZM126.571 159.541L126.087 159.327C126.407 158.296 126.681 157.246 126.909 156.181L127.406 156.329C127.183 157.418 126.907 158.49 126.578 159.541H126.571ZM127.952 153.026L127.434 152.944C127.557 151.854 127.629 150.757 127.648 149.658H128.166C128.147 150.785 128.075 151.909 127.952 153.026ZM127.551 146.372C127.468 145.269 127.337 144.172 127.158 143.086L127.669 142.963C127.849 144.063 127.982 145.174 128.069 146.29L127.551 146.372ZM126.481 139.915C126.219 138.88 125.908 137.837 125.549 136.802L126.032 136.572C126.391 137.615 126.723 138.683 126.978 139.734L126.481 139.915ZM124.409 133.795C123.995 132.834 123.533 131.864 123.028 130.911L123.47 130.591C123.968 131.552 124.437 132.538 124.851 133.516L124.409 133.795ZM121.503 128.159C120.971 127.272 120.398 126.393 119.804 125.539L120.204 125.145C120.805 126.007 121.385 126.903 121.924 127.798L121.503 128.159ZM117.967 123.05C117.339 122.228 116.676 121.464 115.999 120.708L116.352 120.257C117.042 121.029 117.732 121.826 118.34 122.631L117.967 123.05ZM113.914 118.507C113.224 117.809 112.471 117.119 111.732 116.461L112.036 115.968C112.789 116.626 113.534 117.324 114.246 118.039L113.914 118.507Z" fill="#263238"/>
    <path d="M89.1742 196.59C88.7097 196.521 88.2487 196.423 87.7932 196.294L87.9175 195.695C87.9175 195.695 88.4146 195.842 89.2432 195.982L89.1742 196.59Z" fill="#263238"/>
    <path d="M82.2072 195.366C81.8827 198.652 87.5239 200.492 87.952 196.188C88.3801 191.883 82.5317 192.055 82.2072 195.366Z" fill="#263238"/>
    <path d="M89.5954 200.804C89.0706 202.045 87.2132 202.217 85.2937 200.624C83.9901 199.439 82.8886 197.97 82.0484 196.294C83.6716 196.093 85.3123 196.263 86.8818 196.795C89.1535 197.707 90.1477 199.547 89.5954 200.804Z" fill="#EBEBEB"/>
    <path d="M82.0691 196.294C83.1601 196.878 84.2303 197.51 85.3005 198.134C86.3708 198.759 87.4272 199.424 88.4699 200.114C87.3789 199.531 86.3086 198.898 85.2384 198.274C84.1682 197.65 83.1117 196.984 82.0691 196.294Z" fill="#263238"/>
    <path d="M87.082 200.78C86.8341 200.438 86.6035 200.078 86.3915 199.703C86.183 199.332 85.9939 198.945 85.8253 198.545C86.0732 198.887 86.3038 199.247 86.5158 199.621C86.7258 199.992 86.915 200.379 87.082 200.78Z" fill="#263238"/>
    <path d="M84.762 197.896C85.1419 197.779 85.5268 197.685 85.9151 197.617C86.3065 197.551 86.7007 197.51 87.0958 197.494C86.3311 197.72 85.5493 197.855 84.762 197.896Z" fill="#263238"/>
    <path d="M84.1613 198.438C83.9237 198.087 83.754 197.677 83.6641 197.239C83.9017 197.591 84.0714 198 84.1613 198.438Z" fill="#263238"/>
    <path d="M90.5068 192.203C90.2375 190.848 88.4699 190.174 86.2948 191.193C84.7938 191.988 83.4345 193.117 82.29 194.52C83.8421 195.159 85.483 195.438 87.1234 195.341C89.4503 195.111 90.783 193.6 90.5068 192.203Z" fill="#EBEBEB"/>
    <path d="M82.29 194.52C83.4639 194.257 84.6308 193.928 85.7908 193.608C86.9508 193.288 88.1108 192.943 89.2432 192.557C88.0763 192.819 86.9094 193.148 85.7493 193.468C84.5893 193.789 83.4431 194.134 82.29 194.52Z" fill="#263238"/>
    <path d="M88.0418 191.53C87.7413 191.784 87.4531 192.058 87.1787 192.351C86.9047 192.658 86.6442 192.982 86.3984 193.321C86.702 193.071 86.9904 192.797 87.2615 192.499C87.5373 192.194 87.7978 191.871 88.0418 191.53Z" fill="#263238"/>
    <path d="M85.2108 193.698C85.9103 194.131 86.6463 194.476 87.4065 194.725C86.7084 194.288 85.972 193.944 85.2108 193.698Z" fill="#263238"/>
    <path d="M84.762 193.008C84.6116 193.142 84.4749 193.297 84.3546 193.468C84.2353 193.644 84.1312 193.834 84.0439 194.035C84.1945 193.898 84.3312 193.741 84.4513 193.567C84.5767 193.399 84.6813 193.211 84.762 193.008Z" fill="#263238"/>
    <path d="M82.2072 195.366C82.405 195.393 82.5915 195.49 82.7433 195.643C82.8951 195.797 83.0052 196 83.0599 196.228C83.1146 196.456 83.1114 196.698 83.0507 196.923C82.9899 197.149 82.8744 197.348 82.7186 197.496C82.5628 197.643 82.3738 197.733 82.1754 197.753C81.977 197.772 81.778 197.722 81.6037 197.608C81.4293 197.493 81.2873 197.32 81.1957 197.11C81.104 196.899 81.0668 196.661 81.0886 196.426C81.1198 196.109 81.2549 195.82 81.4644 195.622C81.674 195.423 81.9409 195.331 82.2072 195.366Z" fill="#455A64"/>
    <path d="M82.442 192.975C82.5739 192.994 82.7015 193.043 82.8175 193.12C82.9335 193.197 83.0356 193.3 83.118 193.424C83.2004 193.548 83.2615 193.69 83.2977 193.842C83.3339 193.994 83.3447 194.153 83.3293 194.31C83.3138 194.467 83.2726 194.619 83.2079 194.757C83.1431 194.895 83.0562 195.017 82.952 195.115C82.8478 195.213 82.7284 195.285 82.6006 195.329C82.4728 195.372 82.3392 195.384 82.2072 195.366C81.9408 195.329 81.6976 195.168 81.5312 194.917C81.3648 194.667 81.2888 194.348 81.3199 194.031C81.3511 193.714 81.4868 193.425 81.6972 193.227C81.9076 193.029 82.1755 192.938 82.442 192.975Z" fill="#455A64"/>
    <path d="M19.8566 272.718C19.8566 272.718 5.13557 307.788 5.12866 307.788C3.91342 315.025 2.96055 321.408 2.71888 324.76C2.71531 324.779 2.71531 324.798 2.71888 324.817C2.59143 325.594 2.61743 326.396 2.79483 327.159C2.79126 327.177 2.79126 327.197 2.79483 327.216C4.36223 329.106 52.7374 342.356 54.581 342.143C56.4246 341.929 56.031 335.743 54.4981 333.451C52.9653 331.159 36.3454 316.2 36.3454 316.2L50.735 281.073L19.8566 272.718Z" fill="#D3766A"/>
    <path d="M53.8491 342.175C52.0331 342.389 4.38296 329.13 2.82247 327.249C2.8202 327.23 2.8202 327.21 2.82247 327.191C2.64177 326.429 2.6134 325.628 2.73961 324.85C2.73379 324.832 2.73379 324.811 2.73961 324.793C2.97438 321.441 3.93414 315.058 5.14249 307.812L8.66394 299.417L39.1902 309.373L36.373 316.257C36.373 316.257 52.2541 331.184 53.7938 333.509C55.3336 335.834 55.672 341.97 53.8491 342.175Z" fill="#EBEBEB"/>
    <path d="M54.5119 341.255C52.6683 341.42 4.17579 326.715 2.62911 324.76C2.0353 324.029 3.42317 315.493 5.34961 305.241L5.41175 304.921L36.7873 313.998L36.6422 314.623C36.6422 314.623 53.0826 330.132 54.5948 332.498C56.1069 334.864 56.3486 341.099 54.5119 341.255Z" fill="#263238"/>
    <path d="M54.436 338.849C46.3159 336.138 13.3385 326.082 5.13557 324.127C5.06652 324.127 5.05272 324.168 5.13557 324.193C13.1383 327.093 46.1847 336.828 54.4222 338.98C54.581 339.054 54.6086 338.906 54.436 338.849Z" fill="white"/>
    <path d="M39.2454 315.534C36.1797 313.842 32.1196 313.234 29.0815 315.222C28.9641 315.296 29.0815 315.493 29.1644 315.485C32.4918 315.237 35.8321 315.413 39.128 316.011C39.1764 316.014 39.2244 315.998 39.264 315.965C39.3037 315.932 39.3327 315.884 39.3463 315.828C39.36 315.773 39.3574 315.714 39.3391 315.66C39.3207 315.607 39.2877 315.563 39.2454 315.534Z" fill="white"/>
    <path d="M41.2063 317.9C38.1475 316.216 34.0875 315.608 31.0424 317.588C30.9251 317.662 31.0424 317.859 31.1322 317.859C34.4596 317.607 37.8003 317.783 41.0959 318.385C41.1462 318.391 41.1967 318.375 41.2383 318.341C41.2799 318.307 41.31 318.256 41.3232 318.198C41.3365 318.14 41.332 318.078 41.3106 318.024C41.2892 317.969 41.2523 317.926 41.2063 317.9Z" fill="white"/>
    <path d="M43.1742 320.275C40.1085 318.582 36.0485 317.974 33.0103 319.954C32.893 320.036 33.0103 320.233 33.1001 320.225C36.4253 319.977 39.7632 320.153 43.0569 320.751C43.1052 320.754 43.1532 320.738 43.1928 320.705C43.2325 320.672 43.2615 320.624 43.2752 320.568C43.2888 320.513 43.2862 320.454 43.2679 320.4C43.2496 320.347 43.2165 320.303 43.1742 320.275Z" fill="white"/>
    <path d="M55.6927 339.415C56.4729 340.073 55.5408 343.482 54.8572 343.572C54.1736 343.662 1.35864 327.348 0.523157 326.83C-0.312326 326.312 0.833874 322.583 1.90412 322.723C2.97437 322.862 55.6927 339.415 55.6927 339.415Z" fill="black"/>
    <path d="M12.0335 313.809C8.96777 310.655 4.83869 316.323 7.89062 319.486C10.9425 322.649 15.1062 316.972 12.0335 313.809Z" fill="white"/>
    <path d="M8.75372 296.615L44.134 307.229C44.134 307.229 77.1114 236.424 76.3726 218.425C75.3576 193.6 50.8593 117.266 50.8593 117.266H21.5276C21.5276 117.266 40.9923 199.786 41.2616 213.669C41.379 220.931 8.75372 296.615 8.75372 296.615Z" fill="#455A64"/>
    <path d="M45.6462 298.686C43.7611 297.79 26.9203 292.007 14.3535 288.828C14.3397 288.833 14.3277 288.843 14.3191 288.857C14.3106 288.872 14.306 288.888 14.306 288.906C14.306 288.923 14.3106 288.94 14.3191 288.954C14.3277 288.968 14.3397 288.978 14.3535 288.984C18.31 290.627 43.2778 298.456 45.6185 298.842C45.6738 298.866 45.729 298.751 45.6462 298.686Z" fill="#263238"/>
    <path d="M43.6921 195.941C41.3583 184.292 38.8587 172.676 36.2349 161.134C33.6111 149.592 30.8008 137.943 27.7143 126.492C27.3415 125.087 26.9479 123.699 26.5681 122.302C26.5572 122.257 26.5317 122.22 26.4974 122.197C26.4631 122.175 26.4227 122.17 26.3852 122.183C26.3476 122.196 26.316 122.226 26.2972 122.267C26.2784 122.308 26.2741 122.356 26.285 122.401C29.047 133.811 31.8089 145.197 34.4258 156.649C37.0428 168.101 39.5354 179.585 41.883 191.152C42.4699 194.011 43.043 196.861 43.6023 199.728C44.2523 202.667 44.755 205.648 45.1076 208.658C45.3979 211.533 45.2316 214.448 44.6173 217.251C43.9511 220.004 43.0799 222.682 42.0142 225.252C37.7839 236.178 33.5558 247.107 29.3301 258.038C25.1043 268.997 24.4207 271.494 20.3538 282.543C19.8498 283.915 19.3457 285.287 18.8624 286.651C18.8624 286.741 18.9383 286.823 18.9797 286.725C23.606 275.897 24.3172 273.293 28.6465 262.269C32.9758 251.244 37.2775 240.088 41.5723 228.99C43.5057 223.979 45.7774 218.869 46.0674 213.266C46.3574 207.417 44.8107 201.552 43.6921 195.941Z" fill="#263238"/>
    <path d="M45.294 286.585L46.4264 325.195C46.6128 332.589 46.8821 339.054 47.2895 342.381C47.2861 342.4 47.2861 342.42 47.2895 342.439C47.3127 343.228 47.4874 344.001 47.8005 344.698L47.8419 344.747C49.7269 346.168 99.3657 346.135 101.099 345.437C102.832 344.739 101.299 338.824 99.3726 336.992C97.4461 335.16 78.4302 325.064 78.4302 325.064L76.9871 286.495L45.294 286.585Z" fill="#D3766A"/>
    <path d="M46.1917 317.292C46.1917 317.292 46.4264 325.195 46.4264 325.22C46.6128 332.613 46.8821 339.079 47.2895 342.406C47.2862 342.425 47.2862 342.444 47.2895 342.463C47.3839 343.238 47.5554 343.996 47.8005 344.722L47.8419 344.772C49.7269 346.193 99.3657 346.16 101.099 345.462C102.832 344.763 101.299 338.849 99.3726 337.017C97.4461 335.185 78.4303 325.088 78.4303 325.088L78.2852 317.046L46.1917 317.292Z" fill="#EBEBEB"/>
    <path d="M101.126 345.396C99.3726 346.061 49.3403 345.141 47.4483 343.662C46.7579 343.112 46.4126 334.437 46.2883 323.947V323.618L78.5753 323.782V324.439C78.5753 324.439 97.5981 334.979 99.5245 336.86C101.451 338.742 102.887 344.755 101.126 345.396Z" fill="#263238"/>
    <path d="M100.595 343.112C92.1639 342.71 58.1232 342.036 49.7614 342.406C49.6924 342.406 49.6924 342.463 49.7614 342.463C58.1094 343.079 92.157 343.432 100.595 343.285C100.767 343.235 100.774 343.112 100.595 343.112Z" fill="white"/>
    <path d="M81.2681 324.587C77.9607 323.766 73.8869 324.316 71.3183 327.052C71.2147 327.159 71.3183 327.323 71.4564 327.29C74.6442 326.133 77.9262 325.381 81.2474 325.047C81.2874 325.032 81.3226 325.003 81.3482 324.963C81.3739 324.924 81.3888 324.876 81.3911 324.826C81.3933 324.776 81.3828 324.726 81.3608 324.684C81.3388 324.641 81.3065 324.608 81.2681 324.587Z" fill="white"/>
    <path d="M83.6434 326.345C80.3291 325.524 76.2621 326.082 73.6935 328.851C73.59 328.958 73.6935 329.122 73.8247 329.081C77.0143 327.922 80.299 327.173 83.6227 326.846C83.6727 326.839 83.7189 326.811 83.7531 326.767C83.7874 326.723 83.8075 326.666 83.81 326.606C83.8125 326.546 83.7971 326.487 83.7666 326.44C83.7362 326.392 83.6925 326.358 83.6434 326.345Z" fill="white"/>
    <path d="M86.0117 328.112C82.7043 327.29 78.6374 327.84 76.0619 330.576C75.9652 330.683 76.0619 330.847 76.2 330.814C79.388 329.657 82.6699 328.906 85.991 328.572C86.031 328.556 86.0662 328.527 86.0918 328.487C86.1175 328.448 86.1324 328.4 86.1347 328.35C86.1369 328.3 86.1264 328.251 86.1044 328.208C86.0825 328.165 86.0501 328.132 86.0117 328.112Z" fill="white"/>
    <path d="M101.92 343.276C102.811 343.704 102.57 347.277 101.92 347.548C101.271 347.819 46.6819 346.529 45.7912 346.267C44.9004 346.004 45.2595 342.052 46.3435 341.863C47.4276 341.674 101.92 343.276 101.92 343.276Z" fill="black"/>
    <path d="M54.4636 330.42C50.8662 328.194 47.9524 334.848 51.5567 337.074C55.161 339.3 58.0679 332.646 54.4636 330.42Z" fill="white"/>
    <path d="M50.4933 117.201C50.3621 117.915 43.0499 152.311 42.1385 152.952C41.1028 153.683 68.7082 197.871 71.9811 219.567C74.0526 233.442 78.8859 314.319 78.8859 314.319H43.6852C43.6852 314.319 40.2328 245.633 39.0866 223.001C38.6377 214.219 10.9494 173.621 8.31868 146.553C7.4901 138.026 12.6411 117.168 12.6411 117.168L50.4933 117.201Z" fill="#455A64"/>
    <path d="M42.7945 281.64C42.3802 270.262 42.0004 258.859 41.303 247.498C40.9094 241.058 40.1361 234.822 39.5975 228.407C39.5975 228.07 39.342 227.988 39.349 228.333C39.5975 239.76 40.3916 251.063 40.9025 262.482C41.4135 273.901 41.9037 276.563 42.4492 287.949C42.753 294.389 43.0223 300.83 43.4435 307.262C43.4481 307.278 43.4568 307.293 43.4686 307.303C43.4804 307.313 43.4946 307.318 43.5091 307.318C43.5237 307.318 43.5378 307.313 43.5496 307.303C43.5614 307.293 43.5702 307.278 43.5747 307.262C43.5954 295.827 43.2157 293.058 42.7945 281.64Z" fill="#263238"/>
    <path d="M72.0156 220.109C71.7145 217.105 71.2252 214.131 70.5518 211.213C69.8267 208.384 68.8716 205.647 67.7001 203.039C65.3041 197.568 62.5767 192.277 59.946 186.962C57.3153 181.647 54.574 176.217 51.7983 170.91C50.2378 167.931 48.6704 164.954 47.0961 161.98C45.4942 158.982 43.8025 156.041 42.1523 153.084C42.1395 153.059 42.1188 153.041 42.0948 153.034C42.0709 153.027 42.0456 153.031 42.0245 153.047C42.0035 153.062 41.9884 153.086 41.9826 153.115C41.9767 153.143 41.9807 153.174 41.9935 153.199C44.6863 158.571 47.3516 163.952 50.0445 169.325C52.7374 174.697 55.3888 180.086 58.0403 185.475C60.6917 190.864 63.2672 196.089 65.7668 201.478C66.9975 204.037 68.0572 206.707 68.9361 209.463C69.7535 212.319 70.3475 215.259 70.7106 218.245C71.6497 225.203 72.4161 232.21 73.5899 239.102C73.5945 239.119 73.6032 239.133 73.615 239.143C73.6268 239.154 73.641 239.159 73.6555 239.159C73.6701 239.159 73.6842 239.154 73.696 239.143C73.7078 239.133 73.7166 239.119 73.7211 239.102C73.3552 232.761 72.7199 226.41 72.0156 220.109Z" fill="#263238"/>
    <path d="M75.7857 307.139C73.7764 306.827 58.4408 306.194 45.6116 306.851C45.5288 306.851 45.5357 306.999 45.6116 307.007C49.7891 307.443 73.4104 307.64 75.765 307.311C75.8271 307.303 75.8548 307.155 75.7857 307.139Z" fill="#263238"/>
    <path d="M46.7302 150.603C43.1438 152.157 39.6782 154.081 36.373 156.353C36.3446 156.368 36.3225 156.396 36.3115 156.431C36.3005 156.466 36.3015 156.504 36.3143 156.538C36.3271 156.572 36.3507 156.598 36.3798 156.611C36.409 156.624 36.4413 156.623 36.4697 156.608C39.9635 154.817 43.5333 153.108 46.9443 151.096C46.9992 151.062 47.0406 151.003 47.0594 150.933C47.0782 150.863 47.0728 150.787 47.0444 150.722C47.016 150.656 46.967 150.607 46.908 150.585C46.8491 150.562 46.7852 150.569 46.7302 150.603Z" fill="#263238"/>
    <path d="M47.7867 122.13C47.7867 121.99 47.5657 121.957 47.5657 122.13C47.5664 126.772 47.3705 131.411 46.9788 136.029C46.8131 138.173 45.3631 149.995 42.2421 149.173C41.7173 149.025 41.4549 148.417 41.3721 147.473C41.3808 146.246 41.52 145.026 41.7864 143.842C42.1316 141.377 42.4078 138.913 42.5873 136.374C42.9534 131.71 42.9118 127.013 42.4631 122.36C42.4572 122.333 42.4442 122.31 42.4261 122.294C42.408 122.277 42.3858 122.268 42.3629 122.268C42.3401 122.268 42.3179 122.277 42.2998 122.294C42.2816 122.31 42.2687 122.333 42.2628 122.36C42.3532 128.825 42.0347 135.289 41.3099 141.698C40.9164 144.778 39.6114 149.42 42.3249 149.913C45.0385 150.405 46.8683 142.626 47.1998 140.498C48.0635 134.431 48.2608 128.257 47.7867 122.13Z" fill="#263238"/>
    <path d="M42.3249 149.428C42.0483 150.23 41.8176 151.053 41.6345 151.892C41.4357 152.537 41.3375 153.219 41.3445 153.905C41.3478 153.933 41.3583 153.959 41.3744 153.98C41.3905 154.001 41.4116 154.015 41.4348 154.022C41.4581 154.028 41.4823 154.025 41.5044 154.015C41.5265 154.004 41.5454 153.986 41.5585 153.963C41.8847 153.357 42.1293 152.695 42.2835 151.999C42.5252 151.235 42.7738 150.488 42.974 149.715C43.0061 149.613 43.0026 149.5 42.9644 149.4C42.9262 149.301 42.8564 149.224 42.7703 149.186C42.6842 149.147 42.589 149.151 42.5054 149.197C42.4219 149.242 42.357 149.325 42.3249 149.428Z" fill="#263238"/>
    <path d="M43.7957 234.042C43.4642 228.193 43.485 222.024 41.3928 216.602C40.2816 213.96 39.0028 211.422 37.5675 209.011C36.1405 206.415 34.7319 203.806 33.3418 201.182C27.8179 190.692 22.4874 179.988 17.6333 169.021C15.2926 163.738 13.1383 158.284 11.9645 152.451C10.8198 146.313 10.6023 139.982 11.3223 133.754C11.488 132.201 11.6675 130.657 11.8816 129.112C11.8823 129.091 11.8769 129.071 11.8662 129.054C11.8556 129.038 11.8404 129.026 11.8233 129.021C11.8062 129.016 11.7882 129.018 11.7724 129.028C11.7565 129.037 11.7439 129.052 11.7366 129.071C10.6005 134.994 10.2119 141.085 10.5835 147.144C11.1148 152.937 12.4862 158.577 14.6366 163.812C16.7771 169.325 19.325 174.631 21.8383 179.914C24.43 185.39 27.0975 190.788 29.841 196.105C32.603 201.412 35.4478 206.612 38.2994 211.837C39.754 214.301 40.8877 217.013 41.6621 219.879C42.2899 222.871 42.651 225.933 42.7392 229.015C43.4297 241.945 46.1916 284.934 47.1721 297.798C47.2895 299.441 47.4138 301.084 47.545 302.727C47.5411 302.744 47.5405 302.762 47.5433 302.78C47.5461 302.797 47.5523 302.813 47.5613 302.828C47.5703 302.842 47.582 302.853 47.5953 302.861C47.6087 302.869 47.6233 302.873 47.6382 302.873C47.6531 302.873 47.6678 302.869 47.6811 302.861C47.6944 302.853 47.7061 302.842 47.7151 302.828C47.7241 302.813 47.7303 302.797 47.7331 302.78C47.7359 302.762 47.7354 302.744 47.7314 302.727C47.3171 289.813 44.5069 246.931 43.7957 234.042Z" fill="#263238"/>
    <path d="M26.8995 128.537C26.8995 128.447 26.7753 128.48 26.7753 128.537C26.6717 132.127 26.7753 135.84 25.5945 139.217C24.5312 142.33 22.3907 144.515 19.9947 146.15C18.6013 147.08 17.1652 147.917 15.693 148.656C15.5895 148.713 15.6309 148.91 15.7483 148.869C18.5102 147.818 21.3619 146.676 23.675 144.474C26.1469 142.108 27.231 138.683 27.3484 134.986C27.3907 132.824 27.2402 130.662 26.8995 128.537Z" fill="#263238"/>
    <path d="M42.2213 70.0221C46.1709 84.4476 56.8388 109.019 60.6503 111.984C64.0267 114.605 79.9147 111.68 86.8886 109.684C89.4848 108.936 83.6433 85.3923 80.8745 86.2549C77.5533 87.2899 67.6587 89.9434 66.9406 89.2862C66.2225 88.629 56.245 74.0064 49.1745 65.3971C42.7392 57.6011 40.7299 64.5674 42.2213 70.0221Z" fill="#D3766A"/>
    <path d="M85.3627 109.865C86.6953 109.668 97.9709 109.043 103.143 105.7C105.905 103.917 112.954 98.0187 112.25 95.8993C111.608 93.9688 109.343 95.0203 109.343 95.0203C109.343 95.0203 112.457 92.334 111.546 89.6559C110.634 86.9778 106.871 88.9905 106.871 88.9905C106.871 88.9905 109.902 85.951 108.832 83.3632C107.762 80.7755 104.268 83.544 104.268 83.544C104.268 83.544 107.147 80.9234 105.511 79.2311C103.536 77.1938 98.6821 82.7471 95.4023 84.0451C94.6566 84.3408 79.9631 88.7605 79.9631 88.7605L85.3627 109.865Z" fill="#D3766A"/>
    <path d="M104.144 83.4701C100.567 87.5365 98.4059 88.5798 93.6277 89.7299C93.538 89.7299 93.5449 89.927 93.6277 89.9106C98.3921 89.2945 101.258 88.4483 104.303 83.6672C104.468 83.429 104.31 83.2729 104.144 83.4701Z" fill="#263238"/>
    <path d="M106.754 88.8919C102.728 92.7365 100.394 93.8866 95.4644 95.5296C95.3954 95.5296 95.423 95.7021 95.4989 95.6857C100.443 94.552 103.288 93.6319 106.885 89.163C107.051 88.9658 106.94 88.7194 106.754 88.8919Z" fill="#263238"/>
    <path d="M109.101 95.0859C104.959 98.4705 102.466 99.8752 97.5082 100.738C97.4844 100.738 97.4616 100.749 97.4448 100.769C97.4279 100.789 97.4185 100.816 97.4185 100.845C97.4185 100.873 97.4279 100.9 97.4448 100.92C97.4616 100.94 97.4844 100.951 97.5082 100.951C102.639 100.656 105.794 98.9387 109.157 95.2502C109.405 95.0202 109.357 94.8805 109.101 95.0859Z" fill="#263238"/>
    <path d="M76.1102 89.5162C76.1102 89.5162 80.2186 83.9875 82.4696 82.0324C84.7205 80.0772 95.3816 76.4626 96.1687 79.1571C97.1837 82.6403 91.3768 86.1645 88.3456 87.446C88.3456 87.446 90.7001 95.4967 86.9646 99.0949C83.2291 102.693 76.1102 89.5162 76.1102 89.5162Z" fill="#D3766A"/>
    <path d="M96.1894 80.2333C95.1882 84.2011 91.1144 85.5812 88.2489 87.0846C88.2065 87.1063 88.169 87.1396 88.1393 87.1816C88.1095 87.2237 88.0885 87.2734 88.0778 87.3268C88.067 87.3803 88.0669 87.4359 88.0775 87.4894C88.088 87.5429 88.1089 87.5927 88.1384 87.635C88.9394 91.0852 89.2156 96.2278 87.1856 99.1359C87.1303 99.218 87.2201 99.3331 87.2891 99.2591C89.8232 96.4989 89.8922 91.4138 88.8151 87.7007C91.7773 86.2138 95.8097 84.6119 96.2171 80.2497C96.224 80.2333 96.1963 80.2333 96.1894 80.2333Z" fill="#263238"/>
    <path d="M85.3558 113.915L80.1495 85.7045L67.2651 88.4893C62.1832 81.5641 52.0262 67.7219 47.9316 63.5651C43.0983 58.6854 39.9359 62.3493 41.7173 69.7428C45.7428 86.641 57.5155 111.45 60.5951 113.791C65.0625 117.201 85.3558 113.915 85.3558 113.915Z" fill="black"/>
    <path opacity="0.1" d="M66.9613 97.074C67.5992 97.239 68.249 97.3298 68.9016 97.3451C70.2825 97.5669 70.8902 99.9903 69.6335 100.91C68.9736 101.394 68.2275 101.687 67.4553 101.765C66.683 101.844 65.9061 101.706 65.1868 101.362C63.8058 100.721 62.6389 99.1278 62.9358 97.2548C62.9872 96.9056 63.1137 96.5782 63.303 96.3045C63.4923 96.0307 63.7379 95.8199 64.0159 95.6925C64.294 95.5651 64.595 95.5256 64.8897 95.5776C65.1844 95.6297 65.4628 95.7717 65.6977 95.9897C66.0804 96.4108 66.5047 96.7749 66.9613 97.074ZM63.3984 90.3624C62.9013 93.1555 66.5332 95.5543 68.3906 94.0674C68.5403 93.9325 68.6626 93.7591 68.7483 93.5603C68.8339 93.3614 68.8808 93.1422 68.8855 92.9188C68.8901 92.6954 68.8524 92.4737 68.7751 92.27C68.6978 92.0664 68.5829 91.8861 68.439 91.7425C67.8935 91.2168 67.4378 91.1346 66.9544 90.6582C66.7855 90.5012 66.6366 90.3158 66.5125 90.1078C66.2386 89.6586 65.888 89.2835 65.4837 89.0069C65.2733 88.9 65.0453 88.8513 64.8168 88.8644C64.5883 88.8775 64.3653 88.952 64.1645 89.0825C63.9638 89.213 63.7905 89.396 63.6578 89.6177C63.5251 89.8394 63.4364 90.094 63.3984 90.3624ZM57.6053 90.5103C56.8596 91.6686 57.4189 93.4102 58.0748 94.4617C58.3701 94.9854 58.7768 95.4065 59.2535 95.6821C59.7302 95.9578 60.2599 96.0781 60.7884 96.0307C60.981 95.9985 61.1617 95.9007 61.3086 95.749C61.4555 95.5974 61.5624 95.3984 61.6164 95.1761C61.6704 94.9538 61.6692 94.7177 61.613 94.4962C61.5567 94.2747 61.4478 94.0772 61.2994 93.9277C60.8841 93.552 60.5523 93.0613 60.3327 92.4983C60.0082 91.6275 59.7941 90.5021 58.9517 90.1242C58.7217 90.0116 58.4677 89.9884 58.2259 90.0577C57.9841 90.127 57.7669 90.2854 57.6053 90.5103ZM72.8995 108.78C71.9259 111.122 74.8881 113.783 76.6833 113.323C77.284 113.167 77.864 112.231 77.3324 111.557C76.9043 111.015 76.3933 110.588 75.9928 110.013C75.5026 109.314 75.2333 108.419 74.4669 108.066C74.1785 107.922 73.8547 107.916 73.5628 108.049C73.2709 108.182 73.0333 108.444 72.8995 108.78ZM45.0868 80.0691C44.917 79.6844 44.6819 79.346 44.3964 79.0751C44.783 80.2525 45.1904 81.4327 45.6185 82.6157C45.6415 81.7248 45.4575 80.8436 45.0868 80.0691ZM48.9328 77.6046C48.7976 75.5753 48.1311 73.6475 47.0271 72.0923C46.1985 70.819 44.7623 68.8064 43.2433 69.2418C43.0818 69.3018 42.9409 69.4221 42.8414 69.5848C42.7419 69.7476 42.6891 69.9442 42.6909 70.1454C42.5942 71.5337 43.9337 73.0206 44.5138 74.1297C45.2042 75.5262 45.7497 77.0706 46.4954 78.4589C46.6513 78.7444 46.8806 78.9621 47.1491 79.0797C47.4176 79.1973 47.7109 79.2084 47.9851 79.1114C48.2593 79.0143 48.4998 78.8144 48.6706 78.5413C48.8414 78.2682 48.9334 77.9367 48.9328 77.5964V77.6046ZM48.484 86.4357C48.7538 86.4191 49.0121 86.3 49.2209 86.096C49.4296 85.892 49.578 85.6137 49.644 85.302C49.7513 84.6642 49.7156 84.0041 49.5405 83.3879C49.4372 82.8012 49.1981 82.2605 48.85 81.8271C48.7253 81.6899 48.5729 81.5935 48.4075 81.5475C48.2422 81.5014 48.0696 81.5073 47.9068 81.5644C47.7439 81.6215 47.5963 81.728 47.4784 81.8734C47.3605 82.0188 47.2764 82.1982 47.2342 82.3939C47.179 82.8736 47.179 83.36 47.2342 83.8397C47.2342 84.0451 47.2342 84.2505 47.2342 84.4641C47.2307 84.7736 47.2585 85.0825 47.3171 85.3842C47.3914 85.6843 47.545 85.9479 47.7553 86.1358C47.9655 86.3238 48.2211 86.426 48.484 86.4274V86.4357Z" fill="#030402"/>
    <path d="M80.8469 111.45C80.2531 109.807 78.7755 102.512 78.4509 100.697C78.1264 98.8812 76.925 91.5371 76.5728 89.6723C76.5728 89.5655 76.6695 89.508 76.6902 89.6065C77.0631 91.4467 78.7271 98.6923 79.0931 100.5C79.459 102.307 80.8331 109.594 80.9298 111.425C80.9311 111.432 80.9314 111.439 80.9306 111.445C80.9297 111.452 80.9278 111.458 80.9249 111.464C80.9191 111.475 80.9097 111.484 80.8987 111.487C80.8877 111.49 80.8761 111.488 80.8664 111.481C80.8566 111.474 80.8496 111.463 80.8469 111.45Z" fill="#263238"/>
    <path opacity="0.1" d="M68.8809 115.328C65.2558 115.328 62.0727 114.917 60.5951 113.791C57.4948 111.409 45.7221 86.682 41.669 69.751C40.6471 65.5121 41.2616 62.489 42.8773 61.61L68.8809 115.328Z" fill="black"/>
    <path d="M10.4523 121.07C10.542 121.226 53.6281 127.798 54.0907 127.322C54.3344 125.894 54.5073 124.452 54.6086 123C54.6086 123 50.659 67.188 48.6152 63.9102C46.8269 61.0514 41.3997 58.9812 37.7056 60.846C29.9515 64.7564 11.3844 114.621 11.5847 116.708C11.5709 116.683 10.3418 120.873 10.4523 121.07Z" fill="black"/>
    <path opacity="0.1" d="M25.9881 114.276C26.6526 114.66 27.3462 114.968 28.0595 115.196C29.4958 115.878 29.6269 118.729 28.0595 119.304C27.2263 119.618 26.3429 119.697 25.4797 119.533C24.6165 119.368 23.7975 118.967 23.0881 118.359C21.7071 117.209 20.8164 115.073 21.5621 113.167C21.699 112.804 21.9119 112.49 22.1806 112.253C22.4492 112.017 22.7644 111.867 23.096 111.817C23.4275 111.768 23.7641 111.821 24.0735 111.971C24.3829 112.121 24.6547 112.363 24.8626 112.674C25.2493 113.208 25.4841 113.915 25.9881 114.276ZM23.6267 105.79C22.4459 108.69 25.8638 112.477 28.2322 111.45C28.4306 111.356 28.6078 111.208 28.7501 111.018C28.8923 110.829 28.9956 110.602 29.0518 110.357C29.108 110.112 29.1156 109.854 29.074 109.605C29.0325 109.356 28.9428 109.121 28.8122 108.92C28.3426 108.172 27.8593 107.934 27.4312 107.277C27.2834 107.05 27.1648 106.798 27.0791 106.529C26.8749 105.956 26.5768 105.436 26.2022 105.001C25.3805 104.057 24.0617 104.722 23.6267 105.79ZM19.6357 102.701C18.3445 103.276 18.013 105.346 18.1097 106.809C18.1296 107.519 18.3075 108.21 18.6253 108.812C18.9431 109.414 19.3895 109.905 19.9188 110.234C20.1185 110.341 20.3399 110.376 20.556 110.335C20.7721 110.295 20.9738 110.181 21.1367 110.007C21.2996 109.833 21.4167 109.607 21.4738 109.356C21.5309 109.105 21.5256 108.839 21.4585 108.591C21.2393 107.935 21.1633 107.222 21.2376 106.521C21.355 105.47 21.7071 104.237 21.1202 103.293C20.9569 103.02 20.7253 102.817 20.4586 102.71C20.192 102.604 19.9039 102.601 19.6357 102.701ZM33.7905 112.477C33.4637 112.444 33.1385 112.561 32.8817 112.803C32.6249 113.046 32.456 113.397 32.4096 113.783C32.3742 114.198 32.4618 114.615 32.6572 114.962C32.8526 115.308 33.1436 115.562 33.4798 115.681C33.9507 115.866 34.459 115.866 34.9298 115.681C35.1708 115.568 35.3694 115.355 35.4891 115.081C35.6278 114.817 35.684 114.503 35.6479 114.194C35.6097 113.906 35.4988 113.638 35.3298 113.427C35.1609 113.216 34.9419 113.071 34.702 113.011C34.6585 112.943 34.6074 112.882 34.5501 112.83C34.3309 112.628 34.0671 112.505 33.7905 112.477ZM23.2055 92.6543C22.0455 94.0673 22.515 97.2794 23.8407 98.3637C24.0114 98.5181 24.213 98.6167 24.4257 98.6496C24.6383 98.6826 24.8544 98.6488 25.0527 98.5517C25.2509 98.4545 25.4243 98.2973 25.5557 98.0958C25.6871 97.8942 25.7719 97.6552 25.8017 97.4026C25.8221 97.0772 25.8221 96.7504 25.8017 96.425C25.8017 96.0718 25.7602 95.85 25.8017 95.6035C25.9049 94.9011 25.9259 94.1851 25.8638 93.4758C25.8102 93.1394 25.6773 92.8281 25.4807 92.5781C25.2841 92.3281 25.0318 92.1496 24.7533 92.0636C24.4747 91.9775 24.1814 91.9873 23.9074 92.0919C23.6333 92.1965 23.3899 92.3915 23.2055 92.6543ZM15.7137 113.093C14.1187 115.344 16.7495 119.205 18.814 119.279C19.5045 119.279 20.3538 118.458 19.9257 117.554C19.5804 116.831 19.1178 116.19 18.814 115.443C18.4411 114.523 18.3514 113.446 17.5918 112.822C17.3086 112.574 16.9566 112.465 16.6076 112.515C16.2587 112.565 15.939 112.772 15.7137 113.093ZM53.8076 112.378C53.5477 112.425 53.3052 112.562 53.111 112.773C52.9167 112.983 52.7795 113.258 52.7167 113.561C52.4957 114.473 52.4681 115.287 51.895 116.026C51.2747 116.606 50.718 117.277 50.2378 118.022C50.1577 118.208 50.1195 118.416 50.1271 118.625C50.1346 118.834 50.1876 119.037 50.2809 119.214C50.3741 119.391 50.5045 119.536 50.6591 119.636C50.8137 119.735 50.9874 119.785 51.1631 119.78C52.3689 119.604 53.4727 118.887 54.2495 117.776C54.1114 116.215 53.9733 114.383 53.8145 112.346L53.8076 112.378ZM50.3552 105.601C49.9685 106.718 50.0376 107.983 49.7131 109.15C49.4282 110.219 49.0893 111.267 48.6981 112.288C48.4081 113.027 48.9881 114.194 49.7407 113.8C50.9647 113.241 51.966 112.152 52.544 110.752C53.0688 109.462 53.6488 107.293 53.1448 105.922C52.6407 104.55 50.9283 103.95 50.3414 105.568L50.3552 105.601ZM46.4195 116.798C45.8456 117.68 45.1115 118.396 44.2721 118.893C44.072 118.967 43.8875 119.09 43.7307 119.256C43.5738 119.421 43.4483 119.624 43.3624 119.851C43.2765 120.078 43.2322 120.325 43.2324 120.574C43.2327 120.823 43.2774 121.069 43.3637 121.296C43.45 121.523 43.5759 121.726 43.733 121.891C43.8901 122.055 44.0749 122.179 44.275 122.252C44.4752 122.325 44.6862 122.347 44.894 122.316C45.1018 122.285 45.3017 122.202 45.4804 122.072C46.1948 121.708 46.8334 121.161 47.3512 120.472C47.869 119.782 48.2533 118.965 48.4771 118.08C48.8016 116.658 47.1859 115.73 46.4057 116.765L46.4195 116.798ZM40.1085 76.5448C40.4942 76.6419 40.8967 76.5576 41.2313 76.3095C41.566 76.0614 41.807 75.6688 41.9037 75.214C42.2904 73.4478 40.9647 71.6322 39.9151 70.5314C38.8656 69.4306 37.388 68.4284 35.9172 68.9952C35.7214 69.0707 35.5451 69.2045 35.4049 69.3838C35.2648 69.5631 35.1654 69.782 35.1163 70.0199C35.0672 70.2577 35.07 70.5064 35.1243 70.7426C35.1787 70.9788 35.2829 71.1945 35.427 71.3694C36.0691 72.3223 36.9599 73.0124 37.6434 73.9489C38.327 74.8854 38.8932 76.2737 40.0946 76.5119L40.1085 76.5448ZM45.4045 83.5193C45.9845 82.5253 45.5356 81.0548 45.1214 80.1101C44.9007 79.589 44.5577 79.1552 44.134 78.8614C43.8488 78.6443 43.503 78.57 43.172 78.6546C42.841 78.7392 42.5514 78.9759 42.3663 79.3132C42.178 79.7804 42.1483 80.3159 42.2835 80.8084C42.3411 81.066 42.4198 81.3164 42.5182 81.5559V81.6299V81.6956C42.6416 82.4801 42.921 83.218 43.333 83.8479C43.4756 84.0187 43.6495 84.148 43.8411 84.2256C44.0326 84.3032 44.2367 84.327 44.4373 84.2952C44.6379 84.2634 44.8295 84.1768 44.9973 84.0422C45.1651 83.9076 45.3045 83.7286 45.4045 83.5193ZM48.9673 77.6374C48.8321 75.6081 48.1656 73.6803 47.0616 72.1251C46.233 70.8518 44.7968 68.8392 43.2778 69.2746C43.1163 69.3346 42.9754 69.4549 42.8759 69.6176C42.7764 69.7804 42.7236 69.977 42.7254 70.1782C42.6287 71.5665 43.9682 73.0534 44.5483 74.1625C45.2387 75.559 45.7842 77.1034 46.5299 78.4917C46.6925 78.7614 46.9224 78.9632 47.187 79.0684C47.4516 79.1736 47.7373 79.1769 48.0035 79.0777C48.2697 78.9785 48.5028 78.7819 48.6697 78.5159C48.8365 78.25 48.9286 77.9281 48.9328 77.5963L48.9673 77.6374ZM43.7542 91.7014C44.0067 91.767 44.2681 91.767 44.5206 91.7014C44.9034 91.5612 45.2268 91.2528 45.4252 90.8388C45.6107 90.3982 45.7031 89.9104 45.6945 89.4176C45.6819 88.9508 45.5754 88.4944 45.3837 88.0868L45.1559 87.75L44.8521 87.4871C44.662 87.3705 44.4523 87.3064 44.2386 87.2995C44.0248 87.2926 43.8125 87.3431 43.6174 87.4473C43.4224 87.5515 43.2495 87.7067 43.1118 87.9013C42.9741 88.096 42.8751 88.325 42.822 88.5715C42.7071 89.05 42.6263 89.5391 42.5804 90.0338L42.6425 90.4856C42.6909 90.7123 42.7858 90.9212 42.9187 91.0935C43.1273 91.3803 43.4083 91.5791 43.7197 91.6603L43.7542 91.7014ZM48.5185 86.4685C48.7883 86.4519 49.0466 86.3328 49.2554 86.1288C49.4642 85.9248 49.6125 85.6465 49.6785 85.3348C49.7858 84.697 49.7501 84.0369 49.575 83.4207C49.4717 82.834 49.2326 82.2933 48.8845 81.8599C48.7598 81.7227 48.6074 81.6263 48.442 81.5803C48.2767 81.5342 48.1041 81.5401 47.9413 81.5972C47.7784 81.6544 47.6308 81.7608 47.5129 81.9063C47.395 82.0517 47.3109 82.231 47.2688 82.4267C47.2135 82.9064 47.2135 83.3928 47.2688 83.8725C47.2688 84.0779 47.2688 84.2833 47.2688 84.4969C47.2652 84.8064 47.293 85.1153 47.3516 85.417C47.4289 85.7043 47.5794 85.956 47.7823 86.1371C47.9852 86.3181 48.2305 86.4196 48.484 86.4274L48.5185 86.4685Z" fill="#030402"/>
    <path d="M46.095 72.6591C43.4642 72.3716 40.0947 65.6846 39.4525 61.4375C39.4111 61.1417 40.4606 58.669 41.6137 55.5966C42.3042 53.7319 43.0499 51.6288 43.6023 49.6572L53.1586 56.8125C51.8692 59.0444 50.8141 61.4556 50.0169 63.9923C49.9455 64.2601 49.8947 64.5351 49.865 64.8138C49.8675 64.8603 49.8675 64.907 49.865 64.9535C49.6233 66.5965 48.6429 72.9384 46.095 72.6591Z" fill="#D3766A"/>
    <path d="M49.865 64.8303C49.8672 64.8768 49.8672 64.9234 49.865 64.9699C49.4968 64.8842 49.1345 64.7661 48.781 64.6167C42.8014 62.0536 43.8578 52.7214 44.279 50.1419L46.6612 51.9328L53.1862 56.8617C51.8974 59.0927 50.8445 61.5042 50.0514 64.0416C49.9693 64.2972 49.9069 64.5612 49.865 64.8303Z" fill="#263238"/>
    <path d="M44.6035 36.4886C42.6288 40.7193 42.2835 54.3069 44.4723 57.9132C47.6347 63.138 53.9872 65.1753 58.0127 60.3777C61.9139 55.6788 62.0934 37.9591 59.5525 34.5417C55.7963 29.4648 47.5174 30.237 44.6035 36.4886Z" fill="#D3766A"/>
    <path d="M53.7731 47.472C53.7731 47.472 53.711 47.472 53.711 47.5542C53.711 48.4907 53.5729 49.5586 52.8548 49.838V49.8955C53.7317 49.7804 53.8974 48.3593 53.7731 47.472Z" fill="#263238"/>
    <path d="M53.1033 46.4698C51.8397 46.3055 51.6533 49.3122 52.8202 49.4683C53.9871 49.6244 54.1598 46.6095 53.1033 46.4698Z" fill="#263238"/>
    <path d="M58.3027 47.7924C58.3027 47.7924 58.3579 47.8417 58.3579 47.8828C58.2682 48.8111 58.3027 49.8954 58.9863 50.2651C58.9863 50.2651 58.9863 50.3308 58.9863 50.3226C58.1232 50.0926 58.0956 48.655 58.3027 47.7924Z" fill="#263238"/>
    <path d="M59.0691 46.8887C60.3327 46.8887 60.2291 49.9036 59.0691 49.9036C57.9091 49.9036 58.0058 46.8805 59.0691 46.8887Z" fill="#263238"/>
    <path d="M54.1253 45.8619C53.7731 45.9522 53.4348 45.9605 53.0895 46.0097C52.7319 46.121 52.3534 46.0893 52.0124 45.9194C51.9131 45.8415 51.8383 45.7268 51.7996 45.5931C51.7608 45.4593 51.7604 45.3141 51.7983 45.18C51.9115 44.935 52.0772 44.73 52.2785 44.5857C52.4798 44.4414 52.7096 44.3631 52.9445 44.3585C53.4215 44.2494 53.9154 44.3611 54.3255 44.6707C54.4108 44.747 54.4763 44.8504 54.5143 44.9691C54.5523 45.0877 54.5614 45.2168 54.5405 45.3413C54.5195 45.4658 54.4695 45.5807 54.396 45.6728C54.3225 45.765 54.2287 45.8305 54.1253 45.8619Z" fill="#263238"/>
    <path d="M60.2015 44.0875C59.8662 43.9756 59.5366 43.8412 59.2141 43.685C58.8509 43.6035 58.5207 43.381 58.2751 43.0524C58.2137 42.932 58.1878 42.7907 58.2015 42.6508C58.2153 42.5109 58.2679 42.3805 58.351 42.2802C58.5396 42.1087 58.7639 42.0013 58.9998 41.9695C59.2357 41.9376 59.4744 41.9826 59.6905 42.0995C60.157 42.2514 60.5601 42.6023 60.8229 43.0853C60.8775 43.1999 60.9031 43.3309 60.8964 43.4624C60.8898 43.5939 60.8513 43.7203 60.7855 43.8263C60.7198 43.9323 60.6297 44.0134 60.526 44.0597C60.4224 44.1061 60.3096 44.1157 60.2015 44.0875Z" fill="#263238"/>
    <path d="M53.2 54.8819C54.2168 54.5923 55.2766 54.5923 56.2934 54.8819C56.3832 54.8819 56.4729 54.6683 56.4936 54.5698L56.5489 52.5982C56.7629 52.746 57.8401 53.4197 57.8401 53.0582C57.9525 49.8538 57.7882 46.6441 57.3498 43.4796C57.345 43.4612 57.3354 43.4451 57.3223 43.4337C57.3093 43.4223 57.2935 43.4161 57.2773 43.4161C57.2611 43.4161 57.2454 43.4223 57.2323 43.4337C57.2193 43.4451 57.2096 43.4612 57.2048 43.4796C57.0943 46.4452 57.412 49.4026 57.336 52.3846C56.955 52.1334 56.5458 51.948 56.1208 51.8342C56.031 51.8342 56.1208 53.929 56.1208 54.2412C55.1704 53.8517 54.1297 53.9195 53.2207 54.4301C52.8617 54.7012 52.7167 55.0627 53.2 54.8819Z" fill="#263238"/>
    <path d="M51.1562 56.8371C51.3288 57.0671 51.5014 57.3793 51.7776 57.4286C52.0679 57.4451 52.3577 57.3862 52.6269 57.2561C52.6269 57.2561 52.6753 57.256 52.6269 57.3053C52.508 57.4797 52.351 57.6118 52.1732 57.6871C51.9954 57.7625 51.8036 57.7782 51.6188 57.7325C51.4679 57.6751 51.3342 57.567 51.2337 57.4213C51.1333 57.2755 51.0704 57.0983 51.0526 56.911C51.0664 56.8207 51.1286 56.8042 51.1562 56.8371Z" fill="#263238"/>
    <path opacity="0.2" d="M47.9386 32.1758C47.835 34.287 47.4138 40.8344 46.5576 42.1652C45.7014 43.496 43.8923 46.593 42.974 47.0942C43.0983 42.732 43.6645 38.5835 44.6104 36.4147C45.386 34.6771 46.5342 33.2146 47.9386 32.1758Z" fill="#263238"/>
    <path d="M57.7779 38.5752C57.2952 39.1599 56.6946 39.5877 56.0334 39.8178C55.3722 40.0478 54.6725 40.0726 54.001 39.8896C53.3138 39.7077 52.6776 39.318 52.1539 38.7582C51.6302 38.1985 51.2366 37.4875 51.0112 36.694C51.0112 36.6447 50.9353 36.694 50.9491 36.694C51.1246 37.5507 51.4941 38.3338 52.0176 38.958C52.5411 39.5823 53.1984 40.0238 53.9181 40.2346C54.6366 40.3978 55.3786 40.3317 56.0687 40.0431C56.7588 39.7545 57.3723 39.2537 57.847 38.5916C57.8884 38.5998 57.8332 38.5259 57.7779 38.5752Z" fill="#263238"/>
    <path d="M54.3117 26.4007C53.2505 26.3153 52.1884 26.5489 51.2231 27.0801C50.2577 27.6113 49.4203 28.4229 48.7878 29.4402C48.2489 30.4756 48.0202 31.6973 48.1388 32.9069H48.2285C48.2416 31.8455 48.4956 30.8081 48.9635 29.9043C49.4315 29.0005 50.096 28.264 50.8869 27.7726C51.7513 27.1968 52.7159 26.8668 53.7054 26.8084C54.6948 26.75 55.6822 26.9647 56.5903 27.4358C57.4834 27.8739 58.2173 28.6743 58.6617 29.6949C58.7031 29.8017 58.8827 29.7524 58.8481 29.6456C58.2819 27.8547 56.4522 26.5239 54.3117 26.4007Z" fill="#263238"/>
    <path d="M67.4999 33.564C67.1995 32.1733 66.4951 30.9539 65.5113 30.122C64.1303 28.9472 62.5146 28.9637 60.8989 29.0294C60.8506 29.0294 60.8575 29.1115 60.8989 29.1033C62.2726 28.9327 63.6585 29.2379 64.8899 29.9823C65.8921 30.6979 66.6556 31.8036 67.0511 33.1122C67.4274 34.4544 67.3838 35.9131 66.9284 37.2201C66.473 38.5271 65.6363 39.5946 64.5722 40.2264C63.9529 40.5727 63.2805 40.7645 62.5965 40.7899C61.9125 40.8154 61.2314 40.6739 60.5951 40.3743C60.5467 40.3743 60.5053 40.4318 60.5536 40.4646C61.4146 40.9171 62.3648 41.0741 63.2968 40.918C64.2289 40.7618 65.1056 40.2987 65.8281 39.581C66.5506 38.8633 67.09 37.9195 67.3854 36.8563C67.6808 35.793 67.7205 34.6527 67.4999 33.564Z" fill="#263238"/>
    <path d="M43.9131 39.1585C43.9131 39.1585 42.0073 33.9913 44.0442 31.2803C45.1974 29.7524 48.6636 30.2781 48.6636 30.2781C49.699 28.7143 51.214 27.7038 52.8755 27.4686C55.8377 26.9182 59.2141 29.3005 59.2141 29.3005C59.2141 29.3005 62.1004 27.6575 64.5792 29.6538C68.0316 32.4386 67.1685 38.9531 63.3985 40.7275C60.747 41.9844 57.4465 38.9778 57.4465 38.9778C57.1151 38.9778 53.5384 41.1465 51.1838 37.2855C51.1838 37.2855 48.9467 39.3146 47.1583 37.5894C46.8182 38.2158 46.3244 38.7023 45.7437 38.9831C45.1631 39.2638 44.5239 39.325 43.9131 39.1585Z" fill="#263238"/>
    <path d="M45.0385 47.7432C45.0385 47.7432 43.2295 42.921 41.4411 43.6357C39.6528 44.3504 40.5228 50.9059 42.2904 52.1875C42.5059 52.3657 42.7492 52.4907 43.0059 52.555C43.2627 52.6193 43.5277 52.6217 43.7853 52.5619C44.0428 52.5022 44.2877 52.3815 44.5053 52.2071C44.723 52.0327 44.909 51.8082 45.0524 51.5467L45.0385 47.7432Z" fill="#D3766A"/>
    <path d="M41.7311 45.4922V45.5498C42.9601 46.4945 43.4228 48.1293 43.6644 49.764C43.6125 49.5879 43.529 49.4272 43.4197 49.2932C43.3104 49.1592 43.178 49.055 43.0316 48.9879C42.8852 48.9207 42.7283 48.8921 42.5717 48.9042C42.4151 48.9162 42.2626 48.9685 42.1247 49.0575C42.0832 49.0575 42.1247 49.1479 42.1247 49.1479C42.3761 49.1133 42.6304 49.1741 42.8511 49.3216C43.0718 49.4692 43.2477 49.6959 43.3537 49.9694C43.5411 50.4138 43.6848 50.8824 43.7818 51.3659C43.7818 51.522 44.0442 51.4974 44.0304 51.3659C44.3825 49.2465 43.5194 46.1166 41.7311 45.4922Z" fill="#263238"/>
    <path d="M140.745 57.314L66.4057 84.4048L79.809 136.466L154.148 109.375L140.745 57.314Z" fill="black"/>
    <path opacity="0.2" d="M140.745 57.314L66.4057 84.4048L79.809 136.466L154.148 109.375L140.745 57.314Z" fill="black"/>
    <path opacity="0.2" d="M140.741 57.3144L115.759 66.4185L129.163 118.48L154.145 109.376L140.741 57.3144Z" fill="black"/>
    <path d="M139.545 59.967C138.702 64.5783 137.883 69.1896 137.087 73.801L134.732 87.6678L132.454 101.592C131.708 106.225 130.981 110.867 130.272 115.517C131.114 110.911 131.933 106.299 132.73 101.683L135.084 87.8157L137.363 73.9242C138.109 69.2691 138.836 64.6166 139.545 59.967Z" fill="black"/>
    <path d="M151.815 107.63C149.053 104.257 146.266 100.897 143.453 97.5505L135.029 87.5611L126.55 77.6456C123.714 74.3596 120.865 71.0736 118.002 67.7877C120.764 71.1667 123.551 74.5267 126.364 77.8674L134.787 87.8568L143.267 97.7723C146.107 101.091 148.956 104.377 151.815 107.63Z" fill="black"/>
    <path d="M80.6834 91.1138L81.0928 90.9646L79.3314 84.1231L78.9221 84.2723L80.6834 91.1138Z" fill="#263238"/>
    <path d="M79.7111 91.4613L80.1204 91.3121L78.3591 84.4706L77.9497 84.6198L79.7111 91.4613Z" fill="#263238"/>
    <path d="M78.7298 91.8338L79.1392 91.6846L77.3778 84.8431L76.9685 84.9923L78.7298 91.8338Z" fill="#263238"/>
    <path d="M77.7587 92.169L78.168 92.0199L76.4077 85.178L75.9983 85.3271L77.7587 92.169Z" fill="#263238"/>
    <path d="M76.7785 92.5311L77.1879 92.3819L75.4265 85.5404L75.0172 85.6896L76.7785 92.5311Z" fill="#263238"/>
    <path d="M75.8042 92.879L76.2135 92.7298L74.4521 85.8883L74.0428 86.0375L75.8042 92.879Z" fill="#263238"/>
    <path d="M74.8183 93.2618L75.2277 93.1126L73.4663 86.2711L73.057 86.4203L74.8183 93.2618Z" fill="#263238"/>
    <path d="M73.8427 93.607L74.252 93.4578L72.4896 86.6166L72.0803 86.7659L73.8427 93.607Z" fill="#263238"/>
    <path d="M72.8581 93.9758L73.2675 93.8267L71.5061 86.9852L71.0968 87.1343L72.8581 93.9758Z" fill="#263238"/>
    <path d="M83.4707 83.1825L81.7722 83.2318L85.4524 81.8763L84.0162 82.9771L84.6653 85.4909C85.8322 85.2527 86.6193 86.411 87.2131 88.7112L83.5329 90.0913C82.9391 87.7993 83.0426 86.3124 84.1198 85.7292L83.4707 83.1825Z" fill="#263238"/>
    <path d="M87.1718 84.9322L88.1315 84.579L87.2684 81.2273L89.7265 80.3318L90.5896 83.6836L91.5563 83.3303L90.2582 87.6185L87.1718 84.9322Z" fill="#263238"/>
    <path opacity="0.1" d="M66.4089 84.4065L67.5068 88.6783L118.892 78.5903L115.758 66.424L66.4089 84.4065Z" fill="black"/>
    <path d="M163.781 115.278L138.792 124.381L129.16 118.482L154.148 109.372L163.781 115.278Z" fill="black"/>
    <path opacity="0.2" d="M163.781 115.278L138.792 124.381L129.16 118.482L154.148 109.372L163.781 115.278Z" fill="black"/>
    <path d="M74.605 147.777L99.5935 138.666L104.793 127.363L79.8043 136.465L74.605 147.777Z" fill="black"/>
    <path opacity="0.1" d="M74.605 147.777L99.5935 138.666L104.793 127.363L79.8043 136.465L74.605 147.777Z" fill="black"/>
    <path d="M33.4799 76.3723C37.1325 90.9045 47.2895 115.804 51.0596 118.844C54.3808 121.563 70.324 119.09 77.2979 117.291C79.9079 116.626 74.5359 92.9172 71.774 93.6976C68.4321 94.6423 58.4822 96.9836 57.7779 96.3346C57.0737 95.6856 47.4207 80.7262 40.5159 71.9526C34.2463 63.9677 32.0989 70.8765 33.4799 76.3723Z" fill="#D3766A"/>
    <path d="M70.3378 95.6282C70.3378 95.6282 75.62 88.5469 79.3624 85.8442C83.3128 83.1541 87.7533 81.6458 92.302 81.4492C97.2113 81.2192 109.219 84.6859 108.977 88.9741C108.763 92.8598 96.6451 88.5715 96.6451 88.5715C96.6451 88.5715 109.605 90.5185 108.625 95.1435C107.645 99.7685 93.8141 93.8291 93.8141 93.8291C93.8141 93.8291 107.092 96.1786 105.476 100.771C104.234 104.229 91.4527 99.6946 91.4527 99.6946C91.4527 99.6946 102.859 101.814 101.706 105.445C100.436 109.446 88.4146 106.143 88.4146 106.143C84.1957 114.753 79.2174 116.823 75.5371 117.751C74.6188 117.94 70.3378 95.6282 70.3378 95.6282Z" fill="#D3766A"/>
    <path d="M92.1984 87.5529C93.7244 87.7172 95.278 87.8732 96.7901 88.1936C98.3023 88.514 99.8006 88.9083 101.285 89.4012C103.23 89.9959 105.111 90.8531 106.892 91.9561C103.612 90.272 98.2125 89.0069 96.7004 88.6701C95.1882 88.3333 93.6899 87.9307 92.1846 87.6104C92.1432 87.6268 92.157 87.5529 92.1984 87.5529Z" fill="#263238"/>
    <path d="M91.1144 94.0345C93.0546 94.3384 95.0018 94.5603 96.9351 94.971C98.8685 95.3817 100.657 95.9732 102.556 96.5401C102.701 96.5811 102.632 96.6633 102.487 96.6222C100.567 96.1457 98.7718 95.8829 96.8523 95.4392C94.9327 94.9956 93.027 94.4535 91.1005 94.0838C91.0729 94.0838 91.0798 94.0263 91.1144 94.0345Z" fill="#263238"/>
    <path d="M89.3399 99.3906C92.3341 99.7773 95.2867 100.532 98.1504 101.641C98.2954 101.691 98.1987 101.781 98.0468 101.74C95.133 100.919 92.8475 100.261 89.333 99.5138C89.2777 99.5056 89.2777 99.3824 89.3399 99.3906Z" fill="#263238"/>
    <path d="M75.7166 121.497L71.0766 93.1391L58.1438 95.5543C53.2 88.4894 43.3261 74.3597 39.2937 70.0879C34.5639 65.0686 31.3255 68.6503 32.9482 76.0848C36.663 93.0816 47.9316 118.186 50.9835 120.651C55.3612 124.183 75.7166 121.497 75.7166 121.497Z" fill="black"/>
    <path opacity="0.1" d="M66.9614 97.0739C67.5992 97.2389 68.249 97.3297 68.9016 97.345C70.2826 97.5668 70.8902 99.9902 69.6335 100.91C68.9736 101.394 68.2276 101.687 67.4553 101.765C66.6831 101.844 65.9061 101.706 65.1868 101.362C63.8058 100.721 62.6389 99.1276 62.9358 97.2546C62.9872 96.9054 63.1137 96.5781 63.303 96.3043C63.4923 96.0305 63.7379 95.8197 64.0159 95.6923C64.294 95.565 64.595 95.5254 64.8897 95.5775C65.1845 95.6296 65.4628 95.7715 65.6978 95.9895C66.0804 96.4106 66.5047 96.7748 66.9614 97.0739ZM65.5804 94.1658C66.0136 94.4143 66.4907 94.535 66.9715 94.5178C67.4522 94.5007 67.9224 94.3461 68.3423 94.0672C68.497 93.9443 68.6211 93.774 68.7014 93.5743L65.5804 94.1658ZM58.862 95.4145C59.4117 95.8922 60.0904 96.1117 60.7677 96.0306C61.0013 95.9925 61.2162 95.8582 61.3751 95.651C61.5341 95.4439 61.627 95.1771 61.6377 94.8969L58.862 95.4145ZM73.5002 108.074C73.2269 108.21 73.0056 108.462 72.8788 108.78C72.2988 110.169 73.1066 111.664 74.2597 112.559L73.5002 108.074ZM52.7029 113.528C52.4819 114.44 52.4543 115.254 51.8812 115.993C51.2641 116.585 50.712 117.266 50.2379 118.022C50.1577 118.208 50.1196 118.416 50.1271 118.625C50.1347 118.833 50.1877 119.036 50.2809 119.214C50.3742 119.391 50.5045 119.536 50.6592 119.635C50.8138 119.735 50.9874 119.785 51.1631 119.78C52.3662 119.604 53.4697 118.897 54.2549 117.798C55.0402 116.699 55.4498 115.29 55.4027 113.849C55.3639 113.48 55.2208 113.137 54.997 112.877C54.7731 112.617 54.4817 112.455 54.1705 112.418C53.8593 112.381 53.5466 112.47 53.2838 112.672C53.0209 112.874 52.8234 113.176 52.7236 113.528H52.7029ZM50.3207 105.568C49.9341 106.685 50.0031 107.95 49.6786 109.117C49.3938 110.186 49.0548 111.234 48.6636 112.255C48.3736 112.994 48.9536 114.161 49.7062 113.767C50.9302 113.208 51.9315 112.119 52.5096 110.719C53.0343 109.429 53.6143 107.26 53.1103 105.889C52.6062 104.517 50.9284 103.95 50.3414 105.568H50.3207ZM40.074 76.5118C40.4598 76.609 40.8622 76.5246 41.1969 76.2765C41.5315 76.0284 41.7725 75.6358 41.8692 75.181C42.2559 73.4148 40.9302 71.5993 39.8806 70.4985C38.8311 69.3977 37.3535 68.3955 35.8828 68.9623C35.687 69.0378 35.5106 69.1715 35.3705 69.3508C35.2303 69.5302 35.1309 69.7491 35.0818 69.9869C35.0327 70.2247 35.0355 70.4735 35.0899 70.7097C35.1442 70.9458 35.2484 71.1616 35.3925 71.3364C36.0347 72.2893 36.9254 72.9794 37.609 73.9159C38.2925 74.8524 38.8933 76.2736 40.0947 76.5118H40.074ZM45.4045 83.5192C45.9845 82.5252 45.5357 81.0547 45.1214 80.11C44.9008 79.5889 44.5578 79.1551 44.134 78.8613C43.8488 78.6442 43.5031 78.5699 43.1721 78.6545C42.841 78.7391 42.5515 78.9758 42.3664 79.3131C42.1781 79.7803 42.1484 80.3158 42.2835 80.8083C42.3412 81.0659 42.4198 81.3163 42.5183 81.5558V81.6298V81.6955C42.6417 82.48 42.9211 83.2179 43.3331 83.8478C43.4757 84.0186 43.6495 84.1479 43.8411 84.2255C44.0327 84.3031 44.2367 84.3269 44.4373 84.2951C44.6379 84.2633 44.8296 84.1767 44.9974 84.0421C45.1652 83.9075 45.3045 83.7285 45.4045 83.5192ZM43.7543 91.7342C44.0068 91.7998 44.2682 91.7998 44.5207 91.7342C44.9034 91.594 45.2269 91.2855 45.4252 90.8716C45.6107 90.4309 45.7032 89.9431 45.6945 89.4504C45.682 88.9836 45.5754 88.5272 45.3838 88.1196L45.1559 87.7828L44.8521 87.5199C44.6621 87.4033 44.4524 87.3391 44.2386 87.3322C44.0249 87.3253 43.8125 87.3759 43.6175 87.4801C43.4224 87.5843 43.2496 87.7395 43.1119 87.9341C42.9742 88.1287 42.8751 88.3578 42.8221 88.6043C42.7072 89.0827 42.6263 89.5719 42.5804 90.0665L42.6426 90.5183C42.6909 90.7451 42.7858 90.9539 42.9188 91.1262C43.1313 91.4009 43.4119 91.5879 43.7197 91.6602L43.7543 91.7342ZM49.5474 83.396L48.1664 81.5476C47.9458 81.5163 47.7232 81.5828 47.541 81.7343C47.3589 81.8858 47.2301 82.1118 47.179 82.3691C47.1238 82.8488 47.1238 83.3352 47.179 83.8149C47.179 84.0203 47.179 84.2257 47.179 84.4393C47.1755 84.7488 47.2033 85.0577 47.2619 85.3594C47.3374 85.672 47.4988 85.9455 47.7204 86.1361C47.9419 86.3268 48.2108 86.4235 48.4841 86.4109C48.7539 86.3943 49.0121 86.2752 49.2209 86.0712C49.4297 85.8672 49.578 85.5889 49.6441 85.2772C49.7477 84.6506 49.7145 84.0029 49.5474 83.396Z" fill="#030402"/>
    <path d="M71.2561 118.893C70.6968 117.209 69.3849 109.898 69.0742 108.066C68.7635 106.234 67.7347 98.873 67.424 96.9918C67.424 96.8932 67.5206 96.8275 67.5413 96.9343C67.8728 98.7827 69.3987 106.069 69.7233 107.893C70.0478 109.717 71.2837 117.028 71.339 118.868C71.3417 118.881 71.34 118.895 71.3342 118.907C71.3283 118.918 71.3189 118.927 71.3079 118.93C71.2969 118.933 71.2853 118.931 71.2756 118.924C71.2659 118.917 71.2589 118.906 71.2561 118.893Z" fill="#263238"/>
    <path d="M66.989 122.294C64.8692 122.442 62.7494 122.499 60.6296 122.483C58.502 122.494 56.3759 122.349 54.2634 122.047C53.1809 121.92 52.1226 121.587 51.1286 121.062C50.235 120.311 49.4591 119.379 48.8362 118.31C47.5845 116.254 46.4518 114.099 45.4459 111.861C43.3745 107.433 41.593 102.824 39.853 98.2405C38.113 93.6566 36.5318 88.9412 35.0818 84.1929C36.8425 88.7851 38.5825 93.3855 40.3916 97.9448C42.2007 102.504 44.0304 107.047 46.0052 111.491C46.9908 113.708 48.0788 115.858 49.2643 117.932C49.8177 118.964 50.5188 119.873 51.3357 120.618C52.2773 121.135 53.2818 121.47 54.3117 121.612C58.517 122.218 62.7548 122.446 66.989 122.294Z" fill="#263238"/>
    <path d="M36.4282 88.2018C36.1446 87.861 35.888 87.4898 35.6618 87.0928C35.4275 86.6997 35.248 86.2641 35.1301 85.803C35.2341 86.0071 35.3471 86.2045 35.4685 86.3945L35.8068 86.9778C36.0341 87.3709 36.2416 87.7796 36.4282 88.2018Z" fill="#263238"/>
    <path d="M47.3309 80.5865C49.0779 82.6731 50.6453 84.9651 52.2679 87.1585C53.8905 89.3519 55.4441 91.6685 57.1013 93.8537L57.7158 94.6752C57.8263 94.7984 57.9298 94.9381 58.0334 95.0531C58.137 95.1681 58.137 95.1599 58.1853 95.2092C58.1853 95.2092 58.2336 95.2092 58.2613 95.2092C58.786 95.2092 59.4489 95.0695 60.0427 94.9792L63.7161 94.3302C66.1604 93.903 68.6116 93.4594 71.0628 93.0651L71.1595 93.788L71.0145 93.0733H71.049C68.6254 93.6894 66.2156 94.2398 63.7575 94.7738C62.5354 95.0367 61.3132 95.2667 60.0841 95.4885C59.4558 95.6182 58.8219 95.706 58.1853 95.7514C58.1349 95.7591 58.0838 95.7591 58.0334 95.7514C57.9658 95.7272 57.9026 95.6882 57.847 95.6364C57.7773 95.572 57.7105 95.5035 57.6467 95.431L57.3084 95.0367C57.0875 94.7656 56.8803 94.4945 56.6732 94.2152C55.0505 91.9725 53.4762 89.7052 51.9295 87.405L49.6164 83.9465C48.8569 82.8703 48.1664 81.6874 47.3309 80.5865Z" fill="#263238"/>
    <path d="M48.2355 80.833C48.4955 81.2131 48.7266 81.62 48.926 82.0488C49.1206 82.4725 49.2581 82.9299 49.3333 83.4043C49.2505 83.1825 49.1469 82.9853 49.0502 82.7717L48.7671 82.1392C48.5703 81.7155 48.3928 81.2795 48.2355 80.833Z" fill="#263238"/>
    <path d="M103.405 18.4322C103.405 21.813 102.615 25.1271 101.124 28.005C99.6326 30.8828 97.4987 33.2112 94.9601 34.7303C92.4215 36.2493 89.5781 36.8994 86.7471 36.6079C83.9161 36.3164 81.2088 35.0948 78.9274 33.0795L71.408 35.3632L74.5359 27.0415C73.435 24.5946 72.8176 21.8813 72.7306 19.1079C72.6436 16.3345 73.0893 13.574 74.0338 11.0363C74.9783 8.49865 76.3968 6.25062 78.1813 4.46319C79.9658 2.67577 82.0694 1.396 84.3321 0.721214C86.5949 0.0464272 88.9571 -0.00561039 91.2393 0.569057C93.5215 1.14372 95.6634 2.32996 97.5024 4.03757C99.3413 5.74518 100.829 7.9292 101.851 10.4235C102.874 12.9179 103.406 15.6569 103.405 18.4322Z" fill="white"/>
    <path d="M103.405 18.4239C103.404 21.8089 102.621 25.1284 101.14 28.019C100.78 28.7477 100.383 29.45 99.9526 30.122C99.4945 30.7655 99.0033 31.3746 98.4818 31.9458C97.4517 33.1012 96.2893 34.0774 95.0294 34.8456C93.7655 35.6132 92.4175 36.1662 91.0246 36.4886C90.3254 36.6542 89.6169 36.7586 88.9048 36.8008C88.1949 36.8706 87.4812 36.8706 86.7713 36.8008C83.8992 36.5357 81.1455 35.327 78.8169 33.3094L79.024 33.3587L71.5254 35.7082L70.9178 35.8971L71.1733 35.2071L74.2735 26.8689V27.2139C73.1458 24.7196 72.5156 21.95 72.4318 19.1194C72.348 16.2889 72.8128 13.4734 73.7902 10.8908C74.7688 8.31549 76.2254 6.03762 78.0505 4.22847C79.8733 2.446 82.0118 1.17782 84.3054 0.51908C86.5991 -0.139657 88.9883 -0.171841 91.2939 0.424945C93.5787 1.0433 95.7184 2.26143 97.5566 3.99024C99.3849 5.71378 100.861 7.90802 101.874 10.408C102.887 12.908 103.41 15.6486 103.405 18.4239ZM103.405 18.4239C103.404 14.2506 102.189 10.2065 99.9659 6.97801C97.7432 3.74954 94.6498 1.53574 91.211 0.71247C88.9486 0.176644 86.6132 0.260925 84.3822 0.958918C82.1584 1.64223 80.0961 2.92382 78.3543 4.70494C76.6283 6.50534 75.2523 8.73107 74.3219 11.2276C73.4042 13.7171 72.9745 16.4224 73.0652 19.1386C73.1716 21.8278 73.7752 24.456 74.8328 26.836L74.9088 27.0086L74.8397 27.1811L71.6842 35.4946L71.3321 35.0017L78.8652 32.7837H78.9826L79.0724 32.8658C81.3052 34.8835 83.9664 36.1209 86.7575 36.4393C87.447 36.4997 88.1393 36.4997 88.8289 36.4393C90.939 36.3531 93.0088 35.7283 94.8982 34.6074C96.1586 33.8774 97.3219 32.9307 98.3506 31.7979C98.8719 31.2352 99.3631 30.6344 99.8214 29.9988C100.261 29.3452 100.669 28.6622 101.044 27.9533C102.551 25.0948 103.368 21.798 103.405 18.4239Z" fill="#263238"/>
    <path d="M89.1327 20.4038V22.4164C89.1374 22.6175 89.1077 22.8177 89.0452 23.0047C88.9827 23.1916 88.8887 23.3614 88.7691 23.5037C88.6496 23.646 88.5068 23.7577 88.3497 23.8321C88.1926 23.9064 88.0243 23.9419 87.8553 23.9362C87.6879 23.9362 87.5221 23.8968 87.3675 23.8204C87.2129 23.7439 87.0725 23.6318 86.9545 23.4906C86.8364 23.3493 86.743 23.1817 86.6795 22.9974C86.6161 22.8131 86.5839 22.6156 86.5848 22.4164V19.2044C86.5848 19.2044 86.5848 19.2044 86.5848 19.1387C86.5848 19.0729 86.5848 19.1387 86.5848 19.0812C86.5935 18.6827 86.7299 18.3034 86.9661 18.0208C87.2023 17.7382 87.5205 17.5738 87.8553 17.5614C88.2494 17.5842 88.6433 17.5116 89.0132 17.3479C89.383 17.1842 89.721 16.9328 90.0067 16.6091C90.2925 16.2853 90.5199 15.8958 90.6753 15.4643C90.8308 15.0328 90.9109 14.5682 90.9109 14.0988C90.9109 13.6293 90.8308 13.1647 90.6753 12.7332C90.5199 12.3017 90.2925 11.9123 90.0067 11.5885C89.721 11.2647 89.383 11.0134 89.0132 10.8497C88.6433 10.686 88.2494 10.6133 87.8553 10.6362C87.3509 10.6343 86.855 10.7904 86.4174 11.089C85.9798 11.3875 85.6161 11.8178 85.3627 12.3367C85.2776 12.5117 85.1644 12.665 85.0294 12.7878C84.8945 12.9107 84.7405 13.0006 84.5763 13.0525C84.4121 13.1044 84.2409 13.1172 84.0725 13.0902C83.9041 13.0633 83.7418 12.997 83.595 12.8953C83.4509 12.7938 83.3251 12.6593 83.2249 12.4998C83.1246 12.3402 83.0519 12.1586 83.0108 11.9654C82.9697 11.7723 82.9611 11.5714 82.9856 11.3743C83.01 11.1772 83.0669 10.9877 83.1531 10.8169C83.6073 9.88634 84.2486 9.10455 85.0195 8.54171C85.7904 7.97887 86.6667 7.65261 87.5697 7.59221C88.4728 7.53182 89.3743 7.73919 90.1933 8.1957C91.0123 8.65221 91.7233 9.34357 92.2622 10.2077C92.8012 11.0718 93.1514 12.0817 93.2813 13.1466C93.4112 14.2115 93.3168 15.2982 93.0066 16.309C92.6963 17.3198 92.1799 18.2231 91.5038 18.9378C90.8276 19.6525 90.0129 20.1562 89.1327 20.4038ZM89.1327 27.1811V27.7397C89.1365 27.9402 89.106 28.1394 89.0431 28.3254C88.9801 28.5114 88.8861 28.6802 88.7666 28.8216C88.6471 28.963 88.5047 29.074 88.348 29.1478C88.1914 29.2217 88.0238 29.2569 87.8553 29.2513C87.5184 29.2513 87.1952 29.092 86.9569 28.8086C86.7187 28.5251 86.5848 28.1406 86.5848 27.7397V27.1811C86.5884 26.7808 86.7231 26.3979 86.9604 26.114C87.1978 25.8302 87.5188 25.6677 87.8553 25.6613C88.0236 25.6591 88.1905 25.6969 88.3463 25.7725C88.5021 25.8481 88.6437 25.96 88.7627 26.1016C88.8817 26.2431 88.9757 26.4115 89.0392 26.5969C89.1028 26.7823 89.1345 26.9809 89.1327 27.1811Z" fill="black"/>
</svg>
